{"glyphs":{"0":{"ha":911,"x_min":42,"x_max":869,"o":"m 42 768 q 69 871 42 824 q 143 945 96 918 q 246 972 190 972 l 667 972 q 767 945 721 972 q 842 872 814 918 q 869 768 869 825 l 869 239 q 842 138 869 185 q 767 64 814 92 q 667 36 721 36 l 246 36 q 144 64 192 36 q 69 138 97 92 q 42 239 42 185 l 42 768 m 236 211 q 249 178 236 192 q 283 164 263 164 l 629 164 q 663 178 649 164 q 676 211 676 192 l 676 797 q 663 830 676 817 q 629 843 649 843 l 283 843 q 249 830 263 843 q 236 797 236 817 l 236 211 z "},"1":{"ha":426,"x_min":69,"x_max":357,"o":"m 164 846 l 69 846 l 69 975 l 357 975 l 357 39 l 164 39 l 164 846 z "},"2":{"ha":885,"x_min":42,"x_max":843,"o":"m 639 975 q 742 948 694 975 q 816 874 789 921 q 843 771 843 826 l 843 638 q 816 535 843 582 q 742 461 789 489 q 639 433 694 433 l 282 432 q 250 419 264 432 q 236 385 236 406 l 236 213 q 250 181 236 194 q 282 167 264 167 l 843 167 l 843 39 l 246 39 q 143 66 190 39 q 69 140 96 93 q 42 243 42 188 l 42 357 q 69 458 42 411 q 144 533 97 506 q 246 561 192 561 l 601 561 q 635 574 622 561 q 649 607 649 588 l 649 799 q 635 833 649 819 q 601 846 622 846 l 53 846 l 53 975 l 639 975 z "},"3":{"ha":860,"x_min":42,"x_max":790,"o":"m 586 975 q 689 948 642 975 q 763 874 736 921 q 790 771 790 826 l 790 243 q 763 140 790 188 q 689 66 736 93 q 586 39 642 39 l 42 39 l 42 167 l 550 167 q 582 181 568 167 q 596 213 596 194 l 596 442 l 76 442 l 76 571 l 596 571 l 596 799 q 582 833 596 819 q 550 846 568 846 l 42 846 l 42 975 l 586 975 z "},"4":{"ha":954,"x_min":14,"x_max":913,"o":"m 786 975 l 786 310 l 913 310 l 913 182 l 786 182 l 786 39 l 590 39 l 590 182 l 14 182 l 14 310 l 19 310 l 14 311 l 526 975 l 786 975 m 590 310 l 590 765 l 242 310 l 590 310 z "},"5":{"ha":889,"x_min":42,"x_max":847,"o":"m 847 975 l 847 846 l 254 846 l 254 590 l 633 590 q 735 563 689 590 q 809 489 782 536 q 836 385 836 442 l 836 239 q 808 138 836 185 q 734 64 781 92 q 633 36 688 36 l 42 36 l 42 164 l 596 164 q 629 178 615 164 q 643 211 643 192 l 643 415 q 629 448 643 435 q 596 461 615 461 l 60 461 l 60 975 l 847 975 z "},"6":{"ha":893,"x_min":69,"x_max":851,"o":"m 311 846 q 277 833 290 846 q 264 799 264 819 l 264 625 l 643 625 q 746 598 699 625 q 820 524 793 571 q 847 421 847 476 l 847 239 q 819 137 847 183 q 743 63 790 90 q 643 36 696 36 l 274 36 q 172 64 219 36 q 97 138 125 92 q 69 239 69 185 l 69 771 q 97 872 69 825 q 172 947 125 919 q 274 975 219 975 l 851 975 l 851 846 l 311 846 m 264 211 q 277 178 264 192 q 311 164 290 164 l 606 164 q 639 178 625 164 q 653 211 653 192 l 653 449 q 639 483 653 469 q 606 496 625 496 l 264 496 l 264 211 z "},"7":{"ha":915,"x_min":42,"x_max":901,"o":"m 901 846 l 447 39 l 236 39 l 693 846 l 42 846 l 42 975 l 901 975 l 901 846 z "},"8":{"ha":963,"x_min":69,"x_max":893,"o":"m 893 242 q 866 140 893 186 q 792 66 839 93 q 689 39 746 39 l 274 39 q 171 66 218 39 q 97 140 124 93 q 69 242 69 188 l 69 771 q 97 874 69 826 q 171 948 124 921 q 274 975 218 975 l 689 975 q 792 947 744 975 q 866 873 839 919 q 893 771 893 826 l 893 242 m 263 213 q 276 181 263 194 q 310 167 290 167 l 653 167 q 685 181 672 167 q 699 213 699 194 l 699 442 l 263 442 l 263 213 m 699 571 l 699 799 q 685 833 699 819 q 653 846 672 846 l 310 846 q 276 833 290 846 q 263 799 263 819 l 263 571 l 699 571 z "},"9":{"ha":892,"x_min":42,"x_max":822,"o":"m 582 164 q 615 178 601 164 q 628 211 628 192 l 628 385 l 250 385 q 148 413 194 385 q 74 488 101 440 q 46 589 46 535 l 46 771 q 74 872 46 825 q 149 947 101 919 q 250 975 196 975 l 619 975 q 720 948 674 975 q 794 874 767 921 q 822 771 822 828 l 822 239 q 794 138 822 185 q 720 64 767 92 q 619 36 674 36 l 42 36 l 42 164 l 582 164 m 240 561 q 253 527 240 540 q 286 514 267 514 l 628 514 l 628 799 q 615 833 628 819 q 582 846 601 846 l 286 846 q 253 833 267 846 q 240 799 240 819 l 240 561 z "},"!":{"ha":514,"x_min":139,"x_max":375,"o":"m 160 981 l 354 981 l 354 307 l 160 307 l 160 981 m 139 126 q 172 203 139 171 q 251 236 204 236 l 263 236 q 342 203 310 236 q 375 126 375 171 q 342 47 375 81 q 263 14 308 14 l 251 14 q 172 47 206 14 q 139 126 139 81 z "},"\"":{"ha":768,"x_min":139,"x_max":629,"o":"m 153 722 l 139 1014 l 351 1014 l 338 722 l 153 722 m 629 1014 l 615 722 l 431 722 l 417 1014 l 629 1014 z "},"#":{"ha":1389,"x_min":269,"x_max":1118,"o":"m 1007 976 l 993 768 l 1118 768 l 1107 640 l 986 640 l 969 378 l 1118 378 l 1107 250 l 961 250 l 949 42 l 754 42 l 767 250 l 588 250 l 575 42 l 381 42 l 393 250 l 269 250 l 282 378 l 401 378 l 418 640 l 269 640 l 282 768 l 426 768 l 440 976 l 633 976 l 619 768 l 799 768 l 813 976 l 1007 976 m 775 378 l 792 640 l 613 640 l 596 378 l 775 378 z "},"%":{"ha":1389,"x_min":140,"x_max":1249,"o":"m 1028 1004 l 568 28 l 374 28 l 833 1004 l 1028 1004 m 140 786 q 168 888 140 842 q 242 963 196 935 q 344 990 289 990 l 428 990 q 530 963 483 990 q 603 888 576 935 q 631 786 631 840 l 631 713 q 603 609 631 656 q 528 535 575 563 q 428 508 482 508 l 344 508 q 242 535 289 508 q 167 610 194 563 q 140 713 140 657 l 140 786 m 333 683 q 347 650 333 663 q 381 638 360 638 l 390 638 q 423 650 410 638 q 436 683 436 663 l 436 814 q 423 848 436 835 q 390 861 410 861 l 381 861 q 347 848 361 861 q 333 814 333 835 l 333 683 m 758 314 q 785 416 758 369 q 859 490 813 463 q 961 518 906 518 l 1044 518 q 1147 490 1100 518 q 1222 416 1194 463 q 1249 314 1249 369 l 1249 239 q 1221 138 1249 185 q 1146 64 1193 92 q 1044 36 1099 36 l 961 36 q 860 64 907 36 q 786 138 814 92 q 758 239 758 185 l 758 314 m 953 211 q 966 178 953 192 q 999 164 979 164 l 1008 164 q 1041 178 1028 164 q 1054 211 1054 192 l 1054 343 q 1041 376 1054 363 q 1008 389 1028 389 l 999 389 q 966 376 979 389 q 953 343 953 363 l 953 211 z "},"&":{"ha":1389,"x_min":210,"x_max":1179,"o":"m 964 847 l 693 596 l 831 435 l 939 563 l 1179 563 l 951 293 l 1168 39 l 897 39 l 815 133 l 749 54 l 215 54 l 219 58 l 215 57 l 215 411 l 419 600 l 210 847 l 210 975 l 964 975 l 964 847 m 411 333 l 411 182 l 615 182 l 694 276 l 542 456 l 410 333 l 411 333 m 571 739 l 688 847 l 481 847 l 571 739 z "},"'":{"ha":490,"x_min":139,"x_max":351,"o":"m 153 722 l 139 1014 l 351 1014 l 338 722 l 153 722 z "},"(":{"ha":631,"x_min":139,"x_max":492,"o":"m 492 1008 q 376 771 415 897 q 338 514 338 644 q 376 256 338 383 q 492 10 415 128 l 286 10 q 178 241 217 103 q 139 529 139 379 q 175 792 139 669 q 286 1008 211 915 l 492 1008 z "},")":{"ha":631,"x_min":139,"x_max":492,"o":"m 344 1008 q 456 792 419 915 q 492 529 492 669 q 453 241 492 379 q 344 10 414 103 l 139 10 q 254 256 215 128 q 293 514 293 383 q 254 771 293 644 q 139 1008 215 897 l 344 1008 z "},"*":{"ha":1389,"x_min":428,"x_max":961,"o":"m 488 893 l 596 858 l 596 975 l 790 975 l 790 860 l 901 896 l 961 711 l 853 676 l 921 582 l 764 468 l 696 560 l 628 467 l 471 581 l 538 672 l 428 708 l 488 893 z "},"+":{"ha":1389,"x_min":385,"x_max":1004,"o":"m 597 433 l 385 433 l 385 563 l 597 563 l 597 796 l 792 796 l 792 563 l 1004 563 l 1004 433 l 792 433 l 792 201 l 597 201 l 597 433 z "},",":{"ha":740,"x_min":139,"x_max":463,"o":"m 139 -1 l 250 276 l 463 276 l 324 -1 l 139 -1 z "},"-":{"ha":1389,"x_min":385,"x_max":1004,"o":"m 1004 451 l 385 451 l 385 581 l 1004 581 l 1004 451 z "},".":{"ha":638,"x_min":139,"x_max":360,"o":"m 360 110 q 327 31 360 61 q 250 0 294 0 q 172 31 204 0 q 139 110 139 63 q 172 190 139 158 q 250 221 204 221 q 327 190 294 221 q 360 110 360 158 z "},"/":{"ha":1389,"x_min":307,"x_max":1083,"o":"m 890 1001 l 1083 1001 l 500 -6 l 307 -6 l 890 1001 z "},"<":{"ha":1389,"x_min":169,"x_max":1219,"o":"m 1219 143 l 169 407 l 169 592 l 1219 856 l 1219 713 l 371 500 l 1219 286 l 1219 143 z "},"=":{"ha":1389,"x_min":385,"x_max":1004,"o":"m 1004 608 l 385 608 l 385 738 l 1004 738 l 1004 608 m 385 406 l 1004 406 l 1004 276 l 385 276 l 385 406 z "},">":{"ha":1389,"x_min":169,"x_max":1219,"o":"m 1018 500 l 169 713 l 169 856 l 1219 592 l 1219 407 l 169 143 l 169 286 l 1018 500 z "},"\\":{"ha":1193,"x_min":278,"x_max":915,"o":"m 722 -6 l 278 1001 l 471 1001 l 915 -6 l 722 -6 z "},"·":{"ha":499,"x_min":139,"x_max":360,"o":"m 360 544 q 327 465 360 496 q 250 435 294 435 q 172 466 204 435 q 139 544 139 497 q 172 624 139 593 q 250 656 204 656 q 327 624 294 656 q 360 544 360 593 z "},"—":{"ha":1389,"x_min":79,"x_max":1307,"o":"m 1307 456 l 79 456 l 79 585 l 1307 585 l 1307 456 z "},"‘":{"ha":1389,"x_min":710,"x_max":974,"o":"m 886 1014 l 974 722 l 781 722 l 710 1014 l 886 1014 z "},"’":{"ha":1389,"x_min":415,"x_max":679,"o":"m 415 722 l 486 1014 l 679 1014 l 592 722 l 415 722 z "},"“":{"ha":1389,"x_min":574,"x_max":1111,"o":"m 751 1014 l 839 722 l 644 722 l 574 1014 l 751 1014 m 1024 1014 l 1111 722 l 918 722 l 849 1014 l 1024 1014 z "},"”":{"ha":1389,"x_min":278,"x_max":817,"o":"m 553 719 l 622 1011 l 817 1011 l 729 719 l 553 719 m 349 1011 l 542 1011 l 454 719 l 278 719 l 349 1011 z "},"…":{"ha":1389,"x_min":179,"x_max":1210,"o":"m 394 518 q 363 442 394 472 q 288 411 332 411 q 210 442 242 411 q 179 518 179 474 q 210 595 179 564 q 288 626 242 626 q 363 595 332 626 q 394 518 394 564 m 593 518 q 624 595 593 564 q 701 626 656 626 q 777 595 746 626 q 808 518 808 564 q 777 442 808 472 q 701 411 746 411 q 624 442 656 411 q 593 518 593 474 m 994 518 q 1026 594 994 561 q 1103 626 1057 626 q 1178 595 1147 626 q 1210 518 1210 564 q 1178 442 1210 472 q 1103 411 1147 411 q 1026 443 1057 411 q 994 518 994 475 z "},"一":{"ha":1389,"x_min":114,"x_max":1275,"o":"m 114 568 l 1275 568 l 1275 432 l 114 432 l 114 568 z "},"丁":{"ha":1389,"x_min":107,"x_max":1281,"o":"m 494 132 l 592 132 q 624 144 611 132 q 636 176 636 157 l 636 861 l 107 861 l 107 990 l 1281 990 l 1281 861 l 819 861 l 819 149 q 779 50 819 90 q 681 10 739 10 l 425 10 l 494 132 z "},"七":{"ha":1389,"x_min":106,"x_max":1283,"o":"m 592 7 q 499 45 536 7 q 461 139 461 83 l 461 601 l 106 601 l 106 744 l 461 744 l 461 993 l 660 993 l 660 744 l 1283 744 l 1283 601 l 660 601 l 660 194 q 672 163 660 176 q 703 150 685 150 l 1238 150 l 1186 7 l 592 7 z "},"万":{"ha":1389,"x_min":86,"x_max":1301,"o":"m 908 126 l 1057 126 q 1078 135 1069 126 q 1088 157 1088 144 l 1088 546 l 461 546 l 282 18 l 94 18 l 379 860 l 86 860 l 86 989 l 1301 989 l 1301 860 l 567 860 l 504 674 l 1256 674 l 1256 136 q 1220 49 1256 85 q 1132 13 1185 13 l 861 13 l 908 126 z "},"丈":{"ha":1389,"x_min":85,"x_max":1304,"o":"m 85 157 q 578 267 378 174 q 188 660 357 418 l 413 660 q 738 368 560 475 q 925 743 907 511 l 86 743 l 86 872 l 926 872 l 926 999 l 1113 999 l 1113 872 l 1301 872 l 1301 743 l 1110 743 q 915 281 1085 458 q 1304 178 1086 214 l 1304 1 q 763 160 1003 43 q 85 1 513 8 l 85 157 z "},"三":{"ha":1389,"x_min":92,"x_max":1297,"o":"m 92 163 l 1297 163 l 1297 19 l 92 19 l 92 163 m 163 982 l 1228 982 l 1228 839 l 163 839 l 163 982 m 219 590 l 1171 590 l 1171 447 l 219 447 l 219 590 z "},"上":{"ha":1389,"x_min":107,"x_max":1281,"o":"m 107 139 l 563 139 l 563 990 l 749 990 l 749 685 l 1190 685 l 1190 556 l 749 556 l 749 139 l 1281 139 l 1281 10 l 107 10 l 107 139 z "},"下":{"ha":1389,"x_min":107,"x_max":1281,"o":"m 485 863 l 107 863 l 107 990 l 1281 990 l 1281 863 l 671 863 l 671 11 l 485 11 l 485 863 m 976 669 l 1196 278 l 1001 278 l 782 669 l 976 669 z "},"不":{"ha":1389,"x_min":86,"x_max":1301,"o":"m 593 638 l 290 153 l 86 153 l 524 853 l 86 853 l 86 996 l 1301 996 l 1301 853 l 728 853 l 682 781 l 779 781 l 779 4 l 593 4 l 593 638 m 1008 696 l 1301 153 l 1103 153 l 810 696 l 1008 696 z "},"与":{"ha":1389,"x_min":85,"x_max":1304,"o":"m 950 115 l 1099 115 q 1122 124 1113 115 q 1131 146 1131 133 l 1129 483 l 85 483 l 140 1000 l 326 1000 l 313 871 l 1304 871 l 1304 742 l 299 742 l 285 611 l 1299 611 l 1299 483 l 1297 483 l 1299 125 q 1263 38 1299 74 q 1175 1 1226 1 l 903 1 l 950 115 m 89 371 l 1068 371 l 1068 242 l 89 242 l 89 371 z "},"丐":{"ha":1389,"x_min":89,"x_max":1300,"o":"m 799 135 l 1044 135 q 1075 147 1063 135 q 1088 178 1088 160 l 1088 318 l 160 318 l 218 740 l 411 740 l 372 456 l 596 456 l 596 864 l 89 864 l 89 1001 l 1300 1001 l 1300 864 l 789 864 l 789 722 l 1265 722 l 1265 585 l 789 585 l 789 456 l 1281 456 l 1281 150 q 1236 43 1281 88 q 1128 -1 1192 -1 l 738 -1 l 799 135 z "},"丑":{"ha":1389,"x_min":86,"x_max":1303,"o":"m 86 144 l 304 144 l 347 463 l 143 463 l 143 606 l 367 606 l 401 857 l 110 857 l 110 1000 l 1074 1000 q 1183 956 1139 1000 q 1226 847 1226 911 l 1226 144 l 1303 144 l 1303 1 l 86 1 l 86 144 m 1040 144 l 1040 463 l 533 463 l 490 144 l 1040 144 m 1040 606 l 1040 814 q 1028 844 1040 832 q 997 857 1015 857 l 588 857 l 554 606 l 1040 606 z "},"专":{"ha":1389,"x_min":86,"x_max":1303,"o":"m 193 238 l 397 238 l 424 178 l 908 178 l 981 342 l 203 342 l 310 582 l 86 582 l 86 710 l 367 710 l 414 815 l 138 815 l 138 943 l 469 943 l 497 1003 l 699 1003 l 674 943 l 1256 943 l 1256 815 l 617 815 l 569 710 l 1303 710 l 1303 582 l 513 582 l 463 469 l 1240 469 l 1226 438 l 1054 50 l 482 50 l 506 -3 l 303 -3 l 193 238 z "},"且":{"ha":1389,"x_min":100,"x_max":1289,"o":"m 197 0 l 100 0 l 100 135 l 197 135 l 197 1001 l 1063 1001 q 1154 963 1115 1001 q 1193 871 1193 925 l 1193 135 l 1289 135 l 1289 0 l 1193 0 l 1193 -1 l 197 -1 l 197 0 m 990 135 l 990 285 l 400 285 l 400 135 l 990 135 m 990 421 l 990 575 l 400 575 l 400 421 l 990 421 m 990 711 l 990 821 q 978 853 990 840 q 946 865 965 865 l 400 865 l 400 711 l 990 711 z "},"世":{"ha":1389,"x_min":86,"x_max":1303,"o":"m 322 1 q 228 40 267 1 q 189 135 189 79 l 189 681 l 86 681 l 86 824 l 189 824 l 189 999 l 379 999 l 379 824 l 550 824 l 550 999 l 740 999 l 742 824 l 1004 824 l 1004 999 l 1192 999 l 1192 824 l 1303 824 l 1303 681 l 1192 681 l 1192 344 q 1161 272 1192 301 q 1088 242 1131 242 l 550 242 l 550 681 l 379 681 l 379 175 q 389 153 379 163 q 411 144 399 144 l 1303 144 l 1250 1 l 322 1 m 743 415 l 743 385 l 975 385 q 996 393 988 385 q 1004 414 1004 401 l 1004 681 l 742 681 l 743 415 z "},"丘":{"ha":1389,"x_min":85,"x_max":1304,"o":"m 85 142 l 199 142 l 199 946 l 1272 994 l 1272 858 l 392 819 l 392 650 l 1247 650 l 1247 514 l 1146 514 l 1146 142 l 1304 142 l 1304 6 l 85 6 l 85 142 m 954 142 l 954 514 l 392 514 l 392 142 l 954 142 z "},"丙":{"ha":1389,"x_min":86,"x_max":1301,"o":"m 979 131 l 1054 131 q 1076 140 1067 131 q 1086 163 1086 149 l 1086 632 l 718 632 l 701 585 l 864 585 l 1039 222 l 847 222 l 690 547 l 582 222 l 390 222 l 526 632 l 303 632 l 303 4 l 117 4 l 117 775 l 574 775 l 601 857 l 86 857 l 86 1000 l 1301 1000 l 1301 857 l 793 857 l 765 775 l 1272 775 l 1272 125 q 1236 38 1272 74 q 1149 1 1200 1 l 936 1 l 979 131 z "},"业":{"ha":1389,"x_min":96,"x_max":1293,"o":"m 96 135 l 401 135 l 401 1001 l 594 1001 l 594 135 l 794 135 l 794 1001 l 988 1001 l 988 135 l 1293 135 l 1293 -1 l 96 -1 l 96 135 m 271 875 l 374 226 l 207 226 l 104 875 l 271 875 m 1113 857 l 1279 857 l 1185 226 l 1018 226 l 1113 857 z "},"丛":{"ha":1389,"x_min":85,"x_max":1303,"o":"m 338 1001 l 510 1001 l 435 778 l 531 778 l 686 251 l 514 251 l 394 656 l 257 251 l 85 251 l 338 1001 m 85 136 l 1303 136 l 1303 0 l 85 0 l 85 136 m 956 1001 l 1128 1001 l 1053 778 l 1147 778 l 1303 251 l 1131 251 l 1011 656 l 875 251 l 703 251 l 956 1001 z "},"东":{"ha":1389,"x_min":107,"x_max":1282,"o":"m 575 113 l 619 113 q 650 125 638 113 q 663 157 663 138 l 663 386 l 163 386 l 338 790 l 107 790 l 107 926 l 396 926 l 429 1003 l 617 1003 l 583 926 l 1282 926 l 1282 790 l 525 790 l 408 522 l 663 522 l 663 689 l 853 689 l 853 522 l 1213 522 l 1213 386 l 853 386 l 853 129 q 814 35 853 74 q 722 -3 775 -3 l 513 -3 l 575 113 m 275 335 l 447 335 l 299 -1 l 126 -1 l 275 335 m 1133 335 l 1282 -1 l 1110 -1 l 961 335 l 1133 335 z "},"丝":{"ha":1389,"x_min":89,"x_max":1299,"o":"m 371 611 l 97 611 l 403 1001 l 635 1001 l 428 736 l 676 736 l 401 360 l 681 360 l 681 236 l 97 236 l 371 611 m 89 136 l 1299 136 l 1299 0 l 89 0 l 89 136 m 981 611 l 707 611 l 1013 1001 l 1244 1001 l 1036 736 l 1285 736 l 1011 360 l 1289 360 l 1289 236 l 707 236 l 981 611 z "},"丢":{"ha":1389,"x_min":79,"x_max":1308,"o":"m 1081 29 l 94 29 l 479 346 l 79 346 l 79 483 l 597 483 l 597 589 l 113 589 l 113 726 l 597 726 l 597 821 l 153 790 l 153 928 l 1236 1003 l 1236 865 l 792 835 l 792 726 l 1275 726 l 1275 589 l 792 589 l 792 483 l 1308 483 l 1308 346 l 750 346 l 547 168 l 999 168 l 921 293 l 1128 293 l 1308 -1 l 1100 -1 l 1081 29 z "},"两":{"ha":1389,"x_min":69,"x_max":1318,"o":"m 69 789 l 422 789 l 422 865 l 69 865 l 69 1004 l 1318 1004 l 1318 865 l 1001 865 l 1001 789 l 1232 789 q 1292 763 1267 789 q 1318 703 1318 738 l 1318 151 q 1306 90 1318 122 q 1271 42 1288 57 q 1221 8 1253 21 q 1161 -4 1194 -4 l 974 -4 l 1021 136 l 1097 136 q 1128 150 1115 136 q 1140 181 1140 161 l 1140 185 l 1039 185 l 915 453 l 790 181 l 611 181 l 613 185 l 610 185 l 486 453 l 363 181 l 244 181 l 244 -4 l 69 -4 l 69 789 m 404 647 l 244 647 l 244 315 l 404 647 m 608 546 l 694 360 l 832 647 l 572 647 l 572 639 l 528 546 l 608 546 m 851 789 l 851 865 l 572 865 l 572 789 l 851 789 m 1038 546 l 1140 321 l 1140 606 q 1128 635 1140 622 q 1099 647 1117 647 l 1001 647 l 1001 639 l 957 546 l 1038 546 z "},"严":{"ha":1389,"x_min":85,"x_max":1304,"o":"m 150 144 l 150 578 l 490 578 l 490 871 l 150 871 l 150 1001 l 1304 1001 l 1304 871 l 988 871 l 988 578 l 1304 578 l 1304 447 l 336 447 l 336 144 l 271 0 l 85 0 l 150 144 m 382 831 l 444 622 l 258 622 l 194 831 l 382 831 m 803 578 l 803 871 l 676 871 l 676 578 l 803 578 m 1096 835 l 1289 835 l 1224 618 l 1029 618 l 1096 835 z "},"丧":{"ha":1389,"x_min":81,"x_max":1308,"o":"m 346 -1 q 238 42 282 -1 q 193 150 193 85 l 193 468 l 81 468 l 81 604 l 231 604 l 132 714 l 367 714 l 465 604 l 592 604 l 592 757 l 132 757 l 132 893 l 592 893 l 592 1001 l 793 1001 l 793 893 l 1254 893 l 1254 757 l 793 757 l 793 604 l 938 604 l 1018 714 l 1254 714 l 1172 604 l 1306 604 l 1306 468 l 386 468 l 386 179 q 399 147 386 160 q 429 135 411 135 l 643 135 l 613 -1 l 346 -1 m 864 404 l 978 300 l 1086 399 l 1300 399 l 1094 193 l 1308 -1 l 1036 -1 l 592 404 l 864 404 z "},"个":{"ha":1389,"x_min":89,"x_max":1299,"o":"m 292 1000 l 1108 1000 l 1299 432 l 1113 432 l 965 871 l 432 871 l 275 432 l 89 432 l 292 1000 m 588 747 l 790 747 l 790 1 l 588 1 l 588 747 z "},"丫":{"ha":1389,"x_min":118,"x_max":1271,"o":"m 600 553 l 1033 1000 l 1271 1000 l 792 506 l 792 0 l 600 0 l 600 553 m 354 1000 l 638 629 l 401 629 l 118 1000 l 354 1000 z "},"中":{"ha":1389,"x_min":86,"x_max":1301,"o":"m 601 168 l 86 168 l 86 915 l 601 915 l 601 999 l 788 999 l 788 915 l 1301 915 l 1301 301 q 1263 207 1301 246 q 1168 168 1224 168 l 788 168 l 788 3 l 601 3 l 601 168 m 601 297 l 601 786 l 272 786 l 272 297 l 601 297 m 1085 297 q 1106 306 1097 297 q 1115 328 1115 315 l 1115 786 l 788 786 l 788 297 l 1085 297 z "},"丰":{"ha":1389,"x_min":86,"x_max":1301,"o":"m 599 118 l 86 118 l 86 261 l 599 261 l 599 453 l 117 453 l 117 596 l 599 596 l 599 767 l 86 767 l 86 910 l 599 910 l 599 1003 l 790 1003 l 790 910 l 1301 910 l 1301 767 l 790 767 l 790 596 l 1271 596 l 1271 453 l 790 453 l 790 261 l 1301 261 l 1301 118 l 790 118 l 790 -3 l 599 -3 l 599 118 z "},"串":{"ha":1389,"x_min":85,"x_max":1304,"o":"m 599 104 l 85 104 l 85 492 l 599 492 l 599 546 l 85 546 l 85 933 l 599 933 l 599 999 l 792 999 l 792 933 l 1304 933 l 1304 699 q 1259 590 1304 635 q 1153 546 1214 546 l 792 546 l 792 492 l 1304 492 l 1304 257 q 1259 149 1304 193 q 1153 104 1214 104 l 792 104 l 792 1 l 599 1 l 599 104 m 599 222 l 599 374 l 260 374 l 260 222 l 599 222 m 599 664 l 599 815 l 260 815 l 260 664 l 599 664 m 1086 222 q 1117 235 1104 222 q 1129 267 1129 247 l 1129 374 l 792 374 l 792 222 l 1086 222 m 1086 664 q 1117 676 1104 664 q 1129 708 1129 689 l 1129 815 l 792 815 l 792 664 l 1086 664 z "},"临":{"ha":1389,"x_min":82,"x_max":1306,"o":"m 596 494 l 1306 494 l 1306 132 q 1267 39 1306 76 q 1174 1 1229 1 l 596 1 l 596 494 m 82 943 l 282 943 l 282 22 l 82 22 l 82 943 m 343 1000 l 543 1000 l 543 0 l 343 0 l 343 1000 m 711 990 l 925 990 l 918 961 l 1300 961 l 1300 835 l 1178 835 l 1306 546 l 1107 546 l 979 835 l 886 835 l 817 560 l 603 560 l 711 990 m 858 138 l 858 358 l 772 358 l 772 138 l 858 138 m 1138 138 q 1146 143 1146 138 l 1144 160 l 1144 358 l 1043 358 l 1043 138 l 1138 138 z "},"丸":{"ha":1389,"x_min":64,"x_max":1325,"o":"m 253 453 l 106 646 l 301 646 l 321 622 l 369 744 l 106 744 l 106 886 l 426 886 l 479 1017 l 678 1017 l 625 886 l 1113 886 l 1113 142 q 1121 119 1113 131 q 1143 110 1132 110 l 1325 110 l 1272 -17 l 1050 -17 q 960 21 997 -17 q 922 111 922 58 l 922 744 l 569 744 l 450 450 l 661 174 l 465 174 l 383 282 l 263 -17 l 64 -17 l 253 453 z "},"丹":{"ha":1389,"x_min":85,"x_max":1304,"o":"m 978 121 l 1025 121 q 1049 131 1039 121 q 1058 154 1058 139 l 1058 356 l 343 356 l 343 157 l 275 4 l 85 4 l 151 157 l 151 356 l 85 356 l 85 497 l 151 497 l 151 1007 l 1113 1007 q 1206 968 1167 1007 q 1244 875 1244 929 l 1244 497 l 1304 497 l 1304 356 l 1244 356 l 1244 117 q 1208 28 1244 64 q 1119 -7 1174 -7 l 933 -7 l 978 121 m 1058 497 l 1058 835 q 1049 858 1058 849 q 1025 868 1039 868 l 343 868 l 343 497 l 1058 497 m 736 804 l 828 558 l 636 558 l 546 804 l 736 804 z "},"为":{"ha":1389,"x_min":93,"x_max":1296,"o":"m 450 671 l 93 671 l 93 814 l 217 814 l 147 967 l 372 967 l 443 814 l 526 814 l 625 1000 l 832 1000 l 733 814 l 1296 814 l 1296 671 l 1294 671 l 1294 125 q 1259 38 1294 74 q 1172 1 1224 1 l 832 1 l 874 131 l 1076 131 q 1099 140 1090 131 q 1108 163 1108 149 l 1108 671 l 657 671 l 300 1 l 93 1 l 450 671 m 882 542 l 1006 228 l 781 228 l 657 542 l 882 542 z "},"主":{"ha":1389,"x_min":100,"x_max":1289,"o":"m 100 136 l 608 136 l 608 411 l 131 411 l 131 547 l 608 547 l 608 763 l 100 763 l 100 899 l 592 899 l 560 1001 l 732 1001 l 764 899 l 1289 899 l 1289 763 l 781 763 l 781 547 l 1258 547 l 1258 411 l 781 411 l 781 136 l 1289 136 l 1289 0 l 100 0 l 100 136 z "},"丽":{"ha":1389,"x_min":79,"x_max":1310,"o":"m 760 135 l 760 796 l 1225 796 q 1285 772 1260 796 q 1310 713 1310 747 l 1310 83 q 1285 24 1310 51 q 1221 -3 1258 -3 l 1050 -3 l 1106 135 l 1140 135 q 1154 140 1147 135 q 1161 157 1161 151 l 1161 224 l 1035 224 l 900 569 l 1065 569 l 1161 324 l 1161 617 q 1148 645 1161 632 q 1118 658 1135 658 l 900 658 l 900 135 l 864 -3 l 725 -3 l 760 135 m 115 135 l 115 796 l 579 796 q 638 772 613 796 q 663 713 663 747 l 663 83 q 639 24 663 47 q 574 -3 613 -3 l 403 -3 l 460 135 l 493 135 q 508 140 499 135 q 514 157 514 146 l 514 224 l 388 224 l 256 569 l 421 569 l 514 324 l 514 617 q 501 646 514 633 q 472 658 489 658 l 254 658 l 254 135 l 218 -3 l 79 -3 l 115 135 m 79 1004 l 1310 1004 l 1310 867 l 79 867 l 79 1004 z "},"举":{"ha":1389,"x_min":83,"x_max":1304,"o":"m 589 101 l 83 101 l 83 250 l 589 250 l 589 343 l 171 343 l 171 490 l 589 490 l 589 543 l 797 543 l 797 490 l 1215 490 l 1215 343 l 797 343 l 797 250 l 1303 250 l 1303 101 l 797 101 l 797 1 l 589 1 l 589 101 m 83 844 l 246 844 l 176 1000 l 394 1000 l 464 844 l 601 844 l 532 1000 l 750 1000 l 819 844 l 919 844 l 989 1000 l 1206 1000 l 1138 844 l 1304 844 l 1304 696 l 1210 696 l 1301 543 l 1078 543 l 988 696 l 407 696 l 315 543 l 92 543 l 183 696 l 83 696 l 83 844 z "},"乃":{"ha":1389,"x_min":100,"x_max":1288,"o":"m 408 885 l 100 885 l 100 997 l 1200 997 l 1064 639 l 1288 639 l 1286 133 q 1250 44 1286 81 q 1161 8 1214 8 l 858 8 l 900 122 l 1068 122 q 1090 132 1081 122 q 1100 154 1100 142 l 1101 525 l 828 525 l 964 885 l 597 885 l 297 4 l 108 4 l 408 885 z "},"久":{"ha":1389,"x_min":82,"x_max":1307,"o":"m 956 743 l 100 743 l 219 999 l 418 999 l 368 890 l 1282 890 l 1282 743 l 813 350 l 896 350 l 1307 1 l 993 1 l 694 251 l 396 1 l 82 1 l 956 743 z "},"么":{"ha":1389,"x_min":88,"x_max":1301,"o":"m 1097 49 l 124 49 l 819 847 l 1071 847 l 493 178 l 1042 178 l 974 336 l 1156 336 l 1301 3 l 1117 3 l 1097 49 m 483 999 l 735 999 l 339 536 l 88 536 l 483 999 z "},"义":{"ha":1389,"x_min":86,"x_max":1301,"o":"m 86 201 q 515 365 315 253 q 342 546 418 453 q 194 747 264 635 q 86 972 125 860 l 325 972 q 415 796 356 883 q 543 633 474 708 q 693 488 614 557 q 843 633 772 557 q 1061 972 1001 806 l 1301 972 q 1197 753 1263 857 q 1046 546 1132 649 q 872 365 969 453 q 1301 201 1068 253 l 1301 -3 q 693 231 965 56 q 86 -3 424 56 l 86 201 m 763 1003 l 851 804 l 624 804 l 536 1003 l 763 1003 z "},"之":{"ha":1389,"x_min":85,"x_max":1303,"o":"m 85 90 l 906 729 l 140 729 l 140 872 l 592 872 l 535 1001 l 763 1001 l 819 872 l 1303 872 l 1303 769 l 458 143 l 1300 143 l 1243 0 l 85 0 l 85 90 z "},"乌":{"ha":1389,"x_min":86,"x_max":1301,"o":"m 932 115 l 1071 115 q 1103 128 1090 115 q 1115 158 1115 140 l 1115 392 l 161 392 l 161 950 l 450 950 l 472 999 l 675 999 l 654 950 l 1250 950 l 1250 717 q 1212 624 1250 663 q 1119 586 1174 586 l 890 586 l 938 700 l 1019 700 q 1051 713 1039 700 q 1064 743 1064 725 l 1064 814 l 351 814 l 351 528 l 1301 528 l 1301 132 q 1263 40 1301 78 q 1171 1 1225 1 l 885 1 l 932 115 m 86 285 l 890 285 l 890 147 l 86 147 l 86 285 z "},"乍":{"ha":1389,"x_min":89,"x_max":1299,"o":"m 468 756 l 89 756 l 161 999 l 357 999 l 325 892 l 1299 892 l 1299 756 l 661 756 l 661 603 l 1268 603 l 1268 465 l 661 465 l 661 314 l 1268 314 l 1268 176 l 661 176 l 661 3 l 468 3 l 468 756 z "},"乎":{"ha":1389,"x_min":85,"x_max":1304,"o":"m 499 124 l 596 124 q 626 136 614 124 q 639 167 639 149 l 639 333 l 85 333 l 85 469 l 639 469 l 639 826 l 139 797 l 139 933 l 1267 999 l 1267 863 l 826 838 l 826 469 l 1304 469 l 1304 333 l 826 333 l 826 135 q 788 41 826 79 q 696 3 749 3 l 442 3 l 499 124 m 386 781 l 471 514 l 304 514 l 219 781 l 386 781 m 1021 781 l 1188 781 l 1096 514 l 929 514 l 1021 781 z "},"乏":{"ha":1389,"x_min":86,"x_max":1301,"o":"m 100 140 l 101 140 l 914 526 l 110 526 l 110 665 l 594 665 l 543 775 l 771 775 l 821 665 l 1257 665 l 1257 526 l 468 140 l 1301 140 l 1249 3 l 100 3 l 100 140 m 86 940 l 1301 997 l 1301 857 l 86 797 l 86 940 z "},"乐":{"ha":1389,"x_min":101,"x_max":1286,"o":"m 532 124 l 622 124 q 653 136 640 124 q 665 167 665 149 l 665 442 l 124 442 l 124 965 l 146 965 l 1221 994 l 1221 858 l 296 833 l 296 576 l 665 576 l 665 785 l 856 785 l 856 576 l 1256 576 l 1256 442 l 856 442 l 856 139 q 817 47 856 85 q 725 8 779 8 l 469 8 l 532 124 m 233 365 l 411 365 l 279 7 l 101 7 l 233 365 m 1161 365 l 1286 7 l 1108 7 l 982 365 l 1161 365 z "},"乒":{"ha":1389,"x_min":85,"x_max":1304,"o":"m 85 388 l 189 388 l 189 926 l 1249 1001 l 1249 864 l 382 803 l 382 697 l 1304 697 l 1304 560 l 1103 560 l 1103 388 l 1304 388 l 1304 250 l 85 250 l 85 388 m 326 210 l 581 210 l 339 0 l 85 0 l 326 210 m 911 388 l 911 560 l 382 560 l 382 388 l 911 388 z "},"乓":{"ha":1389,"x_min":81,"x_max":1307,"o":"m 81 388 l 185 388 l 185 926 l 1246 1001 l 1246 864 l 378 803 l 378 697 l 1300 697 l 1300 560 l 1099 560 l 1099 388 l 1300 388 l 1300 250 l 81 250 l 81 388 m 907 388 l 907 560 l 378 560 l 378 388 l 907 388 m 1065 210 l 1307 0 l 1053 0 l 811 210 l 1065 210 z "},"乔":{"ha":1389,"x_min":85,"x_max":1304,"o":"m 322 226 l 322 342 l 301 317 l 85 317 l 322 606 l 101 606 l 101 736 l 582 736 l 582 824 l 174 792 l 174 924 l 1193 1000 l 1193 869 l 761 836 l 761 736 l 1289 736 l 1289 606 l 1068 606 l 1304 317 l 1089 317 l 1035 382 l 1035 3 l 863 3 l 863 474 l 960 474 l 853 606 l 538 606 l 431 474 l 494 474 l 494 226 l 438 0 l 265 0 l 322 226 z "},"乖":{"ha":1389,"x_min":83,"x_max":1304,"o":"m 597 656 l 83 656 l 83 793 l 597 793 l 597 868 l 129 868 l 129 1006 l 1257 1006 l 1257 868 l 790 868 l 790 793 l 1304 793 l 1304 656 l 790 656 l 790 -6 l 597 -6 l 597 656 m 83 260 l 318 308 l 318 433 l 83 433 l 83 571 l 318 571 l 318 614 l 511 614 l 511 60 l 318 60 l 318 171 l 83 122 l 83 260 m 876 614 l 1068 614 l 1068 471 l 1304 511 l 1304 375 l 1068 333 l 1068 240 q 1081 210 1068 222 q 1113 197 1093 197 l 1304 197 l 1304 60 l 1007 60 q 915 98 953 60 q 876 190 876 136 l 876 614 z "},"乘":{"ha":1389,"x_min":82,"x_max":1307,"o":"m 597 657 l 82 657 l 82 774 l 597 774 l 597 842 l 146 828 l 146 964 l 1269 1000 l 1269 864 l 792 849 l 792 774 l 1307 774 l 1307 657 l 792 657 l 792 0 l 597 0 l 597 657 m 324 247 l 549 247 l 321 4 l 96 4 l 324 247 m 115 410 l 338 410 l 338 489 l 115 489 l 115 592 l 338 592 l 338 621 l 506 621 l 506 282 l 338 282 l 338 307 l 115 307 l 115 410 m 1057 247 l 1285 4 l 1060 4 l 832 247 l 1057 247 m 872 621 l 1053 621 l 1053 539 l 1119 613 l 1301 613 l 1150 449 l 1053 449 l 1053 444 q 1065 413 1053 425 q 1096 400 1078 400 l 1297 400 l 1238 279 l 1025 279 q 917 322 961 279 q 872 431 872 365 l 872 621 z "},"乙":{"ha":1389,"x_min":94,"x_max":1294,"o":"m 94 171 l 881 836 l 94 836 l 94 981 l 1206 981 l 1206 836 l 417 171 l 1294 171 l 1239 19 l 94 19 l 94 171 z "},"九":{"ha":1389,"x_min":93,"x_max":1296,"o":"m 356 739 l 118 739 l 118 875 l 404 875 l 449 999 l 639 999 l 594 875 l 1075 875 l 1075 172 q 1084 151 1075 160 q 1106 142 1093 142 l 1296 142 l 1246 6 l 1008 6 q 921 42 957 6 q 885 129 885 78 l 885 739 l 546 739 l 282 1 l 93 1 l 356 739 z "},"乞":{"ha":1389,"x_min":90,"x_max":1299,"o":"m 128 88 l 854 499 l 156 499 l 156 628 l 1243 628 l 1243 538 l 514 115 l 1299 115 l 1256 0 l 128 0 l 128 88 m 181 1001 l 367 1001 l 325 890 l 1299 890 l 1299 763 l 90 763 l 181 1001 z "},"也":{"ha":1389,"x_min":86,"x_max":1303,"o":"m 296 0 q 201 39 240 0 q 163 133 163 78 l 163 632 l 86 624 l 86 767 l 163 775 l 163 951 l 356 951 l 356 797 l 622 829 l 622 1000 l 815 1000 l 815 851 l 1303 910 l 1303 410 q 1267 322 1303 358 q 1179 286 1231 286 l 989 286 l 940 415 l 1083 415 q 1106 424 1097 415 q 1115 446 1115 433 l 1115 744 l 815 708 l 815 267 l 622 267 l 622 686 l 356 654 l 356 175 q 365 152 356 161 q 386 143 374 143 l 1303 143 l 1250 0 l 296 0 z "},"习":{"ha":1389,"x_min":85,"x_max":1304,"o":"m 851 129 l 1076 129 q 1099 139 1090 129 q 1108 161 1108 147 l 1108 856 l 85 856 l 85 1000 l 1304 1000 l 1304 124 q 1268 35 1304 71 q 1179 0 1233 0 l 803 0 l 851 129 m 519 471 l 768 471 l 332 0 l 85 0 l 519 471 m 429 788 l 715 549 l 461 549 l 176 788 l 429 788 z "},"乡":{"ha":1389,"x_min":89,"x_max":1299,"o":"m 625 1 l 89 1 l 167 144 l 733 144 l 883 343 l 276 343 l 582 622 l 89 622 l 483 1000 l 749 1000 l 503 765 l 739 765 l 918 928 l 1168 928 l 694 486 l 992 486 l 1064 583 l 1299 583 l 872 0 l 624 0 l 625 1 z "},"书":{"ha":1389,"x_min":83,"x_max":1304,"o":"m 478 404 l 83 404 l 83 549 l 478 549 l 478 760 l 125 760 l 125 904 l 478 904 l 478 1003 l 665 1003 l 665 904 l 1019 904 l 978 1003 l 1172 1003 l 1257 807 l 1169 807 l 1169 549 l 1304 549 l 1304 140 q 1265 46 1304 85 q 1169 7 1225 7 l 968 7 l 1032 151 l 1088 151 q 1108 160 1099 151 q 1117 181 1117 171 l 1117 404 l 665 404 l 665 -3 l 478 -3 l 478 404 m 982 549 l 982 760 l 665 760 l 665 549 l 982 549 z "},"买":{"ha":1389,"x_min":85,"x_max":1304,"o":"m 497 299 l 122 299 l 122 428 l 619 428 l 619 801 l 818 801 l 818 428 l 1261 428 l 1261 299 l 779 299 l 719 254 l 900 254 l 1304 -1 l 992 -1 l 667 217 l 365 -1 l 85 -1 l 497 299 m 85 1001 l 1304 1001 l 1210 647 l 1036 647 l 1096 872 l 85 872 l 85 1001 m 256 663 l 156 801 l 386 801 l 514 624 l 415 624 l 514 485 l 283 485 l 156 663 l 256 663 z "},"乱":{"ha":1389,"x_min":83,"x_max":1304,"o":"m 83 493 l 332 493 l 332 593 l 83 593 l 83 724 l 332 724 l 332 824 l 83 797 l 83 928 l 774 1001 l 774 871 l 525 844 l 525 724 l 774 724 l 774 593 l 525 593 l 525 493 l 768 493 l 768 151 q 724 42 768 86 q 615 -1 679 -1 l 83 -1 l 83 493 m 542 131 q 572 143 560 131 q 585 174 585 156 l 585 361 l 267 361 l 267 131 l 542 131 m 847 999 l 1040 999 l 1040 174 q 1053 143 1040 156 q 1083 131 1065 131 l 1243 131 l 1304 -1 l 1000 -1 q 891 43 935 -1 q 847 151 847 88 l 847 999 z "},"乳":{"ha":1389,"x_min":85,"x_max":1304,"o":"m 993 0 q 884 44 928 0 q 840 153 840 89 l 840 1003 l 1033 1003 l 1033 182 q 1046 150 1033 163 q 1076 138 1058 138 l 1304 138 l 1243 0 l 993 0 m 85 975 l 789 1003 l 789 881 l 85 853 l 85 975 m 90 375 l 392 375 l 522 500 l 129 500 l 129 638 l 760 638 l 760 501 l 628 375 l 760 375 l 760 238 l 529 238 l 529 151 q 485 42 529 86 q 376 -1 440 -1 l 211 -1 l 264 118 l 293 118 q 324 131 311 118 q 336 163 336 143 l 336 238 l 90 238 l 90 375 m 261 811 l 289 672 l 122 672 l 94 811 l 261 811 m 490 811 l 526 672 l 360 672 l 324 811 l 490 811 m 622 811 l 789 811 l 747 672 l 581 672 l 622 811 z "},"乾":{"ha":1389,"x_min":83,"x_max":1304,"o":"m 285 83 l 83 83 l 83 221 l 285 221 l 285 283 l 96 283 l 96 757 l 285 757 l 285 811 l 83 811 l 83 949 l 285 949 l 285 1001 l 478 1001 l 478 949 l 678 949 l 678 811 l 478 811 l 478 757 l 665 757 l 665 436 q 620 328 665 372 q 514 283 575 283 l 478 283 l 478 221 l 678 221 l 678 83 l 478 83 l 478 0 l 285 0 l 285 83 m 429 421 q 458 432 446 421 q 472 460 471 443 l 289 460 l 289 421 l 429 421 m 474 582 l 474 621 l 289 621 l 289 582 l 474 582 m 788 1001 l 993 1001 l 957 889 l 1304 889 l 1304 751 l 690 751 l 788 1001 m 708 101 l 1050 542 l 708 542 l 708 679 l 1304 679 l 1304 589 l 954 138 l 1304 138 l 1243 0 l 708 0 l 708 101 z "},"了":{"ha":1389,"x_min":161,"x_max":1226,"o":"m 515 129 l 646 129 q 669 138 660 129 q 678 160 678 147 l 678 650 l 929 872 l 161 872 l 161 986 l 1226 986 l 1226 892 l 864 574 l 864 139 q 828 51 864 88 q 740 15 792 15 l 474 15 l 515 129 z "},"予":{"ha":1389,"x_min":86,"x_max":1303,"o":"m 525 132 l 676 132 q 708 144 696 132 q 721 176 721 157 l 721 458 l 101 458 l 86 601 l 485 601 l 369 733 l 576 733 l 692 601 l 708 601 l 990 856 l 122 856 l 122 999 l 1264 999 l 1264 856 l 969 601 l 1303 601 l 1182 300 l 1006 300 l 1069 458 l 910 458 l 910 133 q 872 41 910 79 q 779 3 833 3 l 463 3 l 525 132 z "},"争":{"ha":1389,"x_min":85,"x_max":1303,"o":"m 404 115 l 557 115 q 588 128 575 115 q 600 158 600 140 l 600 193 l 149 193 l 149 325 l 600 325 l 600 393 l 85 393 l 85 525 l 600 525 l 600 593 l 150 593 l 150 725 l 981 725 l 1010 815 l 157 815 l 239 1001 l 444 1001 l 422 953 l 1235 953 l 1174 725 l 1232 725 l 1232 525 l 1303 525 l 1303 393 l 1232 393 l 1232 346 q 1188 237 1232 281 q 1079 193 1143 193 l 788 193 l 788 153 q 743 44 788 88 q 635 0 699 0 l 353 0 l 404 115 m 1001 325 q 1032 338 1019 325 q 1044 369 1044 350 l 1044 393 l 788 393 l 788 325 l 1001 325 m 1044 525 l 1044 593 l 788 593 l 788 525 l 1044 525 z "},"事":{"ha":1389,"x_min":83,"x_max":1304,"o":"m 513 119 l 571 119 q 597 127 586 119 q 613 149 608 135 l 179 149 l 179 254 l 615 254 l 615 286 l 83 286 l 83 393 l 615 393 l 615 425 l 179 425 l 179 531 l 615 531 l 615 558 l 179 558 l 179 824 l 615 824 l 615 856 l 83 856 l 83 963 l 615 963 l 615 1001 l 807 1001 l 807 963 l 1304 963 l 1304 856 l 807 856 l 807 824 l 1226 824 l 1226 711 q 1182 602 1226 646 q 1074 558 1138 558 l 807 558 l 807 531 l 1226 531 l 1226 393 l 1304 393 l 1304 286 l 1226 286 q 1177 188 1219 226 q 1074 149 1135 149 l 807 149 q 762 42 807 85 q 656 -1 717 -1 l 460 -1 l 513 119 m 615 665 l 615 717 l 372 717 l 372 665 l 615 665 m 1006 254 q 1032 263 1021 254 q 1047 286 1043 272 l 807 286 l 807 254 l 1006 254 m 1050 393 l 1050 425 l 807 425 l 807 393 l 1050 393 m 990 665 q 1021 678 1008 665 q 1033 708 1033 690 l 1033 717 l 807 717 l 807 665 l 990 665 z "},"二":{"ha":1389,"x_min":117,"x_max":1272,"o":"m 117 208 l 1272 208 l 1272 65 l 117 65 l 117 208 m 161 936 l 1226 936 l 1226 793 l 161 793 l 161 936 z "},"于":{"ha":1389,"x_min":107,"x_max":1281,"o":"m 538 133 l 613 133 q 634 142 625 133 q 643 164 643 151 l 643 474 l 107 474 l 107 601 l 643 601 l 643 863 l 135 863 l 135 990 l 1254 990 l 1254 863 l 836 863 l 836 601 l 1281 601 l 1281 474 l 836 474 l 836 149 q 797 51 836 90 q 699 11 757 11 l 475 11 l 538 133 z "},"亏":{"ha":1389,"x_min":94,"x_max":1293,"o":"m 376 136 l 1006 136 q 1036 149 1024 136 q 1049 179 1049 161 l 1049 325 l 182 325 l 281 606 l 94 606 l 94 735 l 1293 735 l 1293 606 l 465 606 l 414 454 l 1242 454 l 1242 138 q 1203 45 1242 83 q 1111 7 1165 7 l 331 7 l 376 136 m 147 993 l 1217 993 l 1217 865 l 147 865 l 147 993 z "},"云":{"ha":1389,"x_min":86,"x_max":1301,"o":"m 1086 28 l 138 28 l 371 521 l 86 521 l 86 664 l 1301 664 l 1301 521 l 576 521 l 411 171 l 1017 171 l 925 357 l 1128 357 l 1301 1 l 1100 1 l 1086 28 m 168 999 l 1219 999 l 1219 856 l 168 856 l 168 999 z "},"互":{"ha":1389,"x_min":89,"x_max":1300,"o":"m 89 135 l 893 135 l 939 300 l 135 300 l 297 867 l 113 867 l 113 1001 l 1281 1001 l 1281 867 l 500 867 l 461 731 l 1269 731 l 1097 135 l 1300 135 l 1300 0 l 89 0 l 89 135 m 976 436 l 1021 596 l 424 596 l 379 436 l 976 436 z "},"五":{"ha":1389,"x_min":86,"x_max":1301,"o":"m 86 144 l 285 144 l 360 503 l 142 503 l 142 646 l 389 646 l 433 857 l 110 857 l 110 1000 l 1278 1000 l 1278 857 l 619 857 l 576 646 l 1088 646 q 1161 615 1131 646 q 1192 542 1192 585 l 1192 144 l 1301 144 l 1301 1 l 86 1 l 86 144 m 1004 144 l 1004 474 q 996 494 1004 485 q 975 503 988 503 l 546 503 l 472 144 l 1004 144 z "},"井":{"ha":1389,"x_min":86,"x_max":1301,"o":"m 247 201 l 86 201 l 86 344 l 268 344 l 326 729 l 107 729 l 107 872 l 349 872 l 368 1003 l 560 1003 l 540 872 l 908 872 l 908 996 l 1096 996 l 1096 872 l 1282 872 l 1282 729 l 1096 729 l 1096 344 l 1301 344 l 1301 201 l 1096 201 l 1096 -3 l 908 -3 l 908 201 l 438 201 l 407 -3 l 215 -3 l 247 201 m 908 344 l 908 729 l 518 729 l 460 344 l 908 344 z "},"亚":{"ha":1389,"x_min":85,"x_max":1304,"o":"m 85 135 l 408 135 l 408 865 l 104 865 l 104 1001 l 1283 1001 l 1283 865 l 979 865 l 979 135 l 1304 135 l 1304 -1 l 85 -1 l 85 135 m 269 732 l 388 215 l 224 215 l 104 732 l 269 732 m 786 135 l 786 865 l 601 865 l 601 135 l 786 135 m 1119 732 l 1283 732 l 1165 215 l 1000 215 l 1119 732 z "},"些":{"ha":1389,"x_min":85,"x_max":1304,"o":"m 85 490 l 117 493 l 117 910 l 285 910 l 285 507 l 318 511 l 318 1001 l 511 1001 l 511 881 l 654 917 l 654 779 l 511 743 l 511 528 l 682 543 l 682 406 l 85 353 l 85 490 m 85 138 l 1304 138 l 1304 0 l 85 0 l 85 138 m 115 324 l 1274 324 l 1274 186 l 115 186 l 115 324 m 729 1001 l 922 1001 l 922 842 l 1279 921 l 1279 785 l 922 704 l 922 556 q 935 524 922 536 q 965 511 947 511 l 1254 511 l 1304 375 l 860 375 q 767 413 806 375 q 729 506 729 451 l 729 1001 z "},"亡":{"ha":1389,"x_min":86,"x_max":1301,"o":"m 353 14 q 238 60 286 14 q 190 175 190 107 l 190 749 l 86 749 l 86 894 l 592 894 l 550 988 l 774 988 l 814 894 l 1301 894 l 1301 749 l 394 749 l 394 206 q 408 173 394 186 q 440 160 421 160 l 1274 160 l 1208 14 l 353 14 z "},"亢":{"ha":1389,"x_min":85,"x_max":1304,"o":"m 283 668 l 1131 668 l 1131 179 q 1143 149 1131 161 q 1174 136 1156 136 l 1293 136 l 1233 0 l 1088 0 q 980 44 1024 0 q 936 151 936 88 l 936 526 l 471 526 l 371 0 l 156 0 l 283 668 m 85 911 l 565 911 l 542 1001 l 771 1001 l 794 911 l 1304 911 l 1304 769 l 85 769 l 85 911 z "},"交":{"ha":1389,"x_min":83,"x_max":1304,"o":"m 83 146 q 526 275 314 185 q 297 439 392 357 l 290 425 l 89 425 l 225 721 l 429 721 l 340 531 l 440 531 q 693 357 553 438 q 947 531 835 438 l 1047 531 l 958 721 l 1163 721 l 1299 425 l 1097 425 l 1090 439 q 861 275 996 357 q 1304 146 1074 185 l 1304 0 q 693 183 989 38 q 83 0 400 38 l 83 146 m 118 911 l 600 911 l 560 1001 l 753 1001 l 793 911 l 1269 911 l 1269 774 l 118 774 l 118 911 z "},"亥":{"ha":1389,"x_min":85,"x_max":1304,"o":"m 464 422 l 113 422 l 431 765 l 85 765 l 85 903 l 597 903 l 597 1000 l 790 1000 l 790 903 l 1304 903 l 1304 765 l 699 765 l 507 560 l 607 560 l 726 675 l 999 675 l 408 106 l 132 106 l 464 422 m 943 497 l 1214 497 l 969 260 l 1083 260 l 1289 0 l 1046 0 l 896 190 l 700 1 l 429 1 l 943 497 z "},"亦":{"ha":1389,"x_min":86,"x_max":1303,"o":"m 415 775 l 117 775 l 117 913 l 600 913 l 558 1003 l 751 1003 l 792 913 l 1268 913 l 1268 775 l 986 775 l 986 151 q 942 42 986 86 q 833 -1 897 -1 l 638 -1 l 690 118 l 758 118 q 790 131 778 118 q 803 163 803 143 l 803 775 l 599 775 l 521 -1 l 336 -1 l 415 775 m 168 697 l 335 697 l 251 163 l 86 163 l 168 697 m 1221 697 l 1303 163 l 1136 163 l 1054 697 l 1221 697 z "},"产":{"ha":1389,"x_min":85,"x_max":1304,"o":"m 151 151 l 151 604 l 354 604 l 229 739 l 483 739 l 608 604 l 847 604 l 972 739 l 1226 739 l 1101 604 l 1304 604 l 1304 467 l 344 467 l 344 151 l 276 -1 l 85 -1 l 151 151 m 151 910 l 636 910 l 596 1001 l 788 1001 l 829 910 l 1304 910 l 1304 772 l 151 772 l 151 910 z "},"亩":{"ha":1389,"x_min":85,"x_max":1304,"o":"m 149 735 l 1251 735 l 1251 153 q 1207 44 1251 88 q 1099 0 1163 0 l 149 0 l 149 735 m 85 947 l 593 947 l 569 1001 l 749 1001 l 772 947 l 1304 947 l 1304 810 l 85 810 l 85 947 m 594 138 l 594 299 l 340 299 l 340 138 l 594 138 m 594 436 l 594 597 l 340 597 l 340 436 l 594 436 m 1015 138 q 1046 150 1033 138 q 1058 181 1058 163 l 1058 299 l 796 299 l 796 138 l 1015 138 m 1058 436 l 1058 597 l 796 597 l 796 436 l 1058 436 z "},"享":{"ha":1389,"x_min":83,"x_max":1304,"o":"m 482 118 l 633 118 q 664 131 651 118 q 676 161 676 143 l 676 176 l 86 176 l 86 282 l 724 282 l 846 340 l 193 340 l 193 453 l 1172 453 l 1172 340 l 1054 282 l 1304 282 l 1304 176 l 869 176 l 869 150 q 825 42 869 85 q 717 -1 781 -1 l 429 -1 l 482 118 m 83 958 l 572 958 l 556 1001 l 764 1001 l 781 958 l 1304 958 l 1304 836 l 83 836 l 83 958 m 193 801 l 1243 801 l 1243 650 q 1199 541 1243 585 q 1090 497 1154 497 l 193 497 l 193 801 m 1007 619 q 1038 632 1025 619 q 1050 663 1050 644 l 1050 679 l 371 679 l 371 619 l 1007 619 z "},"京":{"ha":1389,"x_min":82,"x_max":1307,"o":"m 528 118 l 571 118 q 601 131 589 118 q 614 161 614 143 l 614 304 l 149 304 l 149 724 l 1236 724 l 1236 457 q 1192 348 1236 392 q 1083 304 1147 304 l 807 304 l 807 150 q 763 42 807 85 q 654 -1 718 -1 l 474 -1 l 528 118 m 186 247 l 365 247 l 263 -1 l 82 -1 l 186 247 m 82 928 l 617 928 l 589 1001 l 797 1001 l 824 928 l 1303 928 l 1303 790 l 82 790 l 82 928 m 1000 426 q 1031 439 1018 426 q 1043 469 1043 451 l 1043 603 l 326 603 l 326 426 l 1000 426 m 1203 247 l 1307 -1 l 1128 -1 l 1024 247 l 1203 247 z "},"亭":{"ha":1389,"x_min":83,"x_max":1304,"o":"m 394 104 l 594 104 q 626 117 614 104 q 639 147 639 129 l 639 211 l 181 211 l 181 247 l 85 247 l 85 482 l 1193 482 q 1266 451 1236 482 q 1296 378 1296 421 l 1296 247 l 1160 247 l 1160 211 l 821 211 l 821 156 q 774 47 821 93 q 664 0 728 0 l 349 0 l 394 104 m 83 958 l 597 958 l 585 1001 l 799 1001 l 811 958 l 1304 958 l 1304 851 l 83 851 l 83 958 m 107 804 l 1281 804 l 1281 688 q 1236 579 1281 622 q 1128 536 1192 536 l 107 536 l 107 804 m 1121 319 l 1121 343 q 1112 365 1121 356 q 1090 374 1103 374 l 244 374 l 244 319 l 1121 319 m 1050 629 q 1082 642 1069 629 q 1094 672 1094 654 l 1094 713 l 294 713 l 294 629 l 1050 629 z "},"亮":{"ha":1389,"x_min":83,"x_max":1306,"o":"m 1108 -1 q 1016 37 1054 -1 q 978 129 978 75 l 978 171 l 413 171 l 413 119 l 314 3 l 108 3 l 221 135 l 221 247 l 93 247 l 93 482 l 1201 482 q 1275 451 1244 482 q 1306 378 1306 421 l 1306 247 l 1154 247 l 1154 136 q 1167 104 1154 117 q 1199 92 1179 92 l 1272 92 l 1231 -1 l 1108 -1 m 83 958 l 586 958 l 574 1001 l 788 1001 l 800 958 l 1306 958 l 1306 851 l 83 851 l 83 958 m 115 807 l 1289 807 l 1289 694 q 1244 586 1289 631 q 1138 542 1199 542 l 115 542 l 115 807 m 1129 301 l 1129 343 q 1120 365 1129 356 q 1099 374 1111 374 l 253 374 l 253 301 l 1129 301 m 1060 635 q 1090 647 1078 635 q 1103 678 1103 660 l 1103 715 l 303 715 l 303 635 l 1060 635 z "},"亲":{"ha":1389,"x_min":83,"x_max":1306,"o":"m 483 129 l 574 129 q 605 142 592 129 q 618 175 618 156 l 618 308 l 108 308 l 108 444 l 618 444 l 618 525 l 85 525 l 85 661 l 290 661 l 176 764 l 406 764 l 518 661 l 872 661 l 985 764 l 1214 764 l 1100 661 l 1306 661 l 1306 525 l 831 525 l 831 444 l 1285 444 l 1285 308 l 831 308 l 831 163 q 785 53 831 99 q 675 7 739 7 l 429 7 l 483 129 m 197 276 l 411 276 l 296 0 l 83 0 l 197 276 m 99 939 l 572 939 l 550 1001 l 794 1001 l 817 939 l 1286 939 l 1286 803 l 99 803 l 99 939 m 1169 276 l 1285 0 l 1071 0 l 957 276 l 1169 276 z "},"人":{"ha":1389,"x_min":86,"x_max":1303,"o":"m 589 636 l 589 1001 l 814 1001 l 814 621 l 744 533 l 893 533 l 1303 0 l 1051 0 l 700 475 l 329 0 l 86 0 l 589 636 z "},"亿":{"ha":1389,"x_min":85,"x_max":1304,"o":"m 461 132 l 1039 867 l 511 867 l 511 996 l 1304 996 l 1304 875 l 715 135 l 1285 135 l 1239 6 l 461 6 l 461 132 m 219 1000 l 415 1000 l 317 747 l 393 747 l 393 1 l 197 1 l 197 653 l 85 653 l 219 1000 z "},"什":{"ha":1389,"x_min":86,"x_max":1301,"o":"m 797 571 l 432 571 l 432 707 l 797 707 l 797 997 l 988 997 l 988 707 l 1301 707 l 1301 571 l 988 571 l 988 1 l 797 1 l 797 571 m 258 999 l 465 999 l 351 742 l 392 742 l 392 1 l 201 1 l 201 611 l 86 611 l 258 999 z "},"仁":{"ha":1389,"x_min":86,"x_max":1303,"o":"m 200 613 l 86 613 l 257 1000 l 465 1000 l 351 743 l 390 743 l 390 3 l 200 3 l 200 613 m 433 135 l 1303 135 l 1303 0 l 433 0 l 433 135 m 514 950 l 1222 950 l 1222 815 l 514 815 l 514 950 z "},"仅":{"ha":1389,"x_min":85,"x_max":1303,"o":"m 475 196 q 751 350 607 249 q 481 806 547 554 l 676 806 q 890 469 736 628 q 1108 839 1061 640 l 475 839 l 475 981 l 1300 981 l 1303 839 q 1029 349 1258 575 q 1303 196 1160 250 l 1303 14 q 890 231 1081 88 q 475 14 699 89 l 475 196 m 257 1000 l 465 1000 l 350 743 l 390 743 l 390 1 l 200 1 l 200 613 l 85 613 l 257 1000 z "},"仆":{"ha":1389,"x_min":104,"x_max":1283,"o":"m 772 999 l 960 999 l 960 742 l 1110 742 l 1283 257 l 1088 257 l 960 619 l 960 1 l 772 1 l 772 999 m 325 999 l 532 999 l 386 742 l 458 742 l 458 1 l 268 1 l 268 611 l 104 611 l 325 999 z "},"仇":{"ha":1389,"x_min":86,"x_max":1303,"o":"m 625 719 l 465 719 l 465 856 l 663 856 l 703 1000 l 871 1000 l 831 856 l 1146 856 l 1146 168 q 1154 147 1146 156 q 1176 138 1163 138 l 1303 138 l 1253 1 l 1100 1 q 1013 38 1049 1 q 978 125 978 74 l 978 719 l 793 719 l 593 1 l 425 1 l 625 719 m 258 1000 l 465 1000 l 351 743 l 392 743 l 392 1 l 200 1 l 200 613 l 86 613 l 258 1000 z "},"今":{"ha":1389,"x_min":83,"x_max":1304,"o":"m 825 1 l 235 1 l 182 144 l 888 144 l 976 346 l 139 346 l 139 490 l 1282 490 l 1067 0 l 825 0 l 825 1 m 226 1000 l 433 1000 l 433 999 l 1150 999 l 1304 575 l 1111 575 l 1015 854 l 381 854 l 290 575 l 83 575 l 226 1000 m 771 767 l 826 551 l 617 551 l 563 767 l 771 767 z "},"介":{"ha":1389,"x_min":86,"x_max":1303,"o":"m 228 1000 l 435 1000 l 435 999 l 1150 999 l 1303 610 l 1110 610 l 1014 856 l 382 856 l 292 610 l 86 610 l 228 1000 m 304 594 l 492 594 l 403 3 l 217 3 l 304 594 m 1101 601 l 1103 1 l 915 1 l 914 601 l 1101 601 z "},"仍":{"ha":1389,"x_min":85,"x_max":1304,"o":"m 621 874 l 515 874 l 515 1003 l 1288 1003 l 1129 683 l 1304 683 l 1304 135 q 1265 40 1304 79 q 1171 1 1226 1 l 913 1 l 976 131 l 1085 131 q 1106 139 1097 131 q 1115 161 1115 149 l 1114 554 l 874 554 l 1028 874 l 811 874 l 640 1 l 447 1 l 621 874 m 256 999 l 464 999 l 350 740 l 389 740 l 389 -1 l 199 -1 l 199 610 l 85 610 l 256 999 z "},"从":{"ha":1389,"x_min":72,"x_max":1315,"o":"m 486 1 l 347 407 l 260 1 l 72 1 l 289 1000 l 476 1000 l 393 618 l 468 618 l 681 1 l 486 1 m 897 1000 l 1085 1000 l 1001 618 l 1075 618 l 1315 1 l 1121 1 l 958 418 l 868 1 l 681 1 l 897 1000 z "},"仑":{"ha":1389,"x_min":79,"x_max":1308,"o":"m 328 3 q 219 46 264 3 q 175 154 175 89 l 175 514 l 368 514 l 368 369 l 1240 515 l 1240 361 l 368 215 l 368 183 q 381 151 368 164 q 411 139 393 139 l 1250 139 l 1189 3 l 328 3 m 340 999 l 1043 999 l 1308 593 l 1075 593 l 888 882 l 497 882 l 308 593 l 79 593 l 340 999 z "},"仓":{"ha":1389,"x_min":85,"x_max":1303,"o":"m 225 1 q 135 38 172 1 q 99 126 99 75 l 99 657 l 100 657 l 100 658 l 1268 658 l 1268 351 q 1238 278 1268 308 q 1164 247 1207 247 l 443 247 l 496 382 l 1040 382 q 1061 391 1053 382 q 1069 413 1069 400 l 1069 524 l 285 524 l 286 147 q 295 125 286 135 q 318 115 304 115 l 1303 115 l 1261 1 l 225 1 m 226 1000 l 433 1000 l 432 999 l 1147 999 l 1300 701 l 1108 701 l 1029 856 l 364 856 l 290 701 l 85 701 l 226 1000 z "},"仔":{"ha":1389,"x_min":85,"x_max":1304,"o":"m 663 125 l 878 125 q 908 138 896 125 q 921 168 921 150 l 921 436 l 446 436 l 446 571 l 922 571 l 1101 860 l 504 860 l 504 994 l 1304 994 l 1304 860 l 1125 571 l 1304 571 l 1304 436 l 1111 436 l 1111 158 q 1067 51 1111 94 q 961 7 1024 7 l 610 7 l 663 125 m 246 999 l 444 999 l 350 803 l 401 803 l 401 3 l 214 3 l 214 664 l 85 664 l 246 999 z "},"他":{"ha":1389,"x_min":85,"x_max":1303,"o":"m 640 3 q 566 33 596 3 q 536 107 536 64 l 536 674 l 460 668 l 460 803 l 536 810 l 536 943 l 708 943 l 708 825 l 826 835 l 826 979 l 999 979 l 999 850 l 1288 874 l 1288 385 q 1244 278 1288 322 q 1136 235 1201 235 l 999 235 l 1051 353 l 1069 353 q 1100 365 1088 353 q 1113 396 1113 378 l 1113 724 l 999 714 l 999 294 l 826 294 l 826 699 l 708 689 l 708 168 q 717 147 708 156 q 738 138 726 138 l 1303 138 l 1251 3 l 640 3 m 246 999 l 429 999 l 335 803 l 403 803 l 403 3 l 231 3 l 231 664 l 85 664 l 246 999 z "},"仗":{"ha":1389,"x_min":85,"x_max":1304,"o":"m 1304 1 q 828 186 1021 29 q 446 3 665 69 l 446 167 q 711 303 594 222 q 528 689 585 461 l 710 689 q 838 417 747 533 q 1013 764 967 560 l 471 764 l 471 899 l 1032 899 q 1035 990 1035 963 l 1214 990 q 1210 899 1214 944 l 1304 899 l 1304 764 l 1193 764 q 957 297 1138 486 q 1304 153 1100 186 l 1304 1 m 246 999 l 444 999 l 350 803 l 422 803 l 422 3 l 229 3 l 229 664 l 85 664 l 246 999 z "},"付":{"ha":1389,"x_min":89,"x_max":1300,"o":"m 888 124 l 972 124 q 1003 136 990 124 q 1015 167 1015 149 l 1015 735 l 474 735 l 474 871 l 1015 871 l 1015 997 l 1203 997 l 1203 871 l 1300 871 l 1300 735 l 1203 735 l 1203 133 q 1165 41 1203 79 q 1072 3 1126 3 l 836 3 l 888 124 m 250 999 l 449 999 l 354 803 l 433 803 l 433 3 l 233 3 l 233 664 l 89 664 l 250 999 m 713 633 l 836 194 l 664 194 l 540 633 l 713 633 z "},"仙":{"ha":1389,"x_min":94,"x_max":1293,"o":"m 494 894 l 688 894 l 688 131 l 797 131 l 797 1007 l 990 1007 l 990 131 l 1078 131 q 1097 139 1089 131 q 1106 158 1106 147 l 1106 893 l 1293 893 l 1293 99 q 1263 24 1293 54 q 1189 -6 1233 -6 l 494 -6 l 494 894 m 256 990 l 439 990 l 344 794 l 411 794 l 411 -6 l 239 -6 l 239 656 l 94 656 l 256 990 z "},"代":{"ha":1389,"x_min":86,"x_max":1301,"o":"m 842 610 l 463 610 l 463 744 l 786 744 l 692 982 l 882 982 l 976 744 l 1088 744 l 1017 947 l 1185 947 l 1301 610 l 1032 610 l 1275 3 l 1085 3 l 842 610 m 249 999 l 431 999 l 336 803 l 404 803 l 404 3 l 232 3 l 232 664 l 86 664 l 249 999 z "},"令":{"ha":1389,"x_min":90,"x_max":1299,"o":"m 297 274 l 488 274 l 533 175 l 933 175 l 1035 372 l 90 372 l 90 507 l 1292 507 l 1079 39 l 594 39 l 610 6 l 421 6 l 297 274 m 258 994 l 1115 994 l 1299 554 l 1096 554 l 971 857 l 404 857 l 278 554 l 90 554 l 258 994 m 725 765 l 817 556 l 626 556 l 535 765 l 725 765 z "},"以":{"ha":1389,"x_min":90,"x_max":1299,"o":"m 951 985 l 1154 985 l 974 535 l 1085 535 l 1299 0 l 1104 0 l 932 429 l 760 0 l 556 0 l 951 985 m 90 1000 l 281 1000 l 281 174 q 293 143 281 156 q 324 129 307 129 l 543 129 l 489 0 l 221 0 q 169 10 190 0 q 129 39 144 24 q 101 79 110 54 q 90 129 90 104 l 90 1000 m 592 915 l 658 435 l 467 435 l 401 915 l 592 915 z "},"仪":{"ha":1389,"x_min":94,"x_max":1293,"o":"m 464 185 q 756 353 629 251 q 475 968 536 597 l 654 968 q 879 469 710 665 q 1103 968 1049 665 l 1282 968 q 1001 353 1221 597 q 1293 185 1125 254 l 1293 3 q 879 233 1049 93 q 464 3 708 93 l 464 185 m 256 999 l 439 999 l 344 803 l 411 803 l 411 3 l 239 3 l 239 664 l 94 664 l 256 999 m 932 982 l 989 756 l 838 756 l 781 982 l 932 982 z "},"们":{"ha":1389,"x_min":90,"x_max":1297,"o":"m 1015 139 l 1096 139 q 1117 148 1108 139 q 1125 168 1125 157 l 1125 833 l 764 833 l 764 968 l 1297 968 l 1297 106 q 1267 33 1297 63 q 1194 3 1238 3 l 963 3 l 1015 139 m 253 999 l 435 999 l 340 803 l 408 803 l 408 3 l 236 3 l 236 664 l 90 664 l 253 999 m 638 988 l 688 818 l 519 818 l 471 988 l 638 988 m 472 775 l 644 775 l 644 3 l 472 3 l 472 775 z "},"仰":{"ha":1389,"x_min":83,"x_max":1304,"o":"m 858 1000 l 1304 1000 l 1304 235 q 1258 126 1304 171 q 1151 82 1213 82 l 1043 82 l 1089 219 l 1107 219 q 1138 232 1125 219 q 1150 264 1150 244 l 1150 864 l 1013 864 l 1013 0 l 858 0 l 858 1000 m 239 1001 l 425 1001 l 329 768 l 381 768 l 381 0 l 201 0 l 201 625 l 83 625 l 239 1001 m 468 949 l 804 997 l 804 860 l 622 833 l 622 232 l 804 247 l 804 110 l 468 82 l 468 949 z "},"仲":{"ha":1389,"x_min":90,"x_max":1299,"o":"m 811 139 l 514 139 l 514 911 l 811 911 l 811 1003 l 1004 1003 l 1004 911 l 1299 911 l 1299 292 q 1254 183 1299 226 q 1146 139 1210 139 l 1004 139 l 1004 -3 l 811 -3 l 811 139 m 257 996 l 458 996 l 369 803 l 415 803 l 415 -3 l 222 -3 l 222 629 l 90 629 l 257 996 m 811 276 l 811 774 l 692 774 l 692 276 l 811 276 m 1076 276 q 1108 289 1096 276 q 1121 321 1121 301 l 1121 774 l 1004 774 l 1004 276 l 1076 276 z "},"件":{"ha":1389,"x_min":85,"x_max":1304,"o":"m 797 308 l 438 308 l 438 446 l 797 446 l 797 638 l 447 638 l 524 918 l 707 918 l 667 775 l 797 775 l 797 964 l 990 964 l 990 775 l 1265 775 l 1265 638 l 990 638 l 990 446 l 1304 446 l 1304 308 l 990 308 l 990 0 l 797 0 l 797 308 m 239 1001 l 425 1001 l 329 768 l 381 768 l 381 0 l 201 0 l 201 625 l 85 625 l 239 1001 z "},"价":{"ha":1389,"x_min":83,"x_max":1304,"o":"m 201 624 l 83 624 l 239 1000 l 425 1000 l 329 767 l 381 767 l 381 -1 l 201 -1 l 201 624 m 619 1001 l 1178 1001 l 1304 672 l 1103 672 l 1038 883 l 771 883 l 771 886 l 674 679 l 472 679 l 619 1001 m 547 182 l 547 636 l 717 636 l 717 182 l 653 10 l 485 10 l 547 182 m 1043 636 l 1211 636 l 1211 4 l 1043 4 l 1043 636 z "},"任":{"ha":1389,"x_min":83,"x_max":1304,"o":"m 497 133 l 790 133 l 790 458 l 453 458 l 453 593 l 790 593 l 790 819 l 497 790 l 497 925 l 1271 1001 l 1271 867 l 976 838 l 976 593 l 1304 593 l 1304 458 l 976 458 l 976 133 l 1269 133 l 1269 -1 l 497 -1 l 497 133 m 239 1000 l 425 1000 l 329 767 l 381 767 l 381 -1 l 201 -1 l 201 624 l 83 624 l 239 1000 z "},"份":{"ha":1389,"x_min":81,"x_max":1307,"o":"m 636 464 l 453 464 l 453 603 l 1261 603 l 1261 151 q 1249 92 1261 119 q 1217 42 1238 63 q 1167 8 1199 24 q 1107 -3 1136 -3 l 818 -3 l 881 135 l 1022 135 q 1054 149 1040 135 q 1067 178 1067 160 l 1067 464 l 838 464 l 656 -3 l 453 -3 l 636 464 m 235 1003 l 424 1003 l 328 768 l 378 768 l 378 -3 l 199 -3 l 199 625 l 81 625 l 235 1003 m 600 999 l 806 999 l 806 997 l 613 675 l 410 675 l 600 999 m 910 999 l 1117 999 l 1307 675 l 1101 675 l 910 997 l 910 999 z "},"仿":{"ha":1389,"x_min":85,"x_max":1304,"o":"m 607 826 l 474 826 l 474 954 l 769 954 l 747 1003 l 975 1003 l 997 954 l 1304 954 l 1304 826 l 799 826 l 779 699 l 1267 699 l 1267 153 q 1222 44 1267 88 q 1114 0 1178 0 l 844 0 l 903 128 l 1039 128 q 1071 140 1058 128 q 1083 172 1083 153 l 1083 569 l 758 569 l 669 0 l 478 0 l 607 826 m 239 1000 l 425 1000 l 329 767 l 381 767 l 381 -1 l 203 -1 l 203 624 l 85 624 l 239 1000 z "},"企":{"ha":1389,"x_min":85,"x_max":1304,"o":"m 85 136 l 271 136 l 271 544 l 96 544 l 253 1001 l 1149 1001 l 1304 544 l 1151 544 l 1151 411 l 840 411 l 840 136 l 1304 136 l 1304 -1 l 85 -1 l 85 136 m 475 599 l 475 136 l 635 136 l 635 738 l 840 738 l 840 565 l 1113 565 l 1004 871 l 397 871 l 301 599 l 475 599 z "},"伊":{"ha":1389,"x_min":83,"x_max":1304,"o":"m 657 200 l 524 200 l 524 338 l 742 338 l 742 529 l 471 529 l 471 667 l 742 667 l 742 856 l 524 856 l 524 993 l 1260 993 l 1260 667 l 1304 667 l 1304 529 l 1260 529 l 1260 354 q 1216 245 1260 290 q 1107 200 1172 200 l 876 200 l 738 1 l 528 1 l 657 200 m 250 1000 l 451 1000 l 363 807 l 408 807 l 408 1 l 215 1 l 215 633 l 83 633 l 250 1000 m 1021 338 q 1053 351 1040 338 q 1067 383 1067 364 l 1067 529 l 933 529 l 933 338 l 1021 338 m 1067 667 l 1067 856 l 933 856 l 933 667 l 1067 667 z "},"伍":{"ha":1389,"x_min":78,"x_max":1311,"o":"m 421 124 l 599 124 l 644 549 l 475 549 l 475 675 l 660 675 l 681 878 l 461 878 l 461 1003 l 1290 1003 l 1290 878 l 857 878 l 833 675 l 1082 675 q 1175 637 1136 675 q 1214 543 1214 599 l 1214 124 l 1311 124 l 1311 -1 l 421 -1 l 421 124 m 232 1003 l 421 1003 l 325 769 l 375 769 l 375 -1 l 196 -1 l 196 626 l 78 626 l 232 1003 m 1039 124 l 1039 482 q 1019 530 1039 511 q 974 549 1000 549 l 821 549 l 774 124 l 1039 124 z "},"伏":{"ha":1389,"x_min":83,"x_max":1304,"o":"m 731 629 l 444 629 l 444 767 l 746 767 l 746 1003 l 929 1003 l 929 767 l 1301 767 l 1301 629 l 917 629 l 876 540 l 992 540 l 1304 -1 l 1110 -1 l 844 471 l 628 -1 l 440 -1 l 731 629 m 239 1000 l 425 1000 l 329 767 l 381 767 l 381 -1 l 201 -1 l 201 625 l 83 625 l 239 1000 m 1199 968 l 1258 806 l 1101 806 l 1043 968 l 1199 968 z "},"伐":{"ha":1389,"x_min":85,"x_max":1304,"o":"m 853 374 l 717 685 l 478 685 l 478 822 l 657 822 l 579 1003 l 807 1003 l 885 822 l 1035 822 l 961 1003 l 1168 1003 l 1299 685 l 944 685 l 1011 532 l 1044 565 l 1304 565 l 1090 350 l 1243 -1 l 1015 -1 l 932 192 l 739 -1 l 478 -1 l 853 374 m 239 1000 l 426 1000 l 331 767 l 381 767 l 381 -1 l 203 -1 l 203 624 l 85 624 l 239 1000 z "},"休":{"ha":1389,"x_min":85,"x_max":1303,"o":"m 797 774 l 478 774 l 478 910 l 797 910 l 797 1001 l 983 1001 l 983 910 l 1303 910 l 1303 774 l 983 774 l 983 0 l 797 0 l 797 774 m 240 1001 l 426 1001 l 331 768 l 382 768 l 382 0 l 203 0 l 203 626 l 85 626 l 240 1001 m 544 706 l 715 706 l 649 0 l 478 0 l 544 706 m 1238 706 l 1303 0 l 1132 0 l 1067 706 l 1238 706 z "},"众":{"ha":1389,"x_min":82,"x_max":1306,"o":"m 339 529 l 339 719 l 499 719 l 499 476 l 453 379 l 539 379 l 692 56 l 922 529 l 922 719 l 1075 719 l 1004 883 l 389 883 l 286 668 l 85 668 l 240 1001 l 1144 1001 l 1306 656 l 1104 656 l 1082 706 l 1082 476 l 1036 379 l 1122 379 l 1300 1 l 1124 1 l 990 282 l 857 -1 l 664 -1 l 665 1 l 540 1 l 407 282 l 274 -1 l 82 -1 l 339 529 z "},"优":{"ha":1389,"x_min":85,"x_max":1304,"o":"m 579 233 l 579 706 l 451 706 l 451 838 l 579 838 l 579 1001 l 771 1001 l 771 838 l 1036 838 l 968 1003 l 1175 1003 l 1297 706 l 771 706 l 771 204 l 665 -1 l 458 -1 l 579 233 m 239 1000 l 426 1000 l 331 767 l 381 767 l 381 -1 l 203 -1 l 203 624 l 85 624 l 239 1000 m 932 618 l 1124 618 l 1124 179 q 1136 149 1124 161 q 1168 136 1149 136 l 1304 136 l 1243 -1 l 1083 -1 q 975 43 1018 -1 q 932 151 932 88 l 932 618 z "},"伙":{"ha":1389,"x_min":89,"x_max":1299,"o":"m 781 485 l 781 1001 l 957 1001 l 957 485 l 1299 4 l 1092 4 l 869 324 l 646 4 l 440 4 l 781 485 m 243 1000 l 429 1000 l 333 767 l 385 767 l 385 -1 l 206 -1 l 206 624 l 89 624 l 243 1000 m 650 968 l 686 407 l 519 407 l 483 968 l 650 968 m 1089 968 l 1256 968 l 1219 407 l 1051 407 l 1089 968 z "},"会":{"ha":1389,"x_min":86,"x_max":1303,"o":"m 1064 31 l 117 31 l 206 299 l 117 299 l 117 436 l 1276 436 l 1276 299 l 389 299 l 346 167 l 1006 167 l 975 242 l 1181 242 l 1283 -1 l 1078 -1 l 1064 31 m 243 1001 l 1147 1001 l 1303 701 l 1101 701 l 1007 883 l 385 883 l 288 701 l 86 701 l 243 1001 m 182 642 l 1218 642 l 1218 504 l 182 504 l 182 642 z "},"伞":{"ha":1389,"x_min":79,"x_max":1308,"o":"m 588 182 l 81 182 l 81 321 l 588 321 l 588 725 l 781 725 l 781 321 l 1306 321 l 1306 182 l 781 182 l 781 -3 l 588 -3 l 588 182 m 238 1003 l 1147 1003 l 1308 656 l 1106 656 l 1006 885 l 385 885 l 283 668 l 79 668 l 238 1003 m 346 604 l 479 376 l 289 376 l 156 604 l 346 604 m 1042 604 l 1233 604 l 1099 376 l 908 376 l 1042 604 z "},"伟":{"ha":1389,"x_min":85,"x_max":1304,"o":"m 731 367 l 464 367 l 464 504 l 731 504 l 731 581 l 481 581 l 481 718 l 731 718 l 731 790 l 464 790 l 464 928 l 731 928 l 731 1001 l 910 1001 l 910 928 l 1304 928 l 1304 790 l 910 790 l 910 718 l 1288 718 l 1288 581 l 910 581 l 910 504 l 1304 504 l 1304 151 q 1260 43 1304 86 q 1151 0 1215 0 l 963 0 l 1039 138 l 1083 138 q 1115 150 1103 138 q 1128 181 1128 163 l 1128 367 l 910 367 l 910 0 l 731 0 l 731 367 m 240 1001 l 426 1001 l 331 768 l 382 768 l 382 0 l 203 0 l 203 626 l 85 626 l 240 1001 z "},"传":{"ha":1389,"x_min":83,"x_max":1306,"o":"m 467 208 l 693 208 l 718 165 l 1000 165 l 1057 349 l 465 349 l 535 581 l 442 581 l 442 717 l 575 717 l 597 790 l 442 790 l 442 928 l 638 928 l 660 1001 l 846 1001 l 826 928 l 1306 928 l 1306 790 l 790 790 l 771 717 l 1303 717 l 1303 581 l 735 581 l 710 485 l 1303 485 l 1161 29 l 797 29 l 815 -1 l 606 -1 l 467 208 m 238 1001 l 425 1001 l 329 768 l 381 768 l 381 -1 l 201 -1 l 201 625 l 83 625 l 238 1001 z "},"伤":{"ha":1389,"x_min":85,"x_max":1304,"o":"m 656 490 l 479 490 l 479 628 l 699 628 l 746 778 l 479 778 l 538 1003 l 739 1003 l 717 915 l 1304 915 l 1304 778 l 947 778 l 900 628 l 1304 628 l 1304 151 q 1259 43 1304 88 q 1153 -1 1214 -1 l 876 -1 l 938 136 l 1068 136 q 1100 149 1088 136 q 1113 179 1113 161 l 1113 490 l 857 490 l 701 -1 l 500 -1 l 656 490 m 239 1001 l 426 1001 l 331 768 l 382 768 l 382 0 l 203 0 l 203 625 l 85 625 l 239 1001 z "},"伦":{"ha":1389,"x_min":82,"x_max":1307,"o":"m 656 4 q 547 49 590 4 q 503 157 503 93 l 503 533 l 696 533 l 696 399 l 1294 524 l 1294 368 l 696 244 l 696 185 q 708 154 696 167 q 739 142 721 142 l 1299 142 l 1243 4 l 656 4 m 249 994 l 450 994 l 363 801 l 407 801 l 407 4 l 215 4 l 215 628 l 82 628 l 249 994 m 594 996 l 1168 996 l 1307 603 l 1121 603 l 1025 861 l 738 861 l 640 603 l 454 603 l 594 996 z "},"伪":{"ha":1389,"x_min":85,"x_max":1304,"o":"m 657 632 l 464 632 l 464 769 l 694 769 l 714 840 l 546 840 l 474 1003 l 665 1003 l 722 875 l 757 1003 l 958 1003 l 896 769 l 1304 769 l 1304 151 q 1259 43 1304 88 q 1153 -1 1214 -1 l 876 -1 l 938 136 l 1068 136 q 1100 149 1088 136 q 1113 179 1113 161 l 1113 632 l 858 632 l 831 531 l 956 531 l 1083 239 l 882 239 l 801 422 l 686 -1 l 485 -1 l 657 632 m 239 1001 l 426 1001 l 331 768 l 382 768 l 382 0 l 203 0 l 203 625 l 85 625 l 239 1001 z "},"伯":{"ha":1389,"x_min":83,"x_max":1304,"o":"m 492 858 l 589 858 l 651 999 l 838 999 l 775 858 l 1304 858 l 1304 150 q 1260 41 1304 85 q 1151 -3 1215 -3 l 492 -3 l 492 858 m 239 1003 l 425 1003 l 329 769 l 381 769 l 381 0 l 201 0 l 201 626 l 83 626 l 239 1003 m 1089 135 q 1121 147 1108 135 q 1133 178 1133 160 l 1133 360 l 664 360 l 664 135 l 1089 135 m 1133 497 l 1133 721 l 664 721 l 664 497 l 1133 497 z "},"估":{"ha":1389,"x_min":83,"x_max":1304,"o":"m 450 531 l 769 531 l 769 696 l 426 696 l 426 833 l 769 833 l 769 1001 l 961 1001 l 961 833 l 1304 833 l 1304 696 l 961 696 l 961 531 l 1281 531 l 1281 151 q 1235 43 1281 88 q 1129 -1 1190 -1 l 450 -1 l 450 531 m 239 1003 l 425 1003 l 329 769 l 381 769 l 381 0 l 201 0 l 201 626 l 83 626 l 239 1003 m 1089 136 q 1119 149 1107 136 q 1132 179 1132 161 l 1132 393 l 599 393 l 599 136 l 1089 136 z "},"伴":{"ha":1389,"x_min":83,"x_max":1304,"o":"m 794 182 l 451 182 l 451 319 l 794 319 l 794 488 l 483 488 l 483 625 l 794 625 l 794 975 l 961 975 l 961 625 l 1272 625 l 1272 488 l 961 488 l 961 319 l 1304 319 l 1304 182 l 961 182 l 961 -1 l 794 -1 l 794 182 m 239 1003 l 425 1003 l 329 769 l 381 769 l 381 0 l 201 0 l 201 626 l 83 626 l 239 1003 m 661 931 l 717 682 l 539 682 l 483 931 l 661 931 m 1094 931 l 1272 931 l 1217 682 l 1039 682 l 1094 931 z "},"伶":{"ha":1389,"x_min":83,"x_max":1304,"o":"m 521 300 l 711 300 l 751 183 l 1054 183 l 1096 365 l 490 365 l 490 511 l 1304 511 l 1196 40 l 801 40 l 815 -1 l 625 -1 l 521 300 m 239 1003 l 425 1003 l 329 769 l 381 769 l 381 0 l 201 0 l 201 626 l 83 626 l 239 1003 m 571 1001 l 1221 1001 l 1303 579 l 1131 579 l 1074 865 l 718 865 l 661 579 l 489 579 l 571 1001 m 963 782 l 1017 579 l 829 579 l 775 782 l 963 782 z "},"伸":{"ha":1389,"x_min":83,"x_max":1304,"o":"m 801 142 l 478 142 l 478 856 l 801 856 l 801 1001 l 979 1001 l 979 856 l 1304 856 l 1304 293 q 1260 185 1304 228 q 1151 142 1215 142 l 979 142 l 979 -1 l 801 -1 l 801 142 m 239 1003 l 425 1003 l 329 769 l 381 769 l 381 0 l 201 0 l 201 626 l 83 626 l 239 1003 m 801 258 l 801 440 l 656 440 l 656 258 l 801 258 m 801 557 l 801 739 l 656 739 l 656 557 l 801 557 m 1082 258 q 1114 271 1101 258 q 1126 301 1126 283 l 1126 440 l 979 440 l 979 258 l 1082 258 m 1126 557 l 1126 739 l 979 739 l 979 557 l 1126 557 z "},"伺":{"ha":1389,"x_min":88,"x_max":1300,"o":"m 1019 139 l 1068 139 q 1099 151 1086 139 q 1111 183 1111 164 l 1111 865 l 478 865 l 478 1001 l 1300 1001 l 1300 150 q 1256 42 1300 85 q 1147 -1 1211 -1 l 960 -1 l 1019 139 m 254 1001 l 456 1001 l 335 729 l 403 729 l 403 1 l 211 1 l 211 626 l 88 626 l 254 1001 m 489 785 l 1031 785 l 1031 649 l 489 649 l 489 785 m 499 561 l 1019 561 l 1019 226 q 983 137 1019 174 q 893 100 946 100 l 499 100 l 499 561 m 840 238 q 858 256 858 238 l 858 424 l 661 424 l 661 238 l 840 238 z "},"似":{"ha":1389,"x_min":83,"x_max":1304,"o":"m 853 296 l 707 296 l 628 803 l 783 803 l 860 317 l 983 685 l 983 1003 l 1150 1003 l 1150 633 l 1107 506 l 1174 506 l 1304 4 l 1135 4 l 1050 332 l 939 3 l 756 3 l 853 296 m 238 1003 l 424 1003 l 328 769 l 379 769 l 379 0 l 201 0 l 201 626 l 83 626 l 238 1003 m 453 1000 l 624 1000 l 624 136 l 749 136 l 689 -1 l 453 -1 l 453 1000 z "},"佃":{"ha":1389,"x_min":81,"x_max":1307,"o":"m 479 992 l 1307 992 l 1307 151 q 1263 43 1307 86 q 1154 0 1218 0 l 479 0 l 479 992 m 247 1000 l 449 1000 l 328 728 l 396 728 l 396 0 l 204 0 l 204 625 l 81 625 l 247 1000 m 806 136 l 806 431 l 676 431 l 676 136 l 806 136 m 806 567 l 806 854 l 676 854 l 676 567 l 806 567 m 1071 136 q 1101 149 1089 136 q 1114 181 1114 161 l 1114 431 l 994 431 l 994 136 l 1071 136 m 1114 567 l 1114 854 l 994 854 l 994 567 l 1114 567 z "},"但":{"ha":1389,"x_min":83,"x_max":1304,"o":"m 489 946 l 1242 946 l 1242 393 q 1197 285 1242 329 q 1090 240 1151 240 l 489 240 l 489 946 m 239 1003 l 425 1003 l 329 769 l 381 769 l 381 0 l 201 0 l 201 626 l 83 626 l 239 1003 m 453 115 l 1304 115 l 1304 -1 l 453 -1 l 453 115 m 1018 357 q 1050 369 1038 357 q 1063 401 1063 382 l 1063 535 l 669 535 l 669 357 l 1018 357 m 1063 651 l 1063 828 l 669 828 l 669 651 l 1063 651 z "},"位":{"ha":1389,"x_min":85,"x_max":1304,"o":"m 467 132 l 625 132 l 540 718 l 718 718 l 803 132 l 972 132 l 1057 718 l 1235 718 l 1150 132 l 1304 132 l 1304 -1 l 467 -1 l 467 132 m 239 1003 l 425 1003 l 329 769 l 381 769 l 381 0 l 201 0 l 201 626 l 85 626 l 239 1003 m 510 950 l 771 950 l 749 999 l 976 999 l 997 950 l 1269 950 l 1269 817 l 510 817 l 510 950 z "},"低":{"ha":1389,"x_min":85,"x_max":1304,"o":"m 843 61 l 489 21 l 489 950 l 1304 996 l 1304 860 l 1082 847 l 1138 621 l 1304 621 l 1304 483 l 1171 483 l 1289 -1 l 1110 -1 l 992 483 l 682 483 l 682 178 l 804 190 l 779 275 l 931 275 l 1014 -1 l 861 -1 l 843 61 m 239 1001 l 425 1001 l 329 768 l 381 768 l 381 -1 l 201 -1 l 201 625 l 85 625 l 239 1001 m 958 621 l 906 836 l 682 824 l 682 621 l 958 621 z "},"住":{"ha":1389,"x_min":83,"x_max":1304,"o":"m 467 132 l 799 132 l 799 424 l 494 424 l 494 556 l 799 556 l 799 817 l 467 817 l 467 950 l 765 950 l 743 999 l 971 999 l 993 950 l 1304 950 l 1304 817 l 971 817 l 971 556 l 1275 556 l 1275 424 l 971 424 l 971 132 l 1304 132 l 1304 -1 l 467 -1 l 467 132 m 239 1003 l 425 1003 l 329 769 l 381 769 l 381 0 l 201 0 l 201 626 l 83 626 l 239 1003 z "},"佑":{"ha":1389,"x_min":85,"x_max":1304,"o":"m 554 319 l 406 319 l 588 744 l 453 744 l 453 882 l 646 882 l 696 1000 l 907 1000 l 856 882 l 1304 882 l 1304 744 l 797 744 l 725 574 l 1286 574 l 1286 157 q 1240 49 1286 93 q 1133 6 1194 6 l 554 6 l 554 319 m 251 1000 l 453 1000 l 332 728 l 400 728 l 400 1 l 207 1 l 207 625 l 85 625 l 251 1000 m 1050 142 q 1081 154 1068 142 q 1093 186 1093 167 l 1093 436 l 747 436 l 747 142 l 1050 142 z "},"体":{"ha":1389,"x_min":82,"x_max":1307,"o":"m 782 138 l 685 138 l 685 274 l 782 274 l 782 772 l 450 772 l 450 908 l 782 908 l 782 1001 l 971 1001 l 971 908 l 1303 908 l 1303 772 l 971 772 l 971 274 l 1068 274 l 1068 138 l 971 138 l 971 -1 l 782 -1 l 782 138 m 238 1003 l 424 1003 l 328 769 l 379 769 l 379 0 l 200 0 l 200 626 l 82 626 l 238 1003 m 518 706 l 690 706 l 624 -1 l 450 -1 l 518 706 m 1240 706 l 1307 -1 l 1135 -1 l 1067 706 l 1240 706 z "},"何":{"ha":1389,"x_min":85,"x_max":1304,"o":"m 931 117 l 1036 117 q 1066 129 1054 117 q 1078 160 1078 142 l 1078 840 l 453 840 l 453 950 l 1304 950 l 1304 840 l 1268 840 l 1268 147 q 1224 42 1268 86 q 1121 -1 1181 -1 l 879 -1 l 931 117 m 239 1003 l 426 1003 l 331 769 l 382 769 l 382 0 l 203 0 l 203 626 l 85 626 l 239 1003 m 465 721 l 1017 721 l 1017 356 q 974 251 1017 294 q 871 208 931 208 l 465 208 l 465 721 m 804 339 q 830 350 819 339 q 840 376 840 361 l 840 589 l 642 589 l 642 339 l 804 339 z "},"佘":{"ha":1389,"x_min":119,"x_max":1268,"o":"m 508 128 l 561 128 q 590 142 578 128 q 601 174 601 157 l 601 354 l 135 354 l 135 486 l 1253 486 l 1253 354 l 783 354 l 783 154 q 772 93 783 122 q 743 43 764 69 q 699 10 724 21 q 643 -1 669 -1 l 446 -1 l 508 128 m 189 282 l 371 282 l 300 -1 l 119 -1 l 189 282 m 282 1001 l 1110 1001 l 1257 586 l 1072 586 l 982 882 l 425 882 l 322 599 l 139 599 l 282 1001 m 381 732 l 1013 732 l 1013 592 l 381 592 l 381 732 m 1199 282 l 1268 -1 l 1086 -1 l 1017 282 l 1199 282 z "},"余":{"ha":1389,"x_min":82,"x_max":1307,"o":"m 543 135 l 563 135 q 594 147 582 135 q 607 179 607 160 l 607 357 l 82 357 l 82 486 l 607 486 l 607 590 l 351 590 l 351 728 l 1040 728 l 1040 590 l 778 590 l 778 486 l 1303 486 l 1303 357 l 778 357 l 778 160 q 733 51 778 94 q 625 7 689 7 l 497 7 l 543 135 m 243 993 l 1147 993 l 1307 585 l 1106 585 l 1007 875 l 399 875 l 288 597 l 86 597 l 243 993 m 264 306 l 450 306 l 325 7 l 138 7 l 264 306 m 1121 306 l 1247 7 l 1060 7 l 935 306 l 1121 306 z "},"佛":{"ha":1389,"x_min":82,"x_max":1306,"o":"m 642 226 l 642 242 l 419 242 l 475 643 l 475 646 l 642 646 l 642 792 l 444 792 l 444 929 l 642 929 l 642 1001 l 799 1001 l 799 929 l 908 929 l 908 1001 l 1064 1001 l 1064 929 l 1306 929 l 1306 640 q 1296 588 1306 617 q 1267 547 1282 563 q 1244 529 1258 538 q 1225 518 1229 521 q 1174 508 1206 508 l 1064 508 l 1064 379 l 1306 379 l 1306 129 q 1296 78 1306 99 q 1286 60 1294 75 q 1267 38 1278 46 q 1225 8 1253 19 q 1174 -1 1206 -1 l 1089 -1 l 1119 101 l 1132 101 q 1163 115 1150 101 q 1174 147 1174 126 l 1174 242 l 1064 242 l 1064 -3 l 908 -3 l 908 242 l 799 242 l 799 226 l 704 -3 l 549 -3 l 642 226 m 238 1004 l 428 1004 l 329 771 l 382 771 l 382 -1 l 200 -1 l 200 628 l 82 628 l 238 1004 m 642 379 l 642 508 l 607 508 l 592 379 l 642 379 m 908 379 l 908 508 l 799 508 l 799 379 l 908 379 m 908 646 l 908 792 l 799 792 l 799 646 l 908 646 m 1132 646 q 1163 654 1151 646 q 1174 674 1174 663 l 1174 792 l 1064 792 l 1064 646 l 1132 646 z "},"作":{"ha":1389,"x_min":85,"x_max":1304,"o":"m 738 744 l 699 744 l 646 625 l 444 625 l 611 1001 l 813 1001 l 760 882 l 1304 882 l 1304 744 l 931 744 l 931 625 l 1265 625 l 1265 488 l 931 488 l 931 361 l 1265 361 l 1265 224 l 931 224 l 931 -1 l 738 -1 l 738 744 m 239 1003 l 426 1003 l 331 769 l 381 769 l 381 0 l 203 0 l 203 626 l 85 626 l 239 1003 z "},"你":{"ha":1389,"x_min":83,"x_max":1304,"o":"m 736 136 l 764 136 q 794 149 782 136 q 807 179 807 161 l 807 815 l 468 815 l 550 1001 l 756 1001 l 733 953 l 1304 953 l 1249 743 l 1056 743 l 1079 815 l 976 815 l 976 151 q 932 42 976 86 q 824 -1 888 -1 l 682 -1 l 736 136 m 239 1003 l 425 1003 l 329 769 l 381 769 l 381 0 l 201 0 l 201 626 l 83 626 l 239 1003 m 514 671 l 668 671 l 622 128 l 468 128 l 514 671 m 1254 671 l 1300 128 l 1146 128 l 1100 671 l 1254 671 z "},"佣":{"ha":1389,"x_min":83,"x_max":1304,"o":"m 479 118 l 479 1001 l 1151 1001 q 1226 980 1190 1001 q 1283 923 1261 958 q 1304 849 1304 888 l 1304 150 q 1258 42 1304 86 q 1151 -3 1213 -3 l 1038 -3 l 1089 133 l 1099 133 q 1131 146 1118 133 q 1143 176 1143 158 l 1143 249 l 971 249 l 971 -1 l 811 -1 l 811 249 l 639 249 l 639 118 l 604 -3 l 444 -3 l 479 118 m 239 1003 l 425 1003 l 329 769 l 381 769 l 381 0 l 201 0 l 201 626 l 83 626 l 239 1003 m 811 385 l 811 557 l 639 557 l 639 385 l 811 385 m 811 693 l 811 865 l 639 865 l 639 693 l 811 693 m 1143 385 l 1143 557 l 971 557 l 971 385 l 1143 385 m 1143 693 l 1143 821 q 1131 852 1143 839 q 1099 865 1118 865 l 971 865 l 971 693 l 1143 693 z "},"佩":{"ha":1389,"x_min":76,"x_max":1313,"o":"m 426 185 l 426 1001 l 1239 1001 l 1239 179 q 1251 149 1239 161 q 1282 136 1264 136 l 1313 136 l 1282 -1 l 1229 -1 q 1120 43 1164 -1 q 1076 151 1076 88 l 1076 867 l 597 867 l 597 185 l 546 -1 l 375 -1 l 426 185 m 175 1001 l 386 1001 l 310 690 l 349 690 l 349 -1 l 146 -1 l 146 606 l 76 606 l 175 1001 m 631 633 l 771 633 l 771 711 l 633 711 l 633 815 l 1042 815 l 1042 711 l 886 711 l 886 633 l 971 633 q 1021 608 1000 633 q 1042 546 1042 582 l 1042 188 q 1018 115 1042 144 q 961 85 994 85 l 926 85 l 896 183 l 913 183 q 931 206 931 183 l 931 474 q 925 490 931 483 q 911 497 919 497 l 886 497 l 886 -1 l 771 -1 l 771 497 l 743 497 l 743 85 l 631 85 l 631 633 z "},"佳":{"ha":1389,"x_min":85,"x_max":1304,"o":"m 471 142 l 776 142 l 776 290 l 501 290 l 501 428 l 776 428 l 776 553 l 471 553 l 471 690 l 776 690 l 776 807 l 501 807 l 501 944 l 776 944 l 776 1006 l 969 1006 l 969 944 l 1274 944 l 1274 807 l 969 807 l 969 690 l 1304 690 l 1304 553 l 969 553 l 969 428 l 1274 428 l 1274 290 l 969 290 l 969 142 l 1304 142 l 1304 4 l 471 4 l 471 142 m 260 1006 l 471 1006 l 363 760 l 421 760 l 421 -4 l 218 -4 l 218 610 l 85 610 l 260 1006 z "},"使":{"ha":1389,"x_min":82,"x_max":1306,"o":"m 536 151 l 422 172 l 422 340 l 675 293 l 746 364 l 422 364 l 422 761 l 788 761 l 788 807 l 422 807 l 422 944 l 788 944 l 788 1006 l 989 1006 l 989 944 l 1301 944 l 1301 807 l 989 807 l 989 761 l 1301 761 l 1301 517 q 1256 408 1301 453 q 1150 364 1211 364 l 989 364 l 885 256 l 1306 178 l 1306 10 l 747 113 l 644 3 l 392 3 l 536 151 m 211 1006 l 422 1006 l 343 760 l 354 760 l 354 3 l 151 -4 l 151 610 l 82 610 l 211 1006 m 788 501 l 788 624 l 615 624 l 615 501 l 788 501 m 1065 501 q 1097 514 1085 501 q 1110 546 1110 526 l 1110 624 l 989 624 l 989 501 l 1065 501 z "},"侄":{"ha":1389,"x_min":85,"x_max":1304,"o":"m 422 136 l 763 136 l 763 283 l 469 283 l 469 421 l 763 421 l 763 517 l 421 517 l 581 864 l 422 864 l 422 1001 l 1304 1001 l 1304 864 l 783 864 l 688 654 l 1058 654 l 1038 714 l 1231 714 l 1304 501 l 1113 501 l 1107 517 l 965 517 l 965 421 l 1304 421 l 1304 283 l 965 283 l 965 136 l 1304 136 l 1304 -1 l 422 -1 l 422 136 m 183 1003 l 394 1003 l 333 757 l 356 757 l 356 0 l 154 0 l 154 607 l 85 607 l 183 1003 z "},"侈":{"ha":1389,"x_min":83,"x_max":1306,"o":"m 514 139 l 675 139 l 615 251 l 804 251 l 863 139 l 969 139 l 1054 310 l 488 310 l 581 490 l 775 490 l 751 447 l 1306 447 l 1093 1 l 461 1 l 514 139 m 250 999 l 451 999 l 364 806 l 410 806 l 410 1 l 217 1 l 217 632 l 83 632 l 250 999 m 514 656 l 671 656 l 615 760 l 804 760 l 858 656 l 967 656 l 1042 810 l 488 810 l 579 1000 l 774 1000 l 747 946 l 1306 946 l 1097 518 l 461 518 l 514 656 z "},"例":{"ha":1389,"x_min":76,"x_max":1311,"o":"m 454 121 l 603 121 l 614 174 l 529 174 l 421 583 l 585 583 l 649 342 l 707 629 l 421 629 l 493 872 l 411 872 l 411 994 l 894 994 l 894 872 l 690 872 l 657 767 l 907 767 l 747 1 l 401 1 l 454 121 m 174 1001 l 386 1001 l 325 756 l 347 756 l 347 -1 l 144 -1 l 144 606 l 76 606 l 174 1001 m 928 931 l 1081 931 l 1081 153 l 928 153 l 928 931 m 1044 136 l 1075 136 q 1106 149 1093 136 q 1118 179 1118 161 l 1118 1001 l 1311 1001 l 1311 151 q 1267 42 1311 86 q 1158 -1 1222 -1 l 983 -1 l 1044 136 z "},"侍":{"ha":1389,"x_min":79,"x_max":1308,"o":"m 867 124 l 960 124 q 992 136 979 124 q 1004 168 1004 149 l 1004 378 l 381 378 l 381 515 l 1004 515 l 1004 568 l 1196 568 l 1196 515 l 1308 515 l 1308 378 l 1196 378 l 1196 157 q 1151 48 1196 92 q 1043 4 1107 4 l 814 4 l 867 124 m 208 1006 l 419 1006 l 340 760 l 351 760 l 351 -4 l 149 -4 l 149 610 l 79 610 l 208 1006 m 381 736 l 719 736 l 719 807 l 411 807 l 411 944 l 719 944 l 719 1006 l 913 1006 l 913 944 l 1271 944 l 1271 807 l 913 807 l 913 736 l 1308 736 l 1308 599 l 381 599 l 381 736 m 635 326 l 765 28 l 564 28 l 433 326 l 635 326 z "},"供":{"ha":1389,"x_min":85,"x_max":1304,"o":"m 385 494 l 518 494 l 518 708 l 415 708 l 415 846 l 518 846 l 518 1006 l 711 1006 l 711 846 l 997 846 l 997 1006 l 1190 1006 l 1190 846 l 1274 846 l 1274 708 l 1190 708 l 1190 494 l 1304 494 l 1304 357 l 385 357 l 385 494 m 214 1006 l 425 1006 l 344 760 l 356 760 l 356 -4 l 154 -4 l 154 610 l 85 610 l 214 1006 m 518 308 l 711 308 l 576 3 l 385 3 l 518 308 m 997 494 l 997 708 l 711 708 l 711 494 l 997 494 m 1171 308 l 1304 3 l 1113 3 l 978 308 l 1171 308 z "},"依":{"ha":1389,"x_min":85,"x_max":1304,"o":"m 682 -1 q 573 43 617 -1 q 529 151 529 88 l 529 301 l 372 301 l 599 758 l 406 758 l 406 894 l 735 894 l 735 1001 l 926 1001 l 926 894 l 1304 894 l 1304 758 l 801 758 l 672 496 l 707 496 l 707 164 q 719 133 707 146 q 750 121 732 121 l 861 121 l 800 -1 l 682 -1 m 182 1001 l 393 1001 l 333 756 l 356 756 l 356 -1 l 153 -1 l 153 606 l 85 606 l 182 1001 m 956 651 l 1018 536 l 1082 651 l 1275 651 l 1132 396 l 1093 396 l 1304 -1 l 1101 -1 l 754 651 l 956 651 z "},"侠":{"ha":1389,"x_min":86,"x_max":1303,"o":"m 711 269 l 481 269 l 481 407 l 799 407 l 799 793 l 488 793 l 488 931 l 799 931 l 799 1000 l 983 1000 l 983 931 l 1294 931 l 1294 793 l 983 793 l 983 407 l 1301 407 l 1301 269 l 946 269 l 743 4 l 500 4 l 711 269 m 253 1000 l 454 1000 l 365 807 l 411 807 l 411 1 l 218 1 l 218 633 l 86 633 l 253 1000 m 681 732 l 760 464 l 589 464 l 510 732 l 681 732 m 1149 228 l 1303 4 l 1081 4 l 925 228 l 1149 228 m 1101 732 l 1272 732 l 1193 464 l 1022 464 l 1101 732 z "},"侣":{"ha":1389,"x_min":89,"x_max":1299,"o":"m 481 486 l 1299 486 l 1299 156 q 1253 47 1299 92 q 1147 3 1208 3 l 481 3 l 481 486 m 256 999 l 457 999 l 368 806 l 414 806 l 414 0 l 221 0 l 221 632 l 89 632 l 256 999 m 507 1001 l 1286 1001 l 1286 685 q 1242 576 1286 619 q 1133 532 1197 532 l 507 532 l 507 1001 m 1063 140 q 1094 153 1082 140 q 1107 185 1107 165 l 1107 349 l 674 349 l 674 140 l 1063 140 m 1050 669 q 1081 682 1068 669 q 1093 713 1093 694 l 1093 864 l 699 864 l 699 669 l 1050 669 z "},"侥":{"ha":1389,"x_min":88,"x_max":1300,"o":"m 974 571 l 500 507 l 500 650 l 876 699 l 792 808 l 464 808 l 464 938 l 693 938 l 644 1000 l 864 1000 l 913 938 l 1299 938 l 1299 808 l 1011 808 l 1075 725 l 1294 754 l 1294 615 l 1172 599 l 1247 501 l 1028 501 l 974 571 m 254 999 l 456 999 l 367 806 l 413 806 l 413 0 l 219 0 l 219 632 l 88 632 l 254 999 m 464 439 l 1294 439 l 1294 301 l 1128 301 l 1128 179 q 1140 149 1128 161 q 1171 136 1153 136 l 1300 136 l 1239 0 l 1089 0 q 982 44 1026 0 q 938 151 938 88 l 938 301 l 786 301 l 681 0 l 483 0 l 590 301 l 464 301 l 464 439 z "},"侦":{"ha":1389,"x_min":92,"x_max":1297,"o":"m 750 333 l 750 565 l 951 565 l 951 307 l 1025 307 l 1104 218 l 1104 561 q 1092 593 1104 581 q 1061 606 1079 606 l 615 606 l 615 206 l 424 206 l 424 728 l 719 728 l 719 1001 l 921 1001 l 921 943 l 1257 943 l 1257 806 l 921 806 l 921 728 l 1144 728 q 1219 706 1183 728 q 1276 649 1254 685 q 1297 575 1297 614 l 1297 206 l 1115 206 l 1297 -1 l 1049 -1 l 874 196 l 667 -1 l 404 -1 l 750 333 m 190 1001 l 401 1001 l 340 756 l 364 756 l 364 -1 l 161 -1 l 161 606 l 92 606 l 190 1001 z "},"侧":{"ha":1389,"x_min":85,"x_max":1303,"o":"m 136 688 l 85 688 l 196 1001 l 376 1001 l 281 729 l 322 729 l 322 13 l 511 329 l 376 329 l 376 1001 l 739 1001 q 851 956 804 1001 q 897 849 897 911 l 897 329 l 746 329 l 746 835 q 733 867 746 854 q 700 879 719 879 l 528 879 l 528 357 l 554 403 l 554 803 l 715 803 l 715 356 l 689 310 l 764 310 l 911 3 l 744 3 l 639 225 l 506 -1 l 136 -1 l 136 688 m 940 943 l 1097 943 l 1097 181 l 940 181 l 940 943 m 1082 136 l 1097 136 q 1128 149 1115 136 q 1140 179 1140 161 l 1140 1001 l 1303 1001 l 1303 151 q 1257 43 1303 88 q 1150 -1 1211 -1 l 1006 -1 l 1082 136 z "},"侨":{"ha":1389,"x_min":86,"x_max":1303,"o":"m 538 358 l 421 358 l 535 563 l 421 563 l 421 700 l 613 700 l 699 854 l 451 844 l 451 967 l 1281 1001 l 1281 879 l 925 864 l 839 700 l 1303 700 l 1303 563 l 1160 563 l 1303 351 l 1186 351 l 1186 -1 l 985 -1 l 985 358 l 1054 358 l 926 563 l 765 563 l 657 358 l 739 358 l 667 -1 l 465 -1 l 538 358 m 185 1001 l 396 1001 l 335 756 l 357 756 l 357 -1 l 156 -1 l 156 606 l 86 606 l 185 1001 z "},"侮":{"ha":1389,"x_min":79,"x_max":1310,"o":"m 1006 90 l 1036 90 q 1067 104 1054 90 q 1079 133 1079 115 l 1079 144 l 624 144 q 541 178 575 144 q 507 261 507 213 l 507 414 l 454 414 l 454 538 l 507 538 l 507 776 l 1265 776 l 1265 538 l 1310 538 l 1310 414 l 1265 414 l 1265 124 q 1256 71 1265 97 q 1226 31 1243 44 q 1174 -3 1208 8 q 1133 -8 1157 -8 l 961 -8 l 1006 90 m 253 1006 l 467 1006 l 357 763 l 414 763 l 414 -4 l 211 -4 l 211 611 l 79 611 l 253 1006 m 556 1008 l 781 1008 l 758 958 l 1278 958 l 1278 818 l 471 818 l 556 1008 m 696 300 q 710 264 696 279 q 746 249 725 249 l 847 249 l 740 383 l 929 383 l 1042 249 l 1079 249 l 1079 414 l 696 414 l 696 300 m 813 538 l 740 626 l 929 626 l 1003 538 l 1079 538 l 1079 654 l 696 654 l 696 538 l 813 538 z "},"侯":{"ha":1389,"x_min":83,"x_max":1304,"o":"m 904 165 l 729 3 l 481 3 l 688 201 l 481 201 l 481 325 l 788 325 l 788 479 l 467 479 l 544 640 l 746 640 l 729 603 l 1304 603 l 1304 479 l 988 479 l 988 325 l 1304 325 l 1304 201 l 1106 201 l 1301 -1 l 1058 -1 l 904 165 m 250 1001 l 451 1001 l 364 808 l 410 808 l 410 3 l 217 3 l 217 635 l 83 635 l 250 1001 m 481 807 l 1063 807 l 1063 840 q 1053 863 1063 854 q 1031 872 1044 872 l 517 872 l 517 996 l 1140 996 q 1222 963 1189 996 q 1256 881 1256 929 l 1256 807 l 1304 807 l 1304 682 l 481 682 l 481 807 z "},"侵":{"ha":1389,"x_min":82,"x_max":1307,"o":"m 200 610 l 82 610 l 238 1004 l 422 1004 l 326 761 l 365 761 l 365 -3 l 200 -3 l 200 610 m 422 101 q 525 106 469 101 l 647 119 q 546 178 597 143 q 456 251 496 211 l 649 251 q 743 201 688 225 q 854 163 801 178 q 996 215 949 193 q 1106 289 1061 247 l 425 289 l 425 392 l 1285 392 l 1285 289 q 1183 192 1242 233 q 1061 119 1138 158 q 1124 113 1103 114 q 1183 106 1144 111 q 1285 101 1242 101 l 1285 -1 q 1251 0 1264 -1 l 1208 0 l 1160 3 q 1106 6 1142 3 q 1047 13 1086 7 l 983 21 q 854 47 917 32 q 724 21 789 32 l 663 13 q 604 6 619 7 q 549 3 563 3 l 500 0 l 458 0 q 422 -1 446 -1 l 422 101 m 425 585 l 1185 585 q 1269 549 1236 585 q 1307 467 1307 514 l 1307 425 l 1154 425 l 1154 464 q 1140 476 1154 476 l 578 476 l 578 425 l 425 425 l 425 585 m 460 729 l 1092 729 q 1117 739 1108 729 q 1128 764 1128 750 l 1128 767 l 460 767 l 460 861 l 1128 861 l 1128 901 l 460 901 l 460 1001 l 1269 1001 l 1269 757 q 1242 665 1269 704 q 1161 628 1215 628 l 460 628 l 460 729 z "},"便":{"ha":1389,"x_min":83,"x_max":1304,"o":"m 600 106 l 500 121 l 500 258 l 690 231 l 743 306 l 485 306 l 485 843 l 799 843 l 799 881 l 488 881 l 488 1004 l 1304 1004 l 1304 881 l 986 881 l 986 843 l 1304 843 l 1304 457 q 1259 349 1304 393 q 1153 306 1214 306 l 951 306 l 878 203 l 1304 139 l 1304 1 l 788 78 l 729 -3 l 521 -3 l 600 106 m 258 1004 l 453 1004 l 347 765 l 406 765 l 406 1 l 214 1 l 214 611 l 83 611 l 258 1004 m 799 428 l 799 513 l 676 513 l 676 428 l 799 428 m 799 636 l 799 721 l 676 721 l 676 636 l 799 636 m 1069 428 q 1100 440 1088 428 q 1113 471 1113 453 l 1113 513 l 986 513 l 986 428 l 1069 428 m 1113 636 l 1113 721 l 986 721 l 986 636 l 1113 636 z "},"促":{"ha":1389,"x_min":88,"x_max":1301,"o":"m 564 428 l 747 428 l 701 267 l 792 135 l 792 574 l 492 574 l 492 1003 l 1301 1003 l 1301 726 q 1257 617 1301 661 q 1149 574 1213 574 l 990 574 l 990 451 l 1282 451 l 1282 319 l 990 319 l 990 129 l 1300 129 l 1300 -1 l 701 -1 l 649 75 l 626 -3 l 443 -3 l 564 428 m 263 1003 l 472 1003 l 365 760 l 422 760 l 422 -1 l 221 -1 l 221 610 l 88 610 l 263 1003 m 1067 710 q 1097 722 1085 710 q 1110 753 1110 735 l 1110 868 l 683 868 l 683 710 l 1067 710 z "},"俄":{"ha":1389,"x_min":83,"x_max":1306,"o":"m 483 125 l 500 125 q 531 138 518 125 q 543 168 543 150 l 543 193 l 450 193 l 543 319 l 543 653 l 450 653 l 450 789 l 543 789 l 543 838 l 464 829 l 464 965 l 833 1004 l 833 868 l 735 858 l 735 789 l 929 789 l 885 996 l 1067 996 l 1111 789 l 1154 789 l 1124 996 l 1267 996 l 1306 653 l 1140 653 l 1168 522 l 1282 522 l 1199 379 l 1281 -3 l 1099 -3 l 1065 151 l 1001 42 l 811 42 l 1014 390 l 958 653 l 735 653 l 735 522 l 869 522 l 735 339 l 735 149 q 690 41 735 85 q 583 -3 644 -3 l 435 -3 l 483 125 m 242 996 l 443 996 l 360 803 l 392 803 l 392 -3 l 199 -3 l 199 629 l 83 629 l 242 996 z "},"俊":{"ha":1389,"x_min":86,"x_max":1303,"o":"m 485 114 q 660 131 576 114 q 463 313 539 201 l 660 313 q 860 194 736 247 q 1079 365 997 260 l 440 365 l 517 535 l 704 535 l 685 490 l 1272 490 l 1272 365 q 1056 136 1188 222 q 1272 114 1158 114 l 1272 0 q 860 47 1028 0 q 485 0 706 0 l 485 114 m 261 1003 l 471 1003 l 364 760 l 406 760 l 406 -1 l 219 -1 l 219 610 l 86 610 l 261 1003 m 532 718 l 742 718 l 643 569 l 432 569 l 532 718 m 606 1003 l 817 1003 l 721 861 l 1028 861 l 969 954 l 1174 954 l 1303 744 l 1099 744 l 1086 764 l 460 764 l 606 1003 m 1154 718 l 1253 569 l 1042 569 l 943 718 l 1154 718 z "},"俏":{"ha":1389,"x_min":85,"x_max":1303,"o":"m 986 135 l 1086 135 q 1117 147 1104 135 q 1129 178 1129 160 l 1129 185 l 715 185 l 715 0 l 522 0 l 522 690 l 821 690 l 821 1003 l 1014 1003 l 1014 690 l 1301 690 l 1301 150 q 1256 42 1301 86 q 1150 -1 1211 -1 l 1046 -1 l 986 135 m 264 1001 l 474 1001 l 379 808 l 422 808 l 422 3 l 231 3 l 231 633 l 85 633 l 264 1001 m 711 976 l 782 735 l 603 735 l 532 976 l 711 976 m 1129 307 l 1129 375 l 715 375 l 715 307 l 1129 307 m 1129 499 l 1129 553 l 715 553 l 715 499 l 1129 499 m 1124 976 l 1303 976 l 1232 735 l 1053 735 l 1124 976 z "},"俐":{"ha":1389,"x_min":88,"x_max":1300,"o":"m 600 629 l 443 629 l 443 749 l 600 749 l 600 871 l 454 868 l 454 992 l 907 1003 l 907 876 l 761 874 l 761 749 l 917 749 l 917 629 l 761 629 l 761 3 l 600 3 l 600 629 m 244 999 l 446 999 l 363 806 l 400 806 l 400 0 l 207 0 l 207 632 l 88 632 l 244 999 m 464 571 l 586 571 l 571 3 l 450 3 l 464 571 m 896 571 l 911 3 l 789 3 l 774 571 l 896 571 m 957 943 l 1092 943 l 1092 168 l 957 168 l 957 943 m 1047 114 l 1097 114 q 1124 125 1113 114 q 1135 151 1135 136 l 1135 1001 l 1300 1001 l 1300 115 q 1266 33 1300 68 q 1183 -1 1232 -1 l 1003 -1 l 1047 114 z "},"俗":{"ha":1389,"x_min":78,"x_max":1311,"o":"m 210 610 l 78 610 l 251 1004 l 464 1004 l 356 761 l 413 761 l 413 -3 l 210 -3 l 210 610 m 618 1001 l 822 1001 l 642 779 l 436 779 l 618 1001 m 768 842 l 1013 842 l 908 731 l 1069 731 l 1296 508 l 1046 508 l 876 696 l 701 508 l 453 508 l 768 842 m 476 456 l 1274 456 l 1274 178 q 1225 44 1274 89 q 1103 0 1176 0 l 476 0 l 476 456 m 1019 135 q 1054 147 1040 135 q 1067 182 1067 158 l 1067 321 l 683 321 l 683 135 l 1019 135 m 1129 1001 l 1311 779 l 1106 779 l 925 1001 l 1129 1001 z "},"俘":{"ha":1389,"x_min":82,"x_max":1307,"o":"m 583 94 l 847 94 q 872 105 863 94 q 882 131 882 115 l 882 218 l 472 218 l 472 332 l 892 332 l 1036 453 l 474 453 l 474 567 l 1249 567 l 1249 453 l 1113 332 l 1307 332 l 1307 218 l 1057 218 l 1057 121 q 1021 32 1057 68 q 931 -4 985 -4 l 540 -4 l 583 94 m 256 1003 l 467 1003 l 358 760 l 400 760 l 400 -1 l 214 -1 l 214 610 l 82 610 l 256 1003 m 490 974 l 1283 1004 l 1283 878 l 490 846 l 490 974 m 682 800 l 728 611 l 549 611 l 504 800 l 682 800 m 950 800 l 994 611 l 817 611 l 771 800 l 950 800 m 1110 800 l 1288 800 l 1243 611 l 1065 611 l 1110 800 z "},"保":{"ha":1389,"x_min":88,"x_max":1300,"o":"m 788 372 l 488 372 l 488 504 l 788 504 l 788 546 l 985 546 l 985 504 l 1286 504 l 1286 372 l 985 372 l 985 3 l 788 3 l 788 372 m 261 1003 l 472 1003 l 364 760 l 421 760 l 421 -1 l 221 -1 l 221 610 l 88 610 l 261 1003 m 485 1003 l 1294 1003 l 1294 726 q 1249 618 1294 663 q 1143 574 1204 574 l 485 574 l 485 1003 m 544 325 l 728 325 l 671 1 l 488 1 l 544 325 m 1060 710 q 1090 722 1078 710 q 1103 753 1103 735 l 1103 868 l 676 868 l 676 710 l 1060 710 m 1243 325 l 1300 1 l 1117 1 l 1060 325 l 1243 325 z "},"信":{"ha":1389,"x_min":82,"x_max":1306,"o":"m 215 610 l 82 610 l 257 1003 l 467 1003 l 358 760 l 417 760 l 417 -1 l 215 -1 l 215 610 m 468 403 l 1306 403 l 1306 132 q 1267 40 1306 78 q 1175 1 1229 1 l 468 1 l 468 403 m 469 578 l 1304 578 l 1304 446 l 469 446 l 469 578 m 469 753 l 1304 753 l 1304 619 l 469 619 l 469 753 m 469 922 l 793 922 l 775 1000 l 985 1000 l 1003 922 l 1304 922 l 1304 789 l 469 789 l 469 922 m 1107 107 q 1123 113 1117 107 q 1129 128 1129 119 l 1129 297 l 644 297 l 644 107 l 1107 107 z "},"俩":{"ha":1389,"x_min":94,"x_max":1293,"o":"m 465 799 l 689 799 l 701 882 l 482 882 l 482 999 l 1275 999 l 1275 882 l 1082 882 l 1072 799 l 1153 799 q 1252 758 1211 799 q 1293 658 1293 717 l 1293 139 q 1252 40 1293 82 q 1153 -1 1211 -1 l 1014 -1 l 1069 125 l 1106 125 q 1135 130 1125 125 q 1146 150 1146 135 l 1146 160 l 1044 160 l 1017 326 l 997 160 l 790 160 l 763 338 l 738 160 l 626 160 l 626 -1 l 465 -1 l 465 799 m 268 1003 l 463 1003 l 356 760 l 413 760 l 413 -1 l 226 -1 l 226 610 l 94 610 l 268 1003 m 672 672 l 626 672 l 626 342 l 672 672 m 847 554 l 883 344 l 922 672 l 807 672 l 792 554 l 847 554 m 938 799 l 947 882 l 836 882 l 825 799 l 938 799 m 1101 554 l 1146 293 l 1146 632 q 1134 660 1146 649 q 1106 672 1122 672 l 1057 672 l 1043 554 l 1101 554 z "},"俭":{"ha":1389,"x_min":83,"x_max":1304,"o":"m 453 125 l 1017 125 l 1107 457 l 1286 457 l 1194 125 l 1304 125 l 1304 1 l 453 1 l 453 125 m 258 1001 l 468 1001 l 360 758 l 418 758 l 418 -3 l 217 -3 l 217 608 l 83 608 l 258 1001 m 560 1003 l 1210 1003 l 1301 674 l 1114 674 l 1050 868 l 719 868 l 657 674 l 453 674 l 560 1003 m 468 638 l 1286 638 l 1286 499 l 468 499 l 468 638 m 649 457 l 733 169 l 556 169 l 471 457 l 649 457 m 888 457 l 972 169 l 794 169 l 710 457 l 888 457 z "},"修":{"ha":1389,"x_min":81,"x_max":1307,"o":"m 618 558 q 797 583 708 565 q 636 806 685 678 l 799 806 q 974 640 868 703 q 1157 840 1121 711 l 599 840 l 672 1006 l 856 1006 l 836 963 l 1307 963 l 1307 840 q 1153 572 1275 671 q 1307 549 1226 556 l 1307 413 q 982 478 1132 422 q 817 435 906 450 q 618 413 729 421 l 618 558 m 256 999 l 435 999 l 326 756 l 369 756 l 369 -6 l 214 -6 l 214 606 l 81 606 l 256 999 m 421 756 l 576 756 l 576 143 l 421 143 l 421 756 m 617 97 l 1307 132 l 1307 36 l 617 1 l 617 97 m 617 222 l 1307 257 l 1307 163 l 617 126 l 617 222 m 617 351 l 1307 386 l 1307 292 l 617 256 l 617 351 z "},"俯":{"ha":1389,"x_min":82,"x_max":1306,"o":"m 485 153 l 485 921 l 789 921 l 756 999 l 981 999 l 1015 921 l 1301 921 l 1301 815 l 646 815 l 646 538 l 751 765 l 913 765 l 835 600 l 878 600 l 878 3 l 724 3 l 724 489 l 646 489 l 646 153 l 578 1 l 418 1 l 485 153 m 249 990 l 450 990 l 346 757 l 401 757 l 401 4 l 208 4 l 208 614 l 82 614 l 249 990 m 906 690 l 1100 690 l 1100 771 l 1257 771 l 1257 690 l 1306 690 l 1306 599 l 1257 599 l 1257 115 q 1233 31 1257 57 q 1154 4 1208 4 l 967 4 l 1019 97 l 1072 97 q 1094 106 1089 97 q 1100 133 1100 115 l 1100 206 l 975 206 l 908 432 l 1038 432 l 1100 221 l 1100 599 l 906 599 l 906 690 z "},"俱":{"ha":1389,"x_min":83,"x_max":1304,"o":"m 443 317 l 496 317 l 496 990 l 1129 990 q 1222 951 1183 990 q 1260 858 1260 913 l 1260 317 l 1304 317 l 1304 213 l 443 213 l 443 317 m 250 993 l 451 993 l 349 760 l 403 760 l 403 7 l 211 7 l 211 617 l 83 617 l 250 993 m 528 167 l 724 167 l 649 7 l 451 7 l 528 167 m 1067 317 l 1067 379 l 689 379 l 689 317 l 1067 317 m 1067 479 l 1067 551 l 689 551 l 689 479 l 1067 479 m 1067 650 l 1067 722 l 689 722 l 689 650 l 1067 650 m 1067 821 l 1067 850 q 1057 875 1067 865 q 1032 885 1047 885 l 689 885 l 689 821 l 1067 821 m 1214 167 l 1289 7 l 1092 7 l 1017 167 l 1214 167 z "},"俺":{"ha":1389,"x_min":85,"x_max":1304,"o":"m 928 0 q 819 44 863 0 q 775 153 775 89 l 775 174 l 469 174 l 469 667 l 775 667 l 775 733 l 968 733 l 968 667 l 1279 667 l 1279 326 q 1235 217 1279 261 q 1126 174 1190 174 l 969 174 q 984 148 972 158 q 1011 138 996 138 l 1276 138 l 1226 0 l 928 0 m 261 1001 l 463 1001 l 350 749 l 404 749 l 404 0 l 213 0 l 213 606 l 85 606 l 261 1001 m 575 801 l 464 801 l 464 939 l 744 939 l 744 1001 l 938 1001 l 938 939 l 1304 939 l 1304 801 l 1217 801 l 1304 699 l 1097 699 l 1008 801 l 782 801 l 669 699 l 463 699 l 575 801 m 775 311 l 775 358 l 661 358 l 661 311 l 775 311 m 775 481 l 775 529 l 661 529 l 661 481 l 775 481 m 1043 311 q 1074 324 1061 311 q 1086 354 1086 336 l 1086 358 l 968 358 l 968 311 l 1043 311 m 1086 481 l 1086 529 l 968 529 l 968 481 l 1086 481 z "},"倍":{"ha":1389,"x_min":85,"x_max":1304,"o":"m 213 613 l 85 613 l 251 989 l 453 989 l 350 756 l 406 756 l 406 3 l 213 3 l 213 613 m 475 632 l 636 632 l 572 771 l 756 771 l 818 632 l 994 632 l 1058 771 l 1240 771 l 1178 632 l 1304 632 l 1304 526 l 475 526 l 475 632 m 475 910 l 806 910 l 767 997 l 992 997 l 1031 910 l 1304 910 l 1304 804 l 475 804 l 475 910 m 506 443 l 1274 443 l 1274 163 q 1228 54 1274 99 q 1122 10 1183 10 l 506 10 l 506 443 m 1042 122 q 1072 135 1060 122 q 1085 165 1085 147 l 1085 331 l 694 331 l 694 122 l 1042 122 z "},"倒":{"ha":1389,"x_min":83,"x_max":1304,"o":"m 194 613 l 83 613 l 250 988 l 436 988 l 332 756 l 372 756 l 372 1 l 194 1 l 194 613 m 526 878 l 436 878 l 436 993 l 911 993 l 911 878 l 688 878 l 610 671 l 756 671 l 740 747 l 893 747 l 933 529 l 783 529 l 779 551 l 413 551 l 526 878 m 418 110 l 588 110 l 588 283 l 435 283 l 435 400 l 588 400 l 588 493 l 768 493 l 768 400 l 903 400 l 903 283 l 768 283 l 768 110 l 919 110 l 919 -7 l 418 -7 l 418 110 m 960 950 l 1094 950 l 1094 175 l 960 175 l 960 950 m 1050 121 l 1100 121 q 1126 132 1115 121 q 1138 158 1138 143 l 1138 1007 l 1304 1007 l 1304 122 q 1270 39 1304 72 q 1186 6 1236 6 l 1007 6 l 1050 121 z "},"倔":{"ha":1389,"x_min":83,"x_max":1304,"o":"m 475 140 l 475 1001 l 1304 1001 l 1304 785 q 1266 692 1304 729 q 1174 654 1228 654 l 653 654 l 653 140 l 590 -1 l 413 -1 l 475 140 m 260 1000 l 461 1000 l 349 747 l 404 747 l 404 -1 l 211 -1 l 211 604 l 83 604 l 260 1000 m 1076 765 q 1101 775 1092 765 q 1111 800 1111 785 l 1111 889 l 653 889 l 653 765 l 1076 765 m 683 276 l 844 276 l 844 136 l 910 136 l 910 326 l 690 326 l 690 564 l 853 564 l 853 463 l 910 463 l 910 626 l 1072 626 l 1072 463 l 1094 463 q 1119 473 1110 463 q 1129 499 1129 483 l 1129 564 l 1292 564 l 1292 457 q 1253 364 1292 401 q 1160 326 1215 326 l 1072 326 l 1072 136 l 1101 136 q 1127 146 1117 136 q 1138 171 1138 156 l 1138 276 l 1299 276 l 1299 129 q 1260 37 1299 75 q 1168 -1 1222 -1 l 683 -1 l 683 276 z "},"倘":{"ha":1389,"x_min":86,"x_max":1301,"o":"m 482 711 l 792 711 l 792 1000 l 978 1000 l 978 711 l 1150 711 q 1258 667 1215 711 q 1301 558 1301 622 l 1301 151 q 1256 44 1301 88 q 1150 0 1211 0 l 1003 0 l 1026 104 l 1083 104 q 1114 117 1101 104 q 1126 147 1126 129 l 1126 551 q 1114 583 1126 571 q 1083 596 1101 596 l 657 596 l 657 0 l 482 0 l 482 711 m 253 992 l 454 992 l 351 760 l 406 760 l 406 6 l 214 6 l 214 617 l 86 617 l 253 992 m 647 983 l 742 776 l 563 776 l 468 983 l 647 983 m 710 532 l 1074 532 l 1074 276 q 1033 178 1074 217 q 935 139 993 139 l 710 139 l 710 532 m 899 240 q 927 252 915 240 q 939 281 939 264 l 939 431 l 844 431 l 844 240 l 899 240 m 1113 983 l 1292 983 l 1196 776 l 1017 776 l 1113 983 z "},"候":{"ha":1389,"x_min":86,"x_max":1301,"o":"m 978 182 l 858 7 l 647 7 l 814 243 l 622 243 l 622 368 l 881 368 l 881 482 l 633 482 l 711 643 l 913 643 l 896 607 l 1297 607 l 1297 482 l 1063 482 l 1063 368 l 1297 368 l 1297 243 l 1133 243 l 1296 1 l 1092 1 l 978 182 m 253 996 l 454 996 l 350 763 l 406 763 l 406 10 l 213 10 l 213 619 l 86 619 l 253 996 m 439 888 l 588 888 l 588 75 l 439 75 l 439 888 m 622 810 l 1069 810 l 1069 843 q 1060 866 1069 857 q 1038 875 1050 875 l 671 875 l 671 1000 l 1146 1000 q 1228 966 1194 1000 q 1261 885 1261 932 l 1261 810 l 1301 810 l 1301 686 l 622 686 l 622 810 z "},"倚":{"ha":1389,"x_min":89,"x_max":1299,"o":"m 1019 126 l 1050 126 q 1081 139 1068 126 q 1093 171 1093 151 l 1093 478 l 468 478 l 468 578 l 1290 578 l 1290 478 l 1256 478 l 1256 157 q 1211 49 1256 92 q 1103 6 1167 6 l 958 6 l 1019 126 m 256 993 l 457 993 l 354 761 l 410 761 l 410 7 l 217 7 l 217 618 l 89 618 l 256 993 m 699 808 l 493 808 l 493 936 l 796 936 l 796 996 l 997 996 l 997 936 l 1299 936 l 1299 808 l 1092 808 l 1299 629 l 1061 629 l 900 775 l 722 625 l 485 625 l 699 808 m 506 421 l 1019 421 l 1019 239 q 978 140 1019 181 q 879 100 938 100 l 506 100 l 506 421 m 807 201 q 835 213 824 201 q 847 242 847 225 l 847 318 l 678 318 l 678 201 l 807 201 z "},"借":{"ha":1389,"x_min":94,"x_max":1293,"o":"m 485 499 l 1267 499 l 1267 174 q 1222 53 1267 103 q 1115 4 1178 4 l 485 4 l 485 499 m 261 992 l 463 992 l 360 758 l 414 758 l 414 4 l 222 4 l 222 615 l 94 615 l 261 992 m 464 663 l 618 663 l 618 776 l 500 776 l 500 894 l 618 894 l 618 996 l 810 996 l 810 894 l 946 894 l 946 996 l 1138 996 l 1138 894 l 1257 894 l 1257 776 l 1138 776 l 1138 663 l 1293 663 l 1293 547 l 464 547 l 464 663 m 1031 121 q 1063 135 1050 121 q 1075 169 1075 149 l 1075 196 l 678 196 l 678 121 l 1031 121 m 1075 313 l 1075 382 l 678 382 l 678 313 l 1075 313 m 946 663 l 946 776 l 810 776 l 810 663 l 946 663 z "},"倡":{"ha":1389,"x_min":82,"x_max":1306,"o":"m 450 488 l 1306 488 l 1306 176 q 1261 56 1306 106 q 1154 7 1217 7 l 450 7 l 450 488 m 249 993 l 450 993 l 347 760 l 401 760 l 401 7 l 210 7 l 210 617 l 82 617 l 249 993 m 489 994 l 1272 994 l 1272 701 q 1229 586 1272 635 q 1124 538 1186 538 l 489 538 l 489 994 m 1069 124 q 1101 138 1089 124 q 1114 171 1114 151 l 1114 192 l 643 192 l 643 124 l 1069 124 m 1114 308 l 1114 372 l 643 372 l 643 308 l 1114 308 m 1043 650 q 1073 664 1061 650 q 1085 697 1085 678 l 1085 713 l 675 713 l 675 650 l 1043 650 m 1085 825 l 1085 882 l 675 882 l 675 825 l 1085 825 z "},"倦":{"ha":1389,"x_min":86,"x_max":1301,"o":"m 683 -6 q 574 39 618 -6 q 531 147 531 83 l 531 410 l 421 410 l 531 574 l 467 574 l 467 679 l 601 679 l 644 742 l 482 742 l 482 847 l 543 847 l 492 971 l 688 971 l 731 871 l 824 1007 l 1049 1007 l 942 847 l 1008 847 l 1093 971 l 1288 971 l 1213 847 l 1281 847 l 1281 742 l 871 742 l 829 679 l 1296 679 l 1296 574 l 1211 574 l 1301 411 l 1242 411 l 1242 296 q 1206 209 1242 244 q 1118 174 1169 174 l 864 174 l 919 285 l 1021 285 q 1040 292 1032 285 q 1049 311 1049 300 l 1049 368 l 724 368 l 724 160 q 737 126 724 142 q 767 111 750 111 l 1297 111 l 1251 -6 l 683 -6 m 253 992 l 454 992 l 350 758 l 406 758 l 406 6 l 213 6 l 213 615 l 86 615 l 253 992 m 1063 481 l 1017 574 l 758 574 l 696 481 l 1063 481 z "},"债":{"ha":1389,"x_min":85,"x_max":1304,"o":"m 919 149 l 739 8 l 482 8 l 790 256 l 790 417 l 958 417 l 958 213 l 1047 213 l 1075 189 l 1075 406 q 1063 436 1075 424 q 1031 449 1050 449 l 690 449 l 690 179 l 497 179 l 497 556 l 1115 556 q 1224 511 1181 556 q 1267 403 1267 467 l 1267 179 l 1086 179 l 1296 0 l 1093 0 l 919 149 m 251 994 l 453 994 l 350 761 l 404 761 l 404 8 l 213 8 l 213 618 l 85 618 l 251 994 m 471 686 l 792 686 l 792 728 l 510 728 l 510 813 l 792 813 l 792 854 l 472 854 l 472 947 l 792 947 l 792 1001 l 985 1001 l 985 947 l 1304 947 l 1304 854 l 985 854 l 985 813 l 1264 813 l 1264 728 l 985 728 l 985 686 l 1303 686 l 1303 594 l 471 594 l 471 686 z "},"值":{"ha":1389,"x_min":88,"x_max":1301,"o":"m 438 113 l 481 113 l 481 767 l 768 767 l 768 821 l 456 821 l 456 921 l 768 921 l 768 975 l 957 975 l 957 921 l 1269 921 l 1269 821 l 957 821 l 957 767 l 1092 767 q 1199 721 1156 767 q 1243 614 1243 675 l 1243 113 l 1301 113 l 1301 7 l 438 7 l 438 113 m 254 993 l 456 993 l 353 760 l 407 760 l 407 7 l 215 7 l 215 618 l 88 618 l 254 993 m 1054 113 l 1054 174 l 669 174 l 669 113 l 1054 113 m 1054 275 l 1054 336 l 669 336 l 669 275 l 1054 275 m 1054 436 l 1054 497 l 669 497 l 669 436 l 1054 436 m 1054 599 l 1054 617 q 1042 649 1054 636 q 1011 661 1029 661 l 669 661 l 669 599 l 1054 599 z "},"倾":{"ha":1389,"x_min":83,"x_max":1306,"o":"m 882 175 l 772 175 l 772 807 l 913 807 l 947 900 l 772 900 l 772 1003 l 1306 1003 l 1306 900 l 1129 900 l 1094 807 l 1157 807 q 1262 763 1218 807 q 1306 654 1306 719 l 1306 175 l 1204 175 l 1296 -1 l 1156 -1 l 1053 199 l 942 -3 l 786 -3 l 882 175 m 250 993 l 451 993 l 347 761 l 403 761 l 403 7 l 210 7 l 210 618 l 83 618 l 250 993 m 476 938 l 650 938 l 650 806 l 732 806 l 732 694 l 650 694 l 650 208 q 662 180 650 192 q 689 168 674 168 l 743 168 l 667 53 l 607 53 q 515 91 553 53 q 476 183 476 129 l 476 938 m 968 333 l 968 596 l 1107 596 l 1107 317 l 1132 317 l 1157 268 l 1157 626 q 1144 657 1157 644 q 1114 669 1132 669 l 921 669 l 921 246 l 968 333 z "},"假":{"ha":1389,"x_min":85,"x_max":1304,"o":"m 468 1003 l 861 1003 l 861 658 q 823 566 861 604 q 731 528 785 528 l 621 528 l 621 453 l 861 453 l 861 315 l 621 315 l 621 208 l 861 208 l 861 72 l 621 72 l 621 1 l 468 1 l 468 1003 m 251 1003 l 453 1003 l 349 760 l 404 760 l 404 1 l 211 1 l 211 611 l 85 611 l 251 1003 m 672 665 q 694 674 685 665 q 703 694 703 682 l 703 865 l 621 865 l 621 665 l 672 665 m 889 140 q 994 194 943 163 q 897 383 929 274 l 1054 383 q 1097 292 1067 339 q 1156 428 1136 347 l 889 428 l 889 565 l 1304 565 l 1304 428 q 1200 193 1288 296 q 1304 144 1239 171 l 1304 -1 q 1099 99 1178 42 q 889 -1 1006 31 l 889 140 m 892 750 l 1097 750 q 1130 763 1117 750 q 1143 793 1143 775 l 1143 861 l 892 861 l 892 1003 l 1304 1003 l 1304 760 q 1258 652 1304 696 q 1143 608 1211 608 l 892 608 l 892 750 z "},"偎":{"ha":1389,"x_min":83,"x_max":1304,"o":"m 665 0 q 557 44 601 0 q 513 151 513 89 l 513 324 l 438 324 l 438 461 l 1304 461 l 1304 324 l 706 324 l 706 161 q 718 131 706 143 q 750 118 731 118 l 842 118 l 886 0 l 665 0 m 264 1000 l 465 1000 l 349 739 l 404 739 l 404 0 l 211 0 l 211 596 l 83 596 l 264 1000 m 483 1000 l 1257 1000 l 1257 639 q 1213 530 1257 574 q 1104 486 1168 486 l 483 486 l 483 1000 m 774 624 l 774 675 l 676 675 l 676 624 l 774 624 m 774 813 l 774 863 l 676 863 l 676 813 l 774 813 m 1007 281 l 1065 222 l 1108 281 l 1292 281 l 1172 117 l 1292 0 l 1093 0 l 807 281 l 1007 281 m 1021 624 q 1051 636 1039 624 q 1064 668 1064 649 l 1064 675 l 967 675 l 967 624 l 1021 624 m 1064 813 l 1064 863 l 967 863 l 967 813 l 1064 813 z "},"偏":{"ha":1389,"x_min":82,"x_max":1306,"o":"m 193 608 l 82 608 l 228 1001 l 401 1001 l 313 757 l 360 757 l 360 4 l 408 158 l 408 936 l 763 936 l 740 1003 l 933 1003 l 957 936 l 1285 936 l 1285 714 q 1274 654 1285 679 q 1240 604 1264 628 q 1190 571 1222 586 q 1132 560 1161 560 l 575 560 l 575 158 l 525 -3 l 193 -3 l 193 608 m 1075 693 q 1107 706 1093 693 q 1118 738 1118 719 l 1118 801 l 575 801 l 575 693 l 1075 693 m 603 515 l 1192 515 q 1273 482 1240 515 q 1306 400 1306 449 l 1306 118 q 1271 31 1306 64 q 1178 -3 1233 -3 l 1150 -3 l 1106 107 l 1132 107 q 1151 117 1143 107 q 1161 133 1161 125 l 1161 174 l 1103 174 l 1103 -3 l 983 -3 l 983 174 l 925 174 l 925 -3 l 806 -3 l 806 174 l 750 174 l 750 -3 l 603 -3 l 603 515 m 806 285 l 806 378 l 750 378 l 750 285 l 806 285 m 983 285 l 983 378 l 925 378 l 925 285 l 983 285 m 1161 285 l 1161 347 q 1133 378 1161 378 l 1103 378 l 1103 285 l 1161 285 z "},"做":{"ha":1389,"x_min":85,"x_max":1304,"o":"m 840 193 q 978 335 926 272 q 861 661 892 469 l 1021 661 q 1047 559 1035 599 q 1072 488 1058 519 q 1108 592 1092 533 q 1143 742 1124 651 l 839 742 l 910 1003 l 1081 1003 l 1047 879 l 1300 879 l 1300 742 q 1253 523 1286 622 q 1167 336 1221 424 q 1304 197 1214 283 l 1304 -1 q 1071 210 1160 110 q 840 -1 976 101 l 840 193 m 229 1001 l 404 1001 l 314 758 l 363 758 l 363 -1 l 194 -1 l 194 610 l 85 610 l 229 1001 m 411 511 l 529 511 l 529 711 l 411 711 l 411 849 l 529 849 l 529 1003 l 704 1003 l 704 849 l 822 849 l 822 711 l 704 711 l 704 511 l 822 511 l 822 129 q 783 37 822 75 q 692 -1 744 -1 l 411 -1 l 411 511 m 636 136 q 658 145 649 136 q 667 167 667 154 l 667 374 l 572 374 l 572 136 l 636 136 z "},"停":{"ha":1389,"x_min":83,"x_max":1304,"o":"m 711 119 l 740 119 q 773 132 760 119 q 786 163 786 144 l 786 199 l 514 199 l 514 258 l 469 258 l 469 474 l 1190 474 q 1275 440 1246 474 q 1304 351 1304 407 l 1304 258 l 1260 258 l 1260 199 l 993 199 l 993 151 q 944 44 993 88 q 829 0 896 0 l 654 0 l 711 119 m 261 1001 l 475 1001 l 365 758 l 424 758 l 424 0 l 219 0 l 219 610 l 83 610 l 261 1001 m 469 963 l 758 963 l 742 1001 l 958 1001 l 975 963 l 1304 963 l 1304 847 l 469 847 l 469 963 m 489 804 l 1285 804 l 1285 629 q 1242 542 1285 569 q 1128 515 1199 515 l 489 515 l 489 804 m 1106 314 l 1106 326 q 1096 348 1106 339 q 1074 357 1086 357 l 668 357 l 668 314 l 1106 314 m 1046 617 q 1075 627 1064 617 q 1086 656 1086 638 l 1086 703 l 688 703 l 688 617 l 1046 617 z "},"健":{"ha":1389,"x_min":78,"x_max":1310,"o":"m 490 246 l 433 322 l 508 322 l 543 475 l 429 475 l 538 858 l 444 858 l 444 979 l 742 979 l 632 594 l 726 594 l 651 282 l 778 118 l 1310 118 l 1310 1 l 672 1 l 606 90 l 583 0 l 433 0 l 490 246 m 244 1003 l 431 1003 l 328 765 l 382 765 l 382 -3 l 206 -3 l 206 619 l 78 619 l 244 1003 m 743 803 l 939 803 l 939 868 l 782 868 l 782 972 l 939 972 l 939 1003 l 1086 1003 l 1086 972 l 1281 972 l 1281 803 l 1310 803 l 1310 697 l 1281 697 l 1281 651 q 1242 558 1281 596 q 1149 521 1204 521 l 1086 521 l 1086 457 l 1276 457 l 1276 351 l 1086 351 l 1086 288 l 1289 288 l 1289 182 l 1086 182 l 1086 139 l 939 139 l 939 182 l 768 182 l 768 288 l 939 288 l 939 351 l 782 351 l 782 457 l 939 457 l 939 521 l 782 521 l 782 625 l 939 625 l 939 697 l 743 697 l 743 803 m 1110 625 q 1133 635 1124 625 q 1143 658 1143 644 l 1143 697 l 1086 697 l 1086 625 l 1110 625 m 1143 803 l 1143 868 l 1086 868 l 1086 803 l 1143 803 z "},"偶":{"ha":1389,"x_min":83,"x_max":1306,"o":"m 443 449 l 775 449 l 775 501 l 463 501 l 463 1003 l 497 1003 l 497 1004 l 1278 1004 l 1278 1003 l 1286 1003 l 1286 632 q 1276 583 1286 607 q 1247 542 1264 557 q 1206 513 1229 524 q 1156 501 1183 501 l 967 501 l 967 449 l 1192 449 q 1273 415 1240 449 q 1306 335 1306 382 l 1306 149 q 1296 89 1306 114 q 1263 42 1282 61 q 1213 8 1240 21 q 1153 -3 1183 -3 l 968 -3 l 1014 100 l 1089 100 q 1119 114 1107 100 q 1132 143 1132 125 l 1132 289 q 1124 318 1132 311 q 1100 325 1115 325 l 967 325 l 967 256 l 990 257 l 988 294 l 1097 294 l 1115 133 l 1006 133 l 1004 149 l 650 129 l 650 239 l 775 247 l 775 325 l 622 325 l 622 -3 l 443 -3 l 443 449 m 239 1003 l 426 1003 l 329 758 l 381 758 l 381 -3 l 201 -3 l 201 608 l 83 608 l 239 1003 m 775 628 l 775 706 l 642 706 l 642 628 l 775 628 m 775 808 l 775 879 l 642 879 l 642 808 l 775 808 m 1076 628 q 1099 638 1089 628 q 1108 658 1108 646 l 1108 706 l 967 706 l 967 628 l 1076 628 m 1108 808 l 1108 879 l 967 879 l 967 808 l 1108 808 z "},"偷":{"ha":1389,"x_min":82,"x_max":1306,"o":"m 210 610 l 82 610 l 250 1003 l 453 1003 l 347 758 l 403 758 l 403 -1 l 210 -1 l 210 610 m 561 1003 l 1189 1003 l 1306 782 l 1124 782 l 1068 885 l 683 885 l 628 782 l 442 782 l 561 1003 m 464 594 l 829 594 q 888 571 864 594 q 911 513 911 547 l 911 118 q 878 28 911 60 q 782 -1 844 -1 l 681 -1 l 725 94 l 740 94 q 760 113 760 94 l 760 133 l 621 133 l 621 -1 l 464 -1 l 464 594 m 464 744 l 1293 744 l 1293 638 l 464 638 l 464 744 m 760 233 l 760 322 l 621 322 l 621 233 l 760 233 m 760 422 l 760 458 l 760 465 q 756 490 760 483 q 733 496 751 496 l 621 496 l 621 422 l 760 422 m 950 568 l 1093 568 l 1093 139 l 950 139 l 950 568 m 1057 115 l 1089 115 q 1121 126 1110 115 q 1135 157 1135 136 l 1135 594 l 1293 594 l 1293 146 q 1281 89 1293 118 q 1246 42 1264 58 q 1196 11 1219 21 q 1133 0 1169 0 l 1001 0 l 1057 115 z "},"偿":{"ha":1389,"x_min":85,"x_max":1304,"o":"m 211 610 l 85 610 l 251 1001 l 453 1001 l 349 758 l 404 758 l 404 -1 l 211 -1 l 211 610 m 444 421 l 1304 421 l 1304 283 l 753 283 l 717 172 l 1082 172 l 1069 228 l 1257 228 l 1304 -1 l 1117 -1 l 1111 26 l 471 25 l 549 283 l 444 283 l 444 421 m 444 908 l 532 908 l 493 994 l 697 994 l 736 908 l 772 908 l 772 1001 l 976 1001 l 976 908 l 1011 908 l 1053 994 l 1257 994 l 1214 906 q 1278 865 1253 896 q 1304 792 1304 833 l 1304 724 l 1100 724 l 1100 740 q 1091 762 1100 753 q 1069 771 1082 771 l 650 771 l 650 724 l 444 724 l 444 908 m 461 669 l 1288 669 l 1288 532 l 461 532 l 461 669 z "},"傅":{"ha":1389,"x_min":83,"x_max":1304,"o":"m 471 808 l 790 808 l 790 849 l 471 849 l 471 947 l 790 947 l 790 1000 l 983 1000 l 983 947 l 1099 947 l 1079 1000 l 1246 1000 l 1304 849 l 983 849 l 983 808 l 1151 808 q 1226 787 1190 808 q 1283 730 1261 765 q 1304 656 1304 694 l 1304 343 l 1111 343 l 1111 396 l 983 396 l 983 343 l 790 343 l 790 396 l 664 396 l 664 343 l 471 343 l 471 808 m 251 1000 l 453 1000 l 349 757 l 404 757 l 404 0 l 211 0 l 211 608 l 83 608 l 251 1000 m 471 283 l 1021 283 l 1021 318 l 1213 318 l 1213 283 l 1304 283 l 1304 185 l 1213 185 l 1213 151 q 1169 44 1213 89 q 1061 0 1125 0 l 883 0 l 949 97 l 976 97 q 1008 110 996 97 q 1021 142 1021 124 l 1021 185 l 471 185 l 471 283 m 732 158 l 824 19 l 632 19 l 539 158 l 732 158 m 790 496 l 790 551 l 664 551 l 664 496 l 790 496 m 790 651 l 790 708 l 664 708 l 664 651 l 790 651 m 1111 496 l 1111 551 l 983 551 l 983 496 l 1111 496 m 1111 651 l 1111 665 q 1099 696 1111 683 q 1068 708 1086 708 l 983 708 l 983 651 l 1111 651 z "},"傍":{"ha":1389,"x_min":85,"x_max":1304,"o":"m 586 381 l 471 381 l 471 499 l 800 499 l 800 549 l 975 549 l 975 499 l 1304 499 l 1304 381 l 783 381 l 765 321 l 1304 321 l 1304 149 q 1260 42 1304 85 q 1154 0 1215 0 l 918 0 l 967 117 l 1100 117 q 1119 125 1111 117 q 1128 146 1128 133 l 1128 203 l 729 203 l 668 0 l 471 0 l 586 381 m 251 1000 l 453 1000 l 349 757 l 404 757 l 404 0 l 211 0 l 211 608 l 85 608 l 251 1000 m 471 722 l 571 722 l 539 801 l 715 801 l 746 722 l 1029 722 l 1060 801 l 1236 801 l 1204 721 q 1276 683 1247 715 q 1304 607 1304 651 l 1304 533 l 1128 533 l 1128 586 q 1111 604 1128 604 l 647 604 l 647 533 l 471 533 l 471 722 m 471 956 l 800 956 l 790 1000 l 967 1000 l 976 956 l 1304 956 l 1304 838 l 471 838 l 471 956 z "},"储":{"ha":1389,"x_min":85,"x_max":1304,"o":"m 714 386 l 650 386 l 724 558 l 650 558 l 650 682 l 893 682 l 893 822 l 665 822 l 665 946 l 893 946 l 893 1001 l 1061 1001 l 1061 946 l 1289 946 l 1289 822 l 1061 822 l 1061 682 l 1103 682 l 1129 783 l 1282 783 l 1256 682 l 1304 682 l 1304 558 l 893 558 l 874 511 l 1286 511 l 1286 153 q 1242 46 1286 90 q 1133 1 1197 1 l 714 1 l 714 386 m 224 1001 l 392 1001 l 306 758 l 351 758 l 351 1 l 190 1 l 190 610 l 85 610 l 224 1001 m 393 699 l 622 699 l 622 160 q 633 129 622 142 q 658 117 643 117 l 694 117 l 649 -1 l 589 -1 q 499 42 536 -1 q 461 150 461 86 l 461 561 l 393 561 l 393 699 m 568 972 l 614 746 l 443 746 l 397 972 l 568 972 m 1063 124 q 1093 136 1081 124 q 1106 168 1106 149 l 1106 197 l 894 197 l 894 124 l 1063 124 m 1106 322 l 1106 386 l 894 386 l 894 322 l 1106 322 z "},"催":{"ha":1389,"x_min":83,"x_max":1304,"o":"m 217 643 l 83 643 l 257 1001 l 485 1001 l 367 758 l 417 758 l 417 467 l 535 668 l 722 668 l 692 615 l 872 615 l 851 664 l 1076 664 l 1099 615 l 1304 615 l 1304 518 l 1099 518 l 1099 442 l 1304 442 l 1304 346 l 1099 346 l 1099 269 l 1304 269 l 1304 172 l 1099 172 l 1099 96 l 1304 96 l 1304 0 l 679 0 l 679 96 l 910 96 l 910 172 l 679 172 l 679 269 l 910 269 l 910 346 l 679 346 l 679 442 l 910 442 l 910 518 l 679 518 l 679 593 l 628 506 l 642 506 l 642 0 l 479 0 l 479 450 l 417 450 l 417 0 l 217 0 l 217 643 m 518 1001 l 707 1001 l 707 790 l 815 790 l 815 1001 l 1004 1001 l 1004 790 l 1090 790 q 1107 797 1100 790 q 1114 813 1114 803 l 1114 1001 l 1303 1001 l 1303 849 q 1258 740 1303 783 q 1150 697 1214 697 l 518 697 l 518 1001 z "},"傲":{"ha":1389,"x_min":85,"x_max":1304,"o":"m 443 457 l 388 457 l 388 581 l 533 581 l 533 643 l 388 643 l 388 767 l 533 767 l 533 821 l 388 821 l 388 944 l 533 944 l 533 1000 l 696 1000 l 696 944 l 842 944 l 842 821 l 696 821 l 696 767 l 842 767 l 842 643 l 696 643 l 696 581 l 842 581 l 842 457 l 606 457 l 597 393 l 842 393 l 842 269 l 840 269 l 840 151 q 796 44 840 89 q 688 0 751 0 l 569 0 l 614 122 l 635 122 q 665 135 653 122 q 678 165 678 147 l 678 269 l 582 269 l 550 0 l 388 0 l 443 457 m 225 1000 l 394 1000 l 307 757 l 354 757 l 354 0 l 192 0 l 192 608 l 85 608 l 225 1000 m 917 1000 l 1079 1000 l 1057 922 l 1304 922 l 1304 788 q 1171 296 1272 485 q 1304 175 1232 215 l 1304 0 q 1181 76 1233 39 q 1083 167 1129 114 q 985 76 1038 114 q 861 0 933 39 l 861 175 q 994 296 936 215 q 868 729 904 467 l 1010 729 q 1083 456 1032 582 q 1164 788 1143 601 l 858 788 l 917 1000 z "},"傻":{"ha":1389,"x_min":85,"x_max":1304,"o":"m 185 643 l 85 643 l 258 1001 l 485 1001 l 461 951 l 746 951 l 781 999 l 1022 999 l 988 951 l 1304 951 l 1304 676 q 1260 567 1304 611 q 1151 524 1215 524 l 449 524 l 449 926 l 367 758 l 385 758 l 385 0 l 185 0 l 185 643 m 503 388 l 722 388 l 707 364 l 1278 364 l 1278 264 q 1082 124 1188 175 q 1278 111 1147 114 l 1278 0 q 882 50 1085 -3 q 676 14 781 24 q 435 0 572 4 l 435 111 q 667 124 558 111 q 469 232 568 167 l 713 232 q 869 165 783 190 q 1072 264 990 201 l 422 264 l 503 388 m 569 506 l 829 506 l 693 411 l 433 411 l 569 506 m 1072 621 q 1103 633 1090 621 q 1115 664 1115 646 l 1115 854 l 638 854 l 638 621 l 1072 621 m 774 738 l 651 828 l 857 828 l 875 814 l 894 828 l 1100 828 l 978 738 l 1100 647 l 894 647 l 875 661 l 857 647 l 651 647 l 774 738 m 1168 506 l 1304 411 l 1044 411 l 908 506 l 1168 506 z "},"像":{"ha":1389,"x_min":83,"x_max":1304,"o":"m 735 90 l 775 90 q 805 105 793 92 q 817 136 817 118 l 817 150 l 411 11 l 411 114 l 817 253 l 817 299 l 447 172 l 447 276 l 817 401 l 817 417 l 810 440 l 447 326 l 447 429 l 735 519 l 460 519 l 460 778 l 997 778 l 1015 831 l 508 831 l 572 999 l 765 999 l 744 946 l 1249 946 l 1189 778 l 1301 778 l 1301 650 q 1263 558 1301 596 q 1171 519 1225 519 l 975 519 l 1000 436 l 1110 436 l 1131 478 l 1304 478 l 1229 332 l 1168 332 l 1294 25 l 1122 25 l 1014 286 l 1014 149 q 995 79 1014 114 q 942 22 976 44 q 863 0 907 0 l 701 0 l 735 90 m 257 1001 l 456 1001 l 349 758 l 386 758 l 386 0 l 217 0 l 217 610 l 83 610 l 257 1001 m 786 614 l 786 685 l 649 685 l 649 614 l 786 614 m 1069 614 q 1100 626 1088 614 q 1113 657 1113 639 l 1113 685 l 975 685 l 975 614 l 1069 614 z "},"僚":{"ha":1389,"x_min":83,"x_max":1304,"o":"m 706 103 l 743 103 q 774 115 761 103 q 786 146 786 128 l 786 254 l 475 254 l 475 608 l 1283 608 l 1283 407 q 1239 298 1283 342 q 1131 254 1194 254 l 975 254 l 975 151 q 931 44 975 89 q 822 0 886 0 l 743 0 l 706 103 m 260 1000 l 451 1000 l 349 757 l 399 757 l 399 0 l 235 0 l 235 589 l 83 589 l 260 1000 m 551 713 l 513 713 l 463 804 l 647 804 l 661 779 l 747 832 l 463 832 l 463 932 l 785 932 l 785 997 l 974 997 l 974 932 l 1296 932 l 1296 832 l 1006 832 l 935 789 l 1094 789 l 1099 785 l 1110 804 l 1296 804 l 1246 713 l 1200 713 l 1304 636 l 1061 636 l 889 760 l 685 636 l 426 636 l 551 713 m 504 218 l 668 218 l 625 0 l 461 0 l 504 218 m 1076 351 q 1103 360 1092 351 q 1118 383 1114 369 l 639 383 l 639 351 l 1076 351 m 1119 481 l 1119 513 l 639 513 l 639 481 l 1119 481 m 1260 218 l 1304 0 l 1140 0 l 1096 218 l 1260 218 z "},"僧":{"ha":1389,"x_min":83,"x_max":1304,"o":"m 439 900 l 586 900 l 542 1001 l 725 1001 l 769 900 l 964 900 l 1008 1001 l 1192 1001 l 1147 900 l 1304 900 l 1304 546 q 1278 483 1304 508 q 1215 457 1251 457 l 439 457 l 439 900 m 233 1001 l 417 1001 l 322 790 l 372 790 l 372 -1 l 199 -1 l 199 661 l 83 661 l 233 1001 m 463 417 l 1269 417 l 1269 110 q 1237 31 1269 63 q 1157 -1 1204 -1 l 463 -1 l 463 417 m 789 557 l 789 593 l 657 593 l 613 693 l 613 557 l 789 557 m 736 739 l 789 619 l 789 799 l 613 799 l 613 739 l 736 739 m 1064 96 q 1087 106 1078 96 q 1096 129 1096 115 l 1096 154 l 636 154 l 636 96 l 1064 96 m 1096 256 l 1096 314 l 636 314 l 636 256 l 1096 256 m 1118 557 q 1131 576 1131 557 l 1131 715 l 1076 593 l 940 593 l 940 557 l 1118 557 m 997 739 l 1131 739 l 1131 799 l 940 799 l 940 611 l 997 739 z "},"僵":{"ha":1389,"x_min":93,"x_max":1296,"o":"m 225 608 l 93 608 l 226 1000 l 449 1000 l 367 757 l 426 757 l 426 0 l 225 0 l 225 608 m 461 90 l 1296 90 l 1296 0 l 461 0 l 461 90 m 461 546 l 1296 546 l 1296 453 l 461 453 l 461 546 m 461 1000 l 1296 1000 l 1296 908 l 461 908 l 461 1000 m 475 426 l 1282 426 l 1282 228 q 1250 150 1282 182 q 1174 118 1218 118 l 475 118 l 475 426 m 475 881 l 1282 881 l 1282 682 q 1250 606 1282 638 q 1174 574 1218 574 l 475 574 l 475 881 m 783 199 l 783 232 l 664 232 l 664 199 l 783 199 m 783 313 l 783 346 l 664 346 l 664 313 l 783 313 m 783 653 l 783 686 l 664 686 l 664 653 l 783 653 m 783 767 l 783 800 l 664 800 l 664 767 l 783 767 m 1071 199 q 1093 221 1093 199 l 1093 232 l 974 232 l 974 199 l 1071 199 m 1093 313 l 1093 346 l 974 346 l 974 313 l 1093 313 m 1071 653 q 1087 660 1081 653 q 1093 675 1093 667 l 1093 686 l 974 686 l 974 653 l 1071 653 m 1093 767 l 1093 800 l 974 800 l 974 767 l 1093 767 z "},"僻":{"ha":1389,"x_min":85,"x_max":1304,"o":"m 149 753 l 85 753 l 207 1000 l 394 1000 l 374 956 l 869 956 l 869 711 q 836 629 869 664 q 751 594 803 594 l 524 594 l 524 144 l 481 0 l 324 0 l 358 136 l 358 926 l 293 794 l 303 794 l 303 0 l 149 0 l 149 753 m 694 685 q 717 706 717 685 l 717 858 l 522 858 l 522 685 l 694 685 m 560 546 l 865 546 l 865 129 q 827 38 865 75 q 735 0 789 0 l 560 0 l 560 546 m 713 96 q 728 102 722 96 q 735 117 735 108 l 735 429 l 701 429 l 701 96 l 713 96 m 894 285 l 1008 285 l 1008 425 l 894 425 l 894 550 l 1304 550 l 1304 425 l 1197 425 l 1197 285 l 1304 285 l 1304 160 l 1197 160 l 1197 0 l 1008 0 l 1008 160 l 894 160 l 894 285 m 894 936 l 1017 936 l 1001 1000 l 1179 1000 l 1196 936 l 1304 936 l 1304 800 l 894 800 l 894 936 m 1068 760 l 1086 588 l 929 588 l 906 760 l 1068 760 m 1131 760 l 1293 760 l 1269 588 l 1111 588 l 1131 760 z "},"儒":{"ha":1389,"x_min":81,"x_max":1307,"o":"m 469 360 l 763 360 l 789 410 l 469 410 l 469 500 l 1307 500 l 1307 410 l 956 410 l 929 360 l 1225 360 q 1283 335 1260 360 q 1307 276 1307 311 l 1307 85 q 1282 24 1307 49 q 1219 -3 1256 -3 l 1082 -3 l 1107 65 l 1113 65 q 1132 75 1124 65 q 1142 94 1142 81 l 1142 249 q 1124 268 1142 264 l 1068 268 l 1068 -3 l 919 -3 l 919 268 l 854 268 l 854 -3 l 706 -3 l 706 268 l 636 268 l 636 -3 l 469 -3 l 469 360 m 231 1004 l 411 1004 l 317 797 l 367 797 l 367 1 l 194 1 l 194 669 l 81 669 l 231 1004 m 469 861 l 806 861 l 806 914 l 469 914 l 469 1004 l 1307 1004 l 1307 914 l 972 914 l 972 861 l 1201 861 q 1276 829 1244 861 q 1307 753 1307 799 l 1307 525 l 1142 525 l 1142 736 q 1132 758 1142 750 q 1108 768 1124 768 l 972 768 l 972 525 l 806 525 l 806 768 l 636 768 l 636 525 l 469 525 l 469 861 m 674 658 l 650 756 l 753 756 l 781 629 l 754 629 l 776 532 l 676 532 l 647 658 l 674 658 m 1021 658 l 999 756 l 1099 756 l 1128 629 l 1101 629 l 1125 532 l 1024 532 l 994 658 l 1021 658 z "},"儿":{"ha":1389,"x_min":157,"x_max":1231,"o":"m 946 1 q 853 40 890 1 q 815 133 815 78 l 815 1000 l 1004 1000 l 1004 161 q 1017 129 1004 142 q 1049 117 1029 117 l 1231 117 l 1185 1 l 946 1 m 292 231 l 292 997 l 485 997 l 485 215 l 365 1 l 157 1 l 292 231 z "},"允":{"ha":1389,"x_min":99,"x_max":1289,"o":"m 363 467 l 99 467 l 417 999 l 656 999 l 421 596 l 978 596 l 856 831 l 1088 831 l 1289 444 l 1057 444 l 1044 467 l 979 467 l 979 163 q 988 140 979 150 q 1010 131 997 131 l 1276 131 l 1228 3 l 900 3 q 813 38 849 3 q 776 125 776 74 l 776 467 l 597 467 l 336 3 l 103 3 l 363 467 z "},"元":{"ha":1389,"x_min":86,"x_max":1303,"o":"m 951 1 q 853 42 894 1 q 811 140 811 83 l 811 532 l 563 532 l 322 3 l 119 3 l 360 532 l 86 532 l 86 675 l 1301 675 l 1301 532 l 1004 532 l 1004 174 q 1017 143 1004 156 q 1047 131 1029 131 l 1303 131 l 1240 1 l 951 1 m 133 1000 l 1254 1000 l 1254 857 l 133 857 l 133 1000 z "},"兄":{"ha":1389,"x_min":104,"x_max":1285,"o":"m 900 0 q 826 31 857 0 q 796 104 796 61 l 796 396 l 628 396 l 336 4 l 104 4 l 392 396 l 128 396 l 128 1000 l 1231 1000 l 1231 500 q 1201 426 1231 457 q 1128 396 1171 396 l 983 396 l 983 150 q 992 130 983 139 q 1014 121 1001 121 l 1285 121 l 1231 0 l 900 0 m 1029 532 q 1050 541 1042 532 q 1058 561 1058 550 l 1058 864 l 300 864 l 300 532 l 1029 532 z "},"充":{"ha":1389,"x_min":94,"x_max":1294,"o":"m 276 457 l 107 457 l 288 771 l 108 771 l 108 908 l 593 908 l 553 1000 l 744 1000 l 785 908 l 1261 908 l 1261 771 l 486 771 l 385 594 l 1035 594 l 961 725 l 1146 725 l 1294 457 l 1060 457 l 1060 181 q 1072 150 1060 163 q 1103 138 1085 138 l 1294 138 l 1242 0 l 1046 0 q 937 44 981 0 q 893 153 893 89 l 893 457 l 468 457 l 286 0 l 94 0 l 276 457 z "},"兆":{"ha":1389,"x_min":90,"x_max":1297,"o":"m 901 -1 q 793 43 836 -1 q 750 151 750 88 l 750 1001 l 942 1001 l 942 703 l 1042 946 l 1232 946 l 1103 632 l 942 632 l 942 567 l 1103 567 l 1232 168 l 1042 168 l 942 476 l 942 181 q 954 149 942 161 q 986 136 967 136 l 1297 136 l 1250 -1 l 901 -1 m 219 567 l 379 567 l 379 632 l 219 632 l 90 946 l 281 946 l 379 703 l 379 1001 l 572 1001 l 572 122 l 436 -1 l 186 -1 l 379 190 l 379 476 l 281 168 l 90 168 l 219 567 z "},"先":{"ha":1389,"x_min":82,"x_max":1306,"o":"m 271 407 l 82 407 l 82 544 l 614 544 l 614 742 l 119 742 l 189 993 l 386 993 l 356 881 l 614 881 l 614 1001 l 807 1001 l 807 881 l 1271 881 l 1271 742 l 807 742 l 807 544 l 1290 544 l 1290 407 l 1043 407 l 1043 179 q 1056 148 1043 161 q 1086 135 1068 135 l 1306 135 l 1244 -1 l 1003 -1 q 894 42 939 -1 q 850 150 850 85 l 850 407 l 494 407 l 361 -1 l 138 -1 l 271 407 z "},"光":{"ha":1389,"x_min":85,"x_max":1304,"o":"m 297 488 l 85 488 l 85 604 l 597 604 l 597 1001 l 790 1001 l 790 604 l 1304 604 l 1304 488 l 1042 488 l 1042 179 q 1054 149 1042 161 q 1085 136 1067 136 l 1304 136 l 1243 -1 l 1001 -1 q 892 43 936 -1 q 849 151 849 88 l 849 488 l 519 488 l 360 -1 l 136 -1 l 297 488 m 343 938 l 444 671 l 219 671 l 118 938 l 343 938 m 1046 938 l 1271 938 l 1169 671 l 943 671 l 1046 938 z "},"克":{"ha":1389,"x_min":83,"x_max":1304,"o":"m 292 292 l 124 292 l 124 728 l 597 728 l 597 801 l 83 801 l 83 929 l 597 929 l 597 1001 l 790 1001 l 790 929 l 1304 929 l 1304 801 l 790 801 l 790 728 l 1264 728 l 1264 443 q 1219 335 1264 378 q 1111 292 1175 292 l 1036 292 l 1036 181 q 1049 150 1036 163 q 1079 138 1061 138 l 1299 138 l 1239 0 l 1011 0 q 902 44 946 0 q 858 153 858 89 l 858 292 l 500 292 l 404 0 l 197 0 l 292 292 m 1028 419 q 1058 432 1046 419 q 1071 463 1071 444 l 1071 600 l 317 600 l 317 419 l 1028 419 z "},"免":{"ha":1389,"x_min":85,"x_max":1304,"o":"m 421 285 l 97 285 l 97 718 l 964 718 l 996 815 l 143 815 l 225 1000 l 429 1000 l 408 951 l 1219 951 l 1158 721 l 1283 721 l 1283 438 q 1239 328 1283 372 q 1131 285 1194 285 l 994 285 l 994 172 q 1007 142 994 154 q 1038 129 1019 129 l 1304 129 l 1243 3 l 954 3 q 845 47 889 3 q 801 156 801 92 l 801 285 l 675 285 l 339 1 l 85 1 l 421 285 m 593 411 l 593 593 l 290 593 l 290 411 l 593 411 m 1047 411 q 1078 424 1065 411 q 1090 454 1090 436 l 1090 593 l 786 593 l 786 411 l 1047 411 z "},"兑":{"ha":1389,"x_min":139,"x_max":1250,"o":"m 300 338 l 139 338 l 139 864 l 332 864 l 272 999 l 474 999 l 533 864 l 860 864 l 919 999 l 1121 999 l 1061 864 l 1228 864 l 1228 489 q 1183 381 1228 424 q 1075 338 1139 338 l 1008 338 l 1008 182 q 1021 150 1008 163 q 1051 138 1033 138 l 1250 138 l 1189 3 l 968 3 q 859 46 903 3 q 815 153 815 89 l 815 338 l 506 338 l 385 3 l 178 3 l 300 338 m 992 474 q 1022 487 1010 474 q 1035 518 1035 500 l 1035 726 l 331 726 l 331 474 l 992 474 z "},"兔":{"ha":1389,"x_min":86,"x_max":1301,"o":"m 485 385 l 122 385 l 122 753 l 931 753 l 981 811 l 133 811 l 194 1001 l 353 1001 l 339 949 l 1249 949 l 1108 753 l 1261 753 l 1261 538 q 1215 429 1261 474 q 1108 385 1169 385 l 732 385 l 685 338 l 863 338 l 863 182 q 875 150 863 163 q 906 138 888 138 l 1301 138 l 1240 0 l 800 0 q 708 38 746 0 q 669 131 669 75 l 669 322 l 354 0 l 86 0 l 485 385 m 561 522 l 561 615 l 315 615 l 315 522 l 561 522 m 1025 522 q 1056 535 1043 522 q 1068 567 1068 547 l 1068 615 l 763 615 l 763 522 l 1025 522 m 1140 322 l 1211 176 l 1018 176 l 947 322 l 1140 322 z "},"党":{"ha":1389,"x_min":79,"x_max":1310,"o":"m 307 249 l 193 249 l 193 631 l 79 631 l 79 890 l 247 890 l 183 990 l 374 990 l 438 890 l 606 890 l 606 1006 l 783 1006 l 783 890 l 951 890 l 1014 990 l 1204 990 l 1142 890 l 1157 890 q 1266 853 1222 890 q 1310 753 1310 815 l 1310 631 l 1179 631 l 1179 389 q 1142 287 1179 325 q 1040 249 1104 249 l 1018 249 l 1018 176 q 1031 144 1018 157 q 1063 132 1043 132 l 1271 132 l 1210 -6 l 963 -6 q 853 39 897 -6 q 810 147 810 83 l 810 249 l 514 249 l 358 -6 l 154 -6 l 307 249 m 1117 650 l 1117 725 q 1104 756 1117 743 q 1074 768 1092 768 l 272 768 l 272 650 l 1117 650 m 957 361 q 988 374 975 361 q 1000 406 1000 386 l 1000 538 l 368 538 l 368 361 l 957 361 z "},"兜":{"ha":1389,"x_min":92,"x_max":1296,"o":"m 426 953 l 506 953 l 526 1000 l 728 1000 l 707 953 l 946 953 l 946 531 q 901 422 946 465 q 793 379 857 379 l 426 379 l 426 953 m 92 969 l 403 969 l 403 832 l 285 832 l 285 529 q 297 497 285 510 q 328 485 310 485 l 403 485 l 403 347 l 244 347 q 135 392 179 347 q 92 500 92 436 l 92 969 m 329 317 l 521 317 l 336 0 l 143 0 l 329 317 m 710 515 q 740 528 728 515 q 753 560 753 540 l 753 597 l 619 597 l 619 515 l 710 515 m 753 735 l 753 815 l 619 815 l 619 735 l 753 735 m 810 317 l 1003 317 l 1003 179 q 1015 148 1003 161 q 1046 135 1028 135 l 1296 135 l 1246 0 l 963 0 q 853 43 897 0 q 810 150 810 86 l 810 317 m 971 485 l 1044 485 q 1076 497 1064 485 q 1089 529 1089 510 l 1089 832 l 971 832 l 971 969 l 1281 969 l 1281 500 q 1236 391 1281 435 q 1128 347 1192 347 l 971 347 l 971 485 z "},"兢":{"ha":1389,"x_min":82,"x_max":1306,"o":"m 181 328 l 114 328 l 114 786 l 264 786 l 264 788 l 285 788 l 285 853 l 83 853 l 83 961 l 285 961 l 285 1003 l 468 1003 l 468 961 l 678 961 l 678 853 l 468 853 l 468 788 l 646 788 l 646 442 q 621 369 646 403 q 556 332 592 339 l 556 150 q 565 125 556 135 q 588 117 574 117 l 681 117 l 681 113 l 638 -3 l 510 -3 q 431 29 463 -3 q 397 111 397 63 l 397 329 l 346 329 l 246 -3 l 82 -3 l 181 328 m 421 438 q 443 447 435 438 q 453 469 453 457 l 453 681 l 307 681 l 307 438 l 421 438 m 808 328 l 740 328 l 740 786 l 890 786 l 890 788 l 911 788 l 911 853 l 711 853 l 711 961 l 911 961 l 911 1003 l 1093 1003 l 1093 961 l 1304 961 l 1304 853 l 1093 853 l 1093 788 l 1271 788 l 1271 442 q 1246 369 1271 401 q 1182 332 1218 338 l 1182 150 q 1190 125 1182 136 q 1213 117 1201 117 l 1306 117 l 1306 113 l 1263 -3 l 1135 -3 q 1056 29 1090 -3 q 1022 111 1022 63 l 1022 329 l 974 329 l 872 -3 l 708 -3 l 808 328 m 1046 438 q 1069 447 1060 438 q 1078 469 1078 458 l 1078 681 l 933 681 l 933 438 l 1046 438 z "},"入":{"ha":1389,"x_min":96,"x_max":1292,"o":"m 517 696 l 700 696 l 617 856 l 271 856 l 324 999 l 768 999 l 1292 1 l 1064 1 l 718 664 l 332 1 l 96 1 l 517 696 z "},"全":{"ha":1389,"x_min":86,"x_max":1301,"o":"m 111 138 l 599 138 l 599 261 l 163 261 l 163 399 l 599 399 l 599 504 l 131 504 l 131 642 l 1258 642 l 1258 504 l 792 504 l 792 399 l 1228 399 l 1228 261 l 792 261 l 792 138 l 1279 138 l 1279 0 l 111 0 l 111 138 m 242 1001 l 1146 1001 l 1301 701 l 1100 701 l 1006 883 l 383 883 l 288 701 l 86 701 l 242 1001 z "},"八":{"ha":1389,"x_min":82,"x_max":1307,"o":"m 707 989 l 899 989 l 1307 11 l 1110 11 l 707 989 m 425 921 l 617 921 l 281 15 l 82 15 l 425 921 z "},"公":{"ha":1389,"x_min":83,"x_max":1304,"o":"m 1075 25 l 88 25 l 444 631 l 671 631 l 379 160 l 1008 160 l 861 456 l 1081 456 l 1304 1 l 1086 1 l 1075 25 m 342 1000 l 551 1000 l 293 561 l 83 561 l 342 1000 m 1026 1000 l 1301 561 l 1092 561 l 817 1000 l 1026 1000 z "},"六":{"ha":1389,"x_min":86,"x_max":1303,"o":"m 86 843 l 615 843 l 556 999 l 781 999 l 840 843 l 1303 843 l 1303 707 l 86 707 l 86 843 m 328 558 l 546 558 l 304 1 l 86 1 l 328 558 m 1044 558 l 1286 1 l 1067 1 l 826 558 l 1044 558 z "},"兰":{"ha":1389,"x_min":100,"x_max":1289,"o":"m 100 838 l 338 838 l 294 988 l 467 988 l 510 838 l 896 838 l 953 988 l 1125 988 l 1068 838 l 1289 838 l 1289 703 l 100 703 l 100 838 m 100 149 l 1289 149 l 1289 13 l 100 13 l 100 149 m 131 492 l 1258 492 l 1258 356 l 131 356 l 131 492 z "},"共":{"ha":1389,"x_min":99,"x_max":1289,"o":"m 99 426 l 274 426 l 274 739 l 146 739 l 146 874 l 274 874 l 274 994 l 457 994 l 457 874 l 919 874 l 919 994 l 1103 994 l 1103 874 l 1229 874 l 1229 739 l 1103 739 l 1103 426 l 1278 426 l 1278 290 l 99 290 l 99 426 m 285 222 l 518 222 l 343 6 l 111 6 l 285 222 m 919 426 l 919 739 l 457 739 l 457 426 l 919 426 m 1114 222 l 1289 6 l 1056 6 l 882 222 l 1114 222 z "},"关":{"ha":1389,"x_min":82,"x_max":1307,"o":"m 561 363 l 82 363 l 82 500 l 596 500 l 596 700 l 128 700 l 128 838 l 342 838 l 268 1003 l 469 1003 l 543 838 l 842 838 l 915 1003 l 1117 1003 l 1043 838 l 1257 838 l 1257 700 l 818 700 l 818 500 l 1303 500 l 1303 363 l 818 363 l 818 338 l 750 288 l 879 288 l 1307 -1 l 997 -1 l 672 229 l 367 -1 l 82 -1 l 561 363 z "},"兴":{"ha":1389,"x_min":83,"x_max":1304,"o":"m 83 581 l 929 581 l 1064 999 l 1257 999 l 1122 581 l 1304 581 l 1304 443 l 83 443 l 83 581 m 300 372 l 508 372 l 292 0 l 83 0 l 300 372 m 276 1000 l 406 639 l 213 639 l 83 1000 l 276 1000 m 665 1000 l 794 639 l 601 639 l 472 1000 l 665 1000 m 1086 372 l 1304 0 l 1096 0 l 879 372 l 1086 372 z "},"兵":{"ha":1389,"x_min":85,"x_max":1304,"o":"m 85 386 l 189 386 l 189 925 l 1249 1001 l 1249 864 l 381 801 l 381 696 l 1304 696 l 1304 560 l 1103 560 l 1103 386 l 1304 386 l 1304 249 l 85 249 l 85 386 m 325 210 l 579 210 l 339 -1 l 85 -1 l 325 210 m 910 386 l 910 560 l 381 560 l 381 386 l 910 386 m 1063 210 l 1304 -1 l 1050 -1 l 808 210 l 1063 210 z "},"其":{"ha":1389,"x_min":85,"x_max":1304,"o":"m 85 317 l 215 317 l 215 811 l 85 811 l 85 949 l 215 949 l 215 1001 l 408 1001 l 408 949 l 985 949 l 985 1001 l 1178 1001 l 1178 949 l 1304 949 l 1304 811 l 1178 811 l 1178 317 l 1304 317 l 1304 179 l 85 179 l 85 317 m 215 150 l 407 150 l 276 -1 l 85 -1 l 215 150 m 985 317 l 985 397 l 408 397 l 408 317 l 985 317 m 985 535 l 985 610 l 408 610 l 408 535 l 985 535 m 985 747 l 985 811 l 408 811 l 408 747 l 985 747 m 1174 150 l 1304 -1 l 1111 -1 l 981 150 l 1174 150 z "},"具":{"ha":1389,"x_min":83,"x_max":1304,"o":"m 83 322 l 146 322 l 146 1001 l 1090 1001 q 1199 957 1156 1001 q 1242 849 1242 913 l 1242 322 l 1304 322 l 1304 185 l 83 185 l 83 322 m 226 139 l 435 139 l 292 -1 l 83 -1 l 226 139 m 1050 322 l 1050 376 l 338 376 l 338 322 l 1050 322 m 1050 482 l 1050 543 l 338 543 l 338 482 l 1050 482 m 1050 650 l 1050 711 l 338 711 l 338 650 l 1050 650 m 1050 818 l 1050 821 q 1038 851 1050 839 q 1006 864 1025 864 l 338 864 l 338 818 l 1050 818 m 1161 139 l 1304 -1 l 1096 -1 l 953 139 l 1161 139 z "},"典":{"ha":1389,"x_min":85,"x_max":1304,"o":"m 85 346 l 121 346 l 121 907 l 428 907 l 428 1001 l 621 1001 l 621 907 l 768 907 l 768 1001 l 961 1001 l 961 907 l 1117 907 q 1224 861 1181 907 q 1268 754 1268 815 l 1268 346 l 1304 346 l 1304 208 l 85 208 l 85 346 m 260 175 l 453 175 l 313 0 l 121 0 l 260 175 m 428 346 l 428 478 l 313 478 l 313 346 l 428 346 m 428 615 l 428 769 l 313 769 l 313 615 l 428 615 m 768 346 l 768 478 l 621 478 l 621 346 l 768 346 m 768 615 l 768 769 l 621 769 l 621 615 l 768 615 m 1129 175 l 1268 0 l 1076 0 l 938 175 l 1129 175 m 1076 346 l 1076 478 l 961 478 l 961 346 l 1076 346 m 1076 615 l 1076 725 q 1064 757 1076 744 q 1032 769 1051 769 l 961 769 l 961 615 l 1076 615 z "},"兹":{"ha":1389,"x_min":92,"x_max":1296,"o":"m 493 26 l 92 26 l 315 401 l 92 401 l 313 750 l 536 750 l 400 535 l 619 535 l 565 447 l 443 240 l 628 240 l 693 0 l 500 0 l 493 26 m 92 933 l 235 933 l 215 1000 l 450 1000 l 468 933 l 931 933 l 949 1000 l 1183 1000 l 1165 933 l 1296 933 l 1296 800 l 92 800 l 92 933 m 456 168 l 439 232 l 400 168 l 456 168 m 918 401 l 696 401 l 913 750 l 1138 750 l 1003 535 l 1222 535 l 1169 447 l 1047 240 l 1232 240 l 1296 0 l 1104 0 l 1097 26 l 696 26 l 918 401 m 1058 168 l 1042 232 l 1004 168 l 1058 168 z "},"养":{"ha":1389,"x_min":85,"x_max":1304,"o":"m 253 289 l 89 289 l 208 461 l 85 461 l 85 583 l 293 583 l 324 628 l 119 628 l 119 750 l 408 750 l 439 794 l 85 794 l 85 918 l 226 918 l 194 1001 l 393 1001 l 424 918 l 957 918 l 989 1001 l 1186 1001 l 1154 918 l 1293 918 l 1293 794 l 660 794 l 629 750 l 1265 750 l 1265 628 l 544 628 l 514 583 l 1293 583 l 1293 461 l 1121 461 l 1304 289 l 1104 289 l 1104 0 l 913 0 l 913 357 l 996 357 l 896 461 l 429 461 l 358 357 l 456 357 l 394 0 l 203 0 l 253 289 z "},"兼":{"ha":1389,"x_min":83,"x_max":1304,"o":"m 399 306 l 110 306 l 110 407 l 399 407 l 399 479 l 88 479 l 88 586 l 399 586 l 399 656 l 110 656 l 110 758 l 399 758 l 399 824 l 92 824 l 92 929 l 344 929 l 300 996 l 511 996 l 556 929 l 836 929 l 881 996 l 1092 996 l 1047 929 l 1300 929 l 1300 824 l 993 824 l 993 758 l 1299 758 l 1299 586 l 1300 586 l 1300 479 l 1299 479 l 1299 440 q 1271 336 1299 367 q 1174 306 1243 306 l 993 306 l 993 6 l 792 6 l 792 306 l 600 306 l 600 6 l 399 6 l 399 306 m 160 253 l 349 253 l 272 8 l 83 8 l 160 253 m 792 407 l 792 479 l 600 479 l 600 407 l 792 407 m 792 586 l 792 656 l 600 656 l 600 586 l 792 586 m 792 758 l 792 824 l 600 824 l 600 758 l 792 758 m 1088 407 q 1117 439 1117 407 l 1117 479 l 993 479 l 993 407 l 1088 407 m 1117 586 l 1117 656 l 993 656 l 993 586 l 1117 586 m 1224 253 l 1304 8 l 1114 8 l 1033 253 l 1224 253 z "},"兽":{"ha":1389,"x_min":83,"x_max":1304,"o":"m 110 954 l 289 954 l 261 1001 l 485 1001 l 511 954 l 872 954 l 899 1001 l 1126 1001 l 1099 954 l 1282 954 l 1282 653 q 1238 538 1282 583 q 1129 492 1193 492 l 110 492 l 110 954 m 83 464 l 1304 464 l 1304 347 l 83 347 l 83 464 m 110 311 l 1282 311 l 1282 153 q 1238 44 1282 88 q 1129 0 1193 0 l 110 0 l 110 311 m 1046 119 q 1076 132 1064 119 q 1089 164 1089 144 l 1089 186 l 303 186 l 303 119 l 1046 119 m 597 622 l 597 664 l 303 664 l 303 622 l 597 622 m 597 782 l 597 828 l 303 828 l 303 782 l 597 782 m 1046 622 q 1075 634 1063 622 q 1089 664 1088 646 l 790 664 l 790 622 l 1046 622 m 1089 782 l 1089 828 l 790 828 l 790 782 l 1089 782 z "},"冀":{"ha":1389,"x_min":81,"x_max":1307,"o":"m 140 757 l 1246 757 l 1246 533 q 1214 457 1246 489 q 1138 425 1182 425 l 140 425 l 140 757 m 81 243 l 272 243 l 272 293 l 111 293 l 111 381 l 272 381 l 272 408 l 476 408 l 476 381 l 894 381 l 894 408 l 1097 408 l 1097 381 l 1276 381 l 1276 293 l 1097 293 l 1097 243 l 1307 243 l 1307 157 l 81 157 l 81 243 m 82 851 l 454 875 l 454 910 l 82 910 l 82 985 l 454 985 l 454 1004 l 658 1004 l 658 776 l 454 776 l 454 803 l 82 776 l 82 851 m 260 136 l 463 136 l 364 -4 l 160 -4 l 260 136 m 592 524 l 592 554 l 344 554 l 344 524 l 592 524 m 592 629 l 592 660 l 344 660 l 344 629 l 592 629 m 894 243 l 894 293 l 476 293 l 476 243 l 894 243 m 729 1004 l 932 1004 l 932 960 l 1307 994 l 1307 918 l 932 886 l 932 868 q 951 851 932 851 l 1306 851 l 1278 776 l 806 776 q 751 799 774 776 q 729 851 729 821 l 729 1004 m 1015 524 q 1035 532 1025 524 q 1042 551 1042 543 l 1042 554 l 796 554 l 796 524 l 1015 524 m 1042 629 l 1042 660 l 796 660 l 796 629 l 1042 629 m 1122 138 l 1222 -3 l 1018 -3 l 919 138 l 1122 138 z "},"内":{"ha":1389,"x_min":85,"x_max":1304,"o":"m 85 874 l 593 874 l 593 1000 l 789 1000 l 789 874 l 1304 874 l 1304 131 q 1267 42 1304 78 q 1178 6 1231 6 l 946 6 l 988 119 l 1085 119 q 1107 128 1097 119 q 1117 151 1117 138 l 1118 744 l 789 744 l 789 715 l 754 646 l 906 646 l 1065 194 l 869 194 l 729 594 l 531 194 l 335 194 l 593 715 l 593 744 l 275 744 l 275 1 l 85 1 l 85 874 z "},"冈":{"ha":1389,"x_min":86,"x_max":1301,"o":"m 86 996 l 1172 996 q 1263 959 1225 996 q 1301 867 1301 922 l 1301 131 q 1265 41 1301 78 q 1175 4 1228 4 l 938 4 l 979 118 l 1081 118 q 1103 127 1094 118 q 1113 150 1113 136 l 1114 824 q 1101 854 1114 842 q 1071 867 1089 867 l 272 867 l 272 4 l 86 4 l 86 996 m 332 318 q 567 458 479 394 q 332 819 417 615 l 522 819 q 693 568 593 672 q 864 819 793 672 l 1054 819 q 819 458 968 611 q 1054 318 921 388 l 1054 149 q 693 346 849 228 q 332 149 546 231 l 332 318 z "},"冉":{"ha":1389,"x_min":96,"x_max":1292,"o":"m 150 196 l 96 196 l 96 315 l 150 315 l 150 892 l 607 892 l 607 1001 l 781 1001 l 781 892 l 1239 892 l 1239 315 l 1292 315 l 1292 196 l 1239 196 l 1239 151 q 1193 43 1239 88 q 1086 -1 1147 -1 l 915 -1 l 958 118 l 1021 118 q 1051 131 1039 118 q 1064 163 1064 143 l 1064 196 l 324 196 l 324 -1 l 150 -1 l 150 196 m 607 315 l 607 483 l 324 483 l 324 315 l 607 315 m 607 603 l 607 772 l 324 772 l 324 603 l 607 603 m 1064 315 l 1064 483 l 781 483 l 781 315 l 1064 315 m 1064 603 l 1064 772 l 781 772 l 781 603 l 1064 603 z "},"册":{"ha":1389,"x_min":85,"x_max":1304,"o":"m 139 440 l 85 440 l 85 575 l 139 575 l 139 1001 l 538 1001 q 630 963 592 1001 q 668 871 668 925 l 668 575 l 729 575 l 729 1000 l 1128 1000 q 1220 962 1182 1000 q 1258 869 1258 924 l 1258 575 l 1304 575 l 1304 440 l 1258 440 l 1258 101 q 1228 28 1258 58 q 1154 -1 1199 -1 l 969 -1 l 1015 135 l 1057 135 q 1077 143 1068 135 q 1086 164 1086 151 l 1086 440 l 901 440 l 901 -1 l 729 -1 l 729 440 l 668 440 l 668 103 q 638 30 668 60 q 564 0 607 0 l 379 0 l 425 136 l 465 136 q 487 144 478 136 q 496 165 496 153 l 496 440 l 311 440 l 311 -1 l 139 -1 l 139 440 m 496 575 l 496 822 q 483 854 496 842 q 451 867 471 867 l 311 867 l 311 575 l 496 575 m 1086 575 l 1086 821 q 1074 851 1086 839 q 1043 864 1061 864 l 901 864 l 901 575 l 1086 575 z "},"再":{"ha":1389,"x_min":83,"x_max":1304,"o":"m 143 207 l 83 207 l 83 343 l 143 343 l 143 794 l 611 794 l 611 863 l 104 863 l 104 999 l 1283 999 l 1283 863 l 783 863 l 783 794 l 1251 794 l 1251 343 l 1304 343 l 1304 207 l 1251 207 l 1251 106 q 1222 32 1251 63 q 1149 1 1192 1 l 939 1 l 989 138 l 1050 138 q 1071 147 1063 138 q 1079 167 1079 156 l 1079 207 l 315 207 l 315 1 l 143 1 l 143 207 m 611 343 l 611 432 l 315 432 l 315 343 l 611 343 m 611 568 l 611 658 l 315 658 l 315 568 l 611 568 m 1079 343 l 1079 432 l 783 432 l 783 343 l 1079 343 m 1079 568 l 1079 658 l 783 658 l 783 568 l 1079 568 z "},"冒":{"ha":1389,"x_min":104,"x_max":1285,"o":"m 142 528 l 1246 528 l 1246 131 q 1208 38 1246 76 q 1115 0 1169 0 l 142 0 l 142 528 m 104 997 l 1285 997 l 1285 564 l 1088 564 l 1088 867 l 300 867 l 300 564 l 104 564 l 104 997 m 1028 121 q 1050 143 1050 121 l 1050 167 l 339 167 l 339 121 l 1028 121 m 1050 249 l 1050 285 l 339 285 l 339 249 l 1050 249 m 1050 367 l 1050 407 l 339 407 l 339 367 l 1050 367 m 354 675 l 1036 675 l 1036 572 l 354 572 l 354 675 m 354 821 l 1036 821 l 1036 718 l 354 718 l 354 821 z "},"冗":{"ha":1389,"x_min":86,"x_max":1301,"o":"m 243 288 l 243 674 l 1121 674 l 1121 183 q 1133 153 1121 165 q 1165 140 1146 140 l 1293 140 l 1232 3 l 1081 3 q 972 47 1015 3 q 929 156 929 92 l 929 538 l 436 538 l 436 288 l 328 1 l 135 1 l 243 288 m 86 1000 l 1149 1000 q 1258 956 1214 1000 q 1301 847 1301 911 l 1301 744 l 1108 744 l 1108 819 q 1096 850 1108 838 q 1065 863 1083 863 l 279 863 l 279 744 l 86 744 l 86 1000 z "},"写":{"ha":1389,"x_min":89,"x_max":1300,"o":"m 515 115 l 1068 115 q 1089 124 1081 115 q 1097 146 1097 133 l 1097 389 l 183 389 l 319 790 l 485 790 l 457 708 l 1163 708 l 1163 588 l 415 588 l 389 510 l 1254 510 l 1254 99 q 1224 26 1254 56 q 1151 -4 1194 -4 l 460 -4 l 515 115 m 89 1004 l 1169 1004 q 1262 966 1224 1004 q 1300 874 1300 928 l 1300 739 l 1128 739 l 1128 825 q 1115 856 1128 843 q 1083 868 1103 868 l 261 868 l 261 739 l 89 739 l 89 1004 m 136 314 l 994 314 l 994 193 l 136 193 l 136 314 z "},"军":{"ha":1389,"x_min":79,"x_max":1310,"o":"m 597 104 l 79 104 l 79 242 l 597 242 l 597 313 l 128 313 l 238 581 l 79 581 l 79 718 l 294 718 l 322 786 l 522 786 l 493 718 l 1299 718 l 1299 581 l 436 581 l 382 450 l 597 450 l 597 528 l 790 528 l 790 450 l 1238 450 l 1238 313 l 790 313 l 790 242 l 1299 242 l 1299 104 l 790 104 l 790 -3 l 597 -3 l 597 104 m 79 1003 l 1157 1003 q 1231 981 1196 1003 q 1288 924 1267 960 q 1310 850 1310 889 l 1310 747 l 1117 747 l 1117 821 q 1104 853 1117 840 q 1074 865 1092 865 l 271 865 l 271 747 l 79 747 l 79 1003 z "},"农":{"ha":1389,"x_min":74,"x_max":1315,"o":"m 379 0 q 319 11 350 0 q 269 44 297 22 q 239 92 250 65 q 226 153 226 119 l 226 390 l 74 390 l 433 800 l 283 800 l 283 682 l 89 682 l 89 939 l 554 939 l 610 1001 l 828 1001 l 772 939 l 1164 939 q 1224 926 1193 939 q 1272 893 1249 917 q 1304 844 1292 871 q 1315 783 1315 818 l 1315 682 l 1125 682 l 1125 757 q 1111 788 1125 775 q 1082 800 1101 800 l 651 800 l 335 439 l 407 439 l 407 182 q 418 151 407 163 q 450 139 433 139 l 628 139 l 565 1 l 379 0 m 767 657 l 1006 311 l 1103 572 l 1272 572 l 1144 221 l 1069 221 l 1224 0 l 1018 0 l 561 657 l 767 657 z "},"冠":{"ha":1389,"x_min":81,"x_max":1308,"o":"m 569 1 q 469 42 511 1 q 428 143 428 83 l 428 342 l 349 342 l 349 169 l 275 7 l 81 7 l 156 169 l 156 342 l 81 342 l 81 478 l 649 478 l 649 342 l 607 342 l 607 169 q 619 141 607 153 q 647 129 631 129 l 1308 129 l 1251 1 l 569 1 m 86 703 l 638 703 l 638 567 l 86 567 l 86 703 m 92 1000 l 1143 1000 q 1252 956 1208 1000 q 1296 847 1296 911 l 1296 738 l 1104 738 l 1104 818 q 1092 850 1104 838 q 1060 863 1079 863 l 285 863 l 285 738 l 92 738 l 92 1000 m 686 661 l 1058 661 l 1058 704 l 1261 704 l 1261 661 l 1303 661 l 1303 525 l 1261 525 l 1261 260 q 1228 179 1261 213 q 1149 146 1196 146 l 851 146 l 906 250 l 1026 250 q 1049 260 1040 250 q 1058 282 1058 269 l 1058 525 l 686 525 l 686 661 m 879 483 l 975 264 l 796 264 l 700 483 l 879 483 z "},"冤":{"ha":1389,"x_min":79,"x_max":1310,"o":"m 281 268 l 129 268 l 129 632 l 971 632 l 1017 692 l 158 692 l 222 824 l 79 824 l 79 1004 l 1172 1004 q 1274 974 1238 1004 q 1310 882 1310 944 l 1310 824 l 1132 824 l 1132 854 q 1119 885 1132 872 q 1089 897 1107 897 l 257 897 l 257 843 l 438 843 l 410 799 l 1264 799 l 1164 632 l 1260 632 l 1260 421 q 1215 313 1260 357 q 1108 268 1169 268 l 917 268 l 917 165 q 929 135 917 147 q 960 122 942 122 l 1024 122 l 982 233 l 1149 233 l 1190 122 l 1246 122 l 1299 3 l 876 3 q 769 47 813 3 q 725 154 725 90 l 725 268 l 515 268 l 333 -3 l 99 -3 l 281 268 m 593 381 l 593 519 l 318 519 l 318 381 l 593 381 m 1028 381 q 1058 393 1046 381 q 1071 424 1071 406 l 1071 519 l 782 519 l 782 381 l 1028 381 z "},"冥":{"ha":1389,"x_min":85,"x_max":1304,"o":"m 174 761 l 100 761 l 100 1001 l 1138 1001 q 1245 956 1201 1001 q 1289 850 1289 911 l 1289 761 l 1215 761 l 1215 529 q 1171 422 1215 467 q 1063 378 1126 378 l 174 378 l 174 761 m 85 315 l 576 315 l 560 354 l 769 354 l 786 315 l 1304 315 l 1304 183 l 85 183 l 85 315 m 290 156 l 526 156 l 376 0 l 140 0 l 290 156 m 1097 790 l 1097 831 q 1085 861 1097 849 q 1054 874 1072 874 l 292 874 l 292 790 l 1097 790 m 979 496 q 1008 506 996 496 q 1022 533 1019 517 l 365 533 l 365 496 l 979 496 m 1024 635 l 1024 671 l 365 671 l 365 635 l 1024 635 m 1097 156 l 1247 0 l 1011 0 l 861 156 l 1097 156 z "},"冬":{"ha":1389,"x_min":96,"x_max":1293,"o":"m 96 553 l 382 578 q 121 753 219 649 l 385 753 q 694 632 531 675 q 1054 782 882 681 l 106 782 l 211 999 l 383 999 l 344 918 l 1293 918 l 1293 782 q 1007 578 1200 667 l 1293 553 l 1293 406 q 694 479 951 419 q 96 406 438 419 l 96 553 m 153 206 l 1236 136 l 1236 1 l 153 69 l 153 206 m 188 389 l 1164 315 l 1164 179 l 188 253 l 188 389 z "},"冯":{"ha":1389,"x_min":83,"x_max":1304,"o":"m 842 128 l 1068 128 q 1100 140 1088 128 q 1113 171 1113 153 l 1113 426 l 478 426 l 572 800 l 764 800 l 706 564 l 1065 564 l 1065 814 q 1053 844 1065 832 q 1021 857 1040 857 l 488 857 l 488 994 l 1106 994 q 1213 950 1167 994 q 1258 842 1258 906 l 1258 564 l 1304 564 l 1304 160 q 1259 52 1304 96 q 1153 8 1214 8 l 789 8 l 842 128 m 182 528 l 375 528 l 276 7 l 83 7 l 182 528 m 286 979 l 375 631 l 182 631 l 93 979 l 286 979 m 408 333 l 1006 333 l 1006 197 l 408 197 l 408 333 z "},"冰":{"ha":1389,"x_min":85,"x_max":1303,"o":"m 653 121 l 707 121 q 738 133 725 121 q 750 164 750 144 l 750 1000 l 919 1000 l 919 153 q 874 45 919 89 q 768 1 829 1 l 600 1 l 653 121 m 182 510 l 374 510 l 275 1 l 85 1 l 182 510 m 285 965 l 374 611 l 182 611 l 93 965 l 285 965 m 531 751 l 403 751 l 403 869 l 724 869 l 544 1 l 374 1 l 531 751 m 1274 869 l 1274 751 l 1146 751 l 1303 1 l 1132 1 l 953 869 l 1274 869 z "},"冲":{"ha":1389,"x_min":85,"x_max":1304,"o":"m 769 183 l 426 183 l 426 850 l 769 850 l 769 1001 l 963 1001 l 963 850 l 1304 850 l 1304 336 q 1259 228 1304 272 q 1153 183 1214 183 l 963 183 l 963 0 l 769 0 l 769 183 m 183 510 l 374 510 l 276 1 l 85 1 l 183 510 m 285 965 l 374 611 l 183 611 l 94 965 l 285 965 m 769 321 l 769 713 l 619 713 l 619 321 l 769 321 m 1068 321 q 1100 333 1088 321 q 1113 364 1113 346 l 1113 713 l 963 713 l 963 321 l 1068 321 z "},"决":{"ha":1389,"x_min":86,"x_max":1301,"o":"m 583 357 l 383 357 l 383 494 l 654 494 l 654 771 l 426 771 l 426 908 l 654 908 l 654 1001 l 815 1001 l 815 908 l 1058 908 q 1165 864 1119 908 q 1211 756 1211 819 l 1211 494 l 1301 494 l 1301 357 l 1067 357 l 1300 0 l 1107 0 l 875 357 l 776 357 l 544 0 l 353 0 l 583 357 m 183 510 l 375 510 l 276 1 l 86 1 l 183 510 m 286 965 l 375 611 l 183 611 l 94 965 l 286 965 m 1018 494 l 1018 728 q 1006 758 1018 746 q 975 771 993 771 l 815 771 l 815 494 l 1018 494 z "},"况":{"ha":1389,"x_min":85,"x_max":1303,"o":"m 528 233 l 528 446 l 411 446 l 411 1001 l 1260 1001 l 1260 599 q 1215 490 1260 533 q 1107 446 1171 446 l 1086 446 l 1086 181 q 1099 150 1086 163 q 1131 138 1111 138 l 1303 138 l 1242 0 l 1046 0 q 938 44 981 0 q 894 153 894 89 l 894 446 l 721 446 l 721 203 l 583 0 l 361 0 l 528 233 m 168 521 l 361 521 l 278 0 l 85 0 l 168 521 m 278 1001 l 353 653 l 160 653 l 86 1001 l 278 1001 m 1024 583 q 1054 596 1042 583 q 1067 626 1067 608 l 1067 864 l 604 864 l 604 583 l 1024 583 z "},"冶":{"ha":1389,"x_min":82,"x_max":1306,"o":"m 1108 529 l 421 529 l 628 1001 l 833 1001 l 676 667 l 1065 667 l 990 913 l 1179 913 l 1306 504 l 1115 504 l 1108 529 m 165 525 l 357 525 l 274 3 l 82 3 l 165 525 m 275 1006 l 349 657 l 157 657 l 82 1006 l 275 1006 m 443 460 l 1301 460 l 1301 146 q 1257 38 1301 81 q 1149 -6 1213 -6 l 443 -6 l 443 460 m 1065 131 q 1096 143 1083 131 q 1108 175 1108 156 l 1108 322 l 636 322 l 636 131 l 1065 131 z "},"冷":{"ha":1389,"x_min":83,"x_max":1304,"o":"m 475 318 l 651 318 l 697 185 l 1042 185 l 1093 382 l 444 382 l 444 518 l 1301 518 l 1188 47 l 743 47 l 761 -1 l 586 -1 l 475 318 m 199 519 l 390 519 l 276 -1 l 83 -1 l 199 519 m 278 1000 l 382 651 l 190 651 l 85 1000 l 278 1000 m 531 1003 l 1213 1003 l 1304 564 l 1131 564 l 1068 867 l 676 867 l 613 564 l 440 564 l 531 1003 m 921 775 l 1013 565 l 822 565 l 731 775 l 921 775 z "},"冻":{"ha":1389,"x_min":85,"x_max":1304,"o":"m 619 3 l 658 135 l 703 135 q 733 147 721 135 q 746 178 746 160 l 746 463 l 388 463 l 513 786 l 344 786 l 344 924 l 567 924 l 597 1004 l 790 1004 l 758 924 l 1260 924 l 1260 786 l 706 786 l 633 600 l 746 600 l 746 706 l 939 706 l 939 600 l 1304 600 l 1304 463 l 939 463 l 939 150 q 894 40 939 85 q 786 -3 850 -6 l 619 3 m 168 524 l 360 524 l 276 3 l 85 3 l 168 524 m 278 1004 l 351 656 l 160 656 l 85 1004 l 278 1004 m 458 383 l 660 383 l 550 3 l 349 3 l 458 383 m 1194 383 l 1304 3 l 1103 3 l 993 383 l 1194 383 z "},"净":{"ha":1389,"x_min":83,"x_max":1304,"o":"m 533 135 l 638 135 q 668 147 656 135 q 681 179 681 160 l 681 211 l 413 211 l 413 349 l 681 349 l 681 422 l 392 422 l 392 544 l 681 544 l 681 628 l 413 628 l 413 765 l 917 765 l 961 824 l 392 824 l 481 1000 l 660 1000 l 632 946 l 1231 946 l 1107 765 l 1204 765 l 1204 544 l 1304 544 l 1304 422 l 1204 422 l 1204 364 q 1160 255 1204 299 q 1051 211 1115 211 l 882 211 l 882 150 q 838 43 882 86 q 729 0 794 0 l 503 0 l 533 135 m 151 535 l 344 535 l 276 0 l 83 0 l 151 535 m 285 1000 l 344 640 l 151 640 l 93 1000 l 285 1000 m 968 349 q 999 361 986 349 q 1011 393 1011 374 l 1011 422 l 882 422 l 882 349 l 968 349 m 1011 544 l 1011 628 l 882 628 l 882 544 l 1011 544 z "},"凄":{"ha":1389,"x_min":83,"x_max":1304,"o":"m 429 554 l 754 554 l 754 581 l 399 581 l 399 688 l 754 688 l 754 715 l 429 715 l 429 822 l 754 822 l 754 850 l 414 850 l 414 972 l 754 972 l 754 1001 l 947 1001 l 947 972 l 1289 972 l 1289 850 l 947 850 l 947 822 l 1274 822 l 1274 688 l 1303 688 l 1303 581 l 1272 581 q 1222 485 1265 524 q 1121 447 1179 447 l 429 447 l 429 554 m 182 521 l 375 521 l 276 0 l 83 0 l 182 521 m 286 972 l 375 624 l 182 624 l 93 972 l 286 972 m 399 128 q 574 132 485 128 q 454 196 519 157 l 454 274 l 399 274 l 399 396 l 454 396 l 454 424 l 647 424 l 647 396 l 1056 396 l 1056 424 l 1249 424 l 1249 396 l 1304 396 l 1304 274 l 1249 274 l 1249 196 q 1129 132 1174 151 q 1303 128 1217 128 l 1303 0 q 1067 8 1174 0 q 851 40 960 15 q 634 8 740 15 q 399 0 528 0 l 399 128 m 647 229 q 851 168 740 193 q 1056 229 947 188 l 1056 274 l 647 274 l 647 229 m 1036 554 q 1078 581 1065 554 l 947 581 l 947 554 l 1036 554 m 1081 688 l 1081 715 l 947 715 l 947 688 l 1081 688 z "},"准":{"ha":1389,"x_min":82,"x_max":1307,"o":"m 706 128 l 911 128 l 911 258 l 726 258 l 726 379 l 911 379 l 911 510 l 726 510 l 726 631 l 911 631 l 911 760 l 706 760 l 706 881 l 918 881 l 894 985 l 1085 985 l 1108 881 l 1304 881 l 1304 760 l 1100 760 l 1100 631 l 1283 631 l 1283 510 l 1100 510 l 1100 379 l 1283 379 l 1283 258 l 1100 258 l 1100 128 l 1307 128 l 1307 7 l 706 7 l 706 128 m 182 528 l 374 528 l 275 7 l 82 7 l 182 528 m 285 978 l 374 629 l 182 629 l 92 978 l 285 978 m 551 993 l 738 993 l 635 760 l 674 760 l 674 7 l 497 7 l 497 618 l 385 618 l 551 993 z "},"凉":{"ha":1389,"x_min":82,"x_max":1307,"o":"m 732 125 l 747 125 q 772 135 763 125 q 782 160 782 144 l 782 371 l 472 371 l 472 765 l 1267 765 l 1267 524 q 1222 415 1267 460 q 1115 371 1176 371 l 971 371 l 971 150 q 926 42 971 85 q 818 -1 882 -1 l 671 -1 l 732 125 m 181 540 l 374 540 l 275 6 l 82 6 l 181 540 m 283 1004 l 374 646 l 181 646 l 92 1004 l 283 1004 m 494 308 l 671 308 l 583 -3 l 411 -3 l 494 308 m 417 936 l 783 936 l 756 1001 l 965 1001 l 992 936 l 1307 936 l 1307 821 l 417 821 l 417 936 m 1035 483 q 1065 496 1053 483 q 1078 526 1078 508 l 1078 653 l 661 653 l 661 483 l 1035 483 m 1221 308 l 1301 -3 l 1125 -3 l 1043 308 l 1221 308 z "},"凌":{"ha":1389,"x_min":85,"x_max":1304,"o":"m 399 144 q 593 157 501 147 q 424 325 460 235 l 646 325 q 851 206 706 249 q 1076 350 1026 258 l 413 350 l 476 497 l 414 497 l 528 624 l 719 624 l 613 506 l 671 506 l 656 472 l 1289 472 l 1289 350 q 1229 247 1275 296 q 1111 157 1183 199 q 1304 144 1203 146 l 1304 0 q 851 54 1061 0 q 399 0 643 0 l 399 144 m 183 521 l 376 521 l 278 0 l 85 0 l 183 521 m 286 972 l 376 624 l 183 624 l 94 972 l 286 972 m 399 778 l 754 778 l 754 829 l 432 829 l 432 951 l 754 951 l 754 1001 l 947 1001 l 947 951 l 1253 951 l 1253 829 l 947 829 l 947 778 l 1304 778 l 1304 656 l 399 656 l 399 778 m 1179 624 l 1289 506 l 1097 506 l 986 624 l 1179 624 z "},"减":{"ha":1389,"x_min":85,"x_max":1304,"o":"m 386 175 l 386 929 l 910 929 l 893 1001 l 1074 1001 l 1090 929 l 1138 929 l 1122 1001 l 1264 1001 l 1304 792 l 1122 792 l 1203 442 l 1303 539 l 1303 339 l 1240 278 l 1304 -1 l 1124 -1 l 1092 135 l 981 25 l 981 225 l 1054 297 l 940 792 l 564 792 l 564 175 l 499 -1 l 321 -1 l 386 175 m 174 536 l 347 536 l 258 -1 l 85 -1 l 174 536 m 267 1001 l 347 642 l 174 642 l 93 1001 l 267 1001 m 599 704 l 950 704 l 950 571 l 599 571 l 599 704 m 603 490 l 950 490 l 950 129 q 912 37 950 75 q 819 -1 874 -1 l 603 -1 l 603 490 m 776 121 q 798 130 789 121 q 807 151 807 139 l 807 367 l 746 367 l 746 121 l 776 121 z "},"凑":{"ha":1389,"x_min":83,"x_max":1304,"o":"m 636 156 l 417 156 l 417 268 l 764 268 l 764 335 l 463 331 l 463 396 l 404 396 l 497 531 l 417 531 l 417 642 l 575 642 l 606 686 l 425 686 l 425 801 l 686 801 l 717 846 l 419 846 l 419 957 l 794 957 l 825 1001 l 1035 1001 l 1004 957 l 1300 957 l 1300 846 l 926 846 l 896 801 l 1294 801 l 1294 686 l 815 686 l 785 642 l 1303 642 l 1303 531 l 1222 531 l 1304 396 l 1253 396 l 1253 342 l 956 338 l 956 268 l 1303 268 l 1303 156 l 1099 156 l 1303 -1 l 1040 -1 l 868 133 l 688 -1 l 417 -1 l 636 156 m 182 536 l 375 536 l 275 -1 l 83 -1 l 182 536 m 285 1001 l 375 642 l 182 642 l 92 1001 l 285 1001 m 1064 461 l 1021 531 l 707 531 l 654 454 l 1064 461 z "},"凛":{"ha":1389,"x_min":82,"x_max":1307,"o":"m 693 81 l 729 81 q 752 90 743 81 q 761 114 761 100 l 761 228 l 383 228 l 383 321 l 1306 321 l 1306 228 l 950 228 l 950 110 q 917 31 950 63 q 838 -1 885 -1 l 661 -1 l 693 81 m 179 536 l 347 536 l 250 -1 l 82 -1 l 179 536 m 260 1003 l 347 642 l 179 642 l 92 1003 l 260 1003 m 460 185 l 622 185 l 546 -1 l 383 -1 l 460 185 m 383 957 l 746 957 l 719 1003 l 917 1003 l 944 957 l 1307 957 l 1307 864 l 383 864 l 383 957 m 408 457 l 1281 457 l 1281 368 l 408 368 l 408 457 m 440 835 l 1254 835 l 1254 606 q 1222 526 1254 558 q 1142 493 1189 493 l 440 493 l 440 835 m 1040 585 q 1064 594 1054 585 q 1074 617 1074 603 l 1074 753 l 622 753 l 622 585 l 1040 585 m 693 733 l 1003 733 l 1003 646 q 990 615 1003 628 q 960 603 978 603 l 693 603 l 693 733 m 899 644 q 911 657 911 644 l 911 696 l 779 696 l 779 644 l 899 644 m 1221 185 l 1306 -1 l 1143 -1 l 1058 185 l 1221 185 z "},"凝":{"ha":1389,"x_min":85,"x_max":1304,"o":"m 831 460 l 954 460 l 943 197 l 981 161 l 981 565 l 807 565 l 807 681 l 869 681 l 821 813 l 974 813 l 1024 681 l 1058 681 l 1108 858 l 826 858 l 826 975 l 1304 975 l 1222 681 l 1304 681 l 1276 472 l 1140 472 l 1153 565 l 1131 565 l 1131 414 l 1304 414 l 1304 299 l 1131 299 l 1131 108 l 1304 108 l 1304 1 l 978 1 l 936 40 l 933 1 l 810 1 l 831 460 m 135 578 l 313 578 l 261 0 l 85 0 l 135 578 m 271 997 l 313 639 l 135 639 l 93 997 l 271 997 m 461 240 l 335 240 l 335 357 l 481 357 l 481 460 l 335 460 l 386 624 l 540 624 l 525 575 l 781 575 l 781 460 l 631 460 l 631 357 l 797 357 l 797 240 l 631 240 l 603 183 l 717 183 l 804 1 l 653 1 l 583 146 l 510 -1 l 332 -1 l 461 240 m 353 1001 l 504 1001 l 504 925 l 779 957 l 779 840 l 504 810 l 504 808 q 522 778 504 792 q 556 765 539 765 l 751 765 l 789 649 l 481 649 q 420 667 450 649 q 372 715 390 685 q 353 779 353 746 l 353 1001 z "},"几":{"ha":1389,"x_min":96,"x_max":1292,"o":"m 1069 3 l 1026 3 q 934 41 972 3 q 896 133 896 79 l 896 885 l 376 885 l 376 172 l 289 6 l 96 6 l 185 172 l 185 1001 l 1085 1001 l 1085 161 q 1097 131 1085 143 q 1129 118 1110 118 l 1292 118 l 1246 0 l 1069 0 l 1069 3 z "},"凡":{"ha":1389,"x_min":85,"x_max":1304,"o":"m 190 161 l 190 996 l 1131 996 l 1131 151 q 1140 128 1131 138 q 1161 119 1149 119 l 1304 119 l 1243 6 l 1067 6 q 979 42 1015 6 q 943 129 943 78 l 943 853 l 358 853 l 358 161 l 253 6 l 85 6 l 190 161 m 669 721 l 810 225 l 624 225 l 483 721 l 669 721 z "},"凤":{"ha":1389,"x_min":81,"x_max":1308,"o":"m 1154 1 q 1067 38 1103 1 q 1031 125 1031 74 l 1031 863 l 313 863 l 313 154 l 271 3 l 81 3 l 122 154 l 122 999 l 1218 999 l 1218 163 q 1227 140 1218 149 q 1249 131 1236 131 l 1308 131 l 1260 1 l 1154 1 m 388 753 l 982 753 l 982 640 q 817 375 928 483 q 982 328 888 340 l 982 179 q 683 274 810 199 q 389 179 560 199 l 389 328 q 550 376 478 338 q 392 618 453 475 l 568 618 q 683 469 622 531 q 807 640 754 536 l 388 640 l 388 753 z "},"凭":{"ha":1389,"x_min":83,"x_max":1304,"o":"m 507 557 l 800 557 l 800 632 l 475 632 l 475 769 l 800 769 l 800 861 l 507 854 l 507 975 l 1274 997 l 1274 875 l 979 867 l 979 769 l 1304 769 l 1304 632 l 979 632 l 979 557 l 1274 557 l 1274 419 l 507 419 l 507 557 m 174 113 l 174 358 l 1172 358 l 1172 179 q 1185 149 1172 161 q 1215 136 1197 136 l 1304 136 l 1257 -1 l 1132 -1 q 1023 43 1067 -1 q 979 151 979 88 l 979 224 l 360 224 l 360 92 l 288 -1 l 83 -1 l 174 113 m 229 1001 l 475 1001 l 342 756 l 397 756 l 397 419 l 194 419 l 194 735 l 83 735 l 229 1001 z "},"凯":{"ha":1389,"x_min":85,"x_max":1304,"o":"m 765 138 l 765 1001 l 1232 1001 l 1232 179 q 1244 149 1232 161 q 1275 136 1257 136 l 1304 136 l 1243 -1 l 1192 -1 q 1083 43 1126 -1 q 1039 151 1039 88 l 1039 864 l 958 864 l 958 138 l 914 -1 l 721 -1 l 765 138 m 85 371 l 458 371 q 489 383 476 371 q 501 415 501 396 l 501 468 l 85 468 l 85 606 l 694 606 l 694 386 q 650 277 694 321 q 542 233 606 233 l 278 233 l 278 179 q 290 149 278 161 q 321 136 303 136 l 694 136 l 629 -1 l 238 -1 q 128 43 172 -1 q 85 151 85 88 l 85 371 m 85 964 l 246 964 l 246 792 l 311 792 l 311 1001 l 447 1001 l 447 792 l 489 792 q 519 804 507 792 q 532 835 532 817 l 532 964 l 694 964 l 694 807 q 650 698 694 742 q 542 654 606 654 l 85 654 l 85 964 z "},"凰":{"ha":1389,"x_min":85,"x_max":1304,"o":"m 176 994 l 1193 994 l 1193 168 q 1206 138 1193 150 q 1238 125 1218 125 l 1261 125 l 1304 6 l 1153 6 q 1044 49 1089 6 q 1000 157 1000 92 l 1000 872 l 357 872 l 278 6 l 85 6 l 176 994 m 363 111 l 599 111 l 599 150 l 378 150 l 378 257 l 599 257 l 599 294 l 363 294 l 363 401 l 981 401 l 981 294 l 744 294 l 744 257 l 967 257 l 967 150 l 744 150 l 744 111 l 981 111 l 981 6 l 363 6 l 363 111 m 363 824 l 464 824 l 482 858 l 644 858 l 625 824 l 981 824 l 981 575 q 935 467 981 511 q 829 422 890 422 l 363 422 l 363 824 m 792 544 q 818 553 807 544 q 833 576 829 563 l 510 576 l 510 544 l 792 544 m 835 668 l 835 701 l 510 701 l 510 668 l 835 668 z "},"凳":{"ha":1389,"x_min":83,"x_max":1304,"o":"m 185 797 l 83 886 l 275 886 l 289 874 l 367 929 l 144 929 l 144 1001 l 681 1001 l 474 840 l 919 840 l 699 1001 l 940 1001 l 1001 957 l 1049 999 l 1213 999 l 1092 892 l 1124 868 l 1139 881 l 1304 881 l 1214 801 l 1304 735 l 1063 735 l 981 794 l 981 735 l 407 735 l 407 786 l 328 725 l 86 725 l 185 797 m 83 364 l 288 364 l 267 399 l 467 399 l 486 364 l 901 364 l 921 399 l 1121 399 l 1100 364 l 1304 364 l 1304 263 l 83 263 l 83 364 m 151 101 l 151 231 l 1218 231 l 1218 122 q 1226 103 1218 111 q 1246 94 1235 94 l 1267 94 l 1304 0 l 1136 0 q 1058 32 1090 0 q 1026 110 1026 64 l 1026 128 l 339 128 l 339 101 l 313 1 l 125 1 l 151 101 m 153 690 l 1235 690 l 1235 578 q 1190 469 1235 513 q 1082 425 1146 425 l 153 425 l 153 690 m 1004 533 q 1035 546 1022 533 q 1047 576 1047 558 l 1047 582 l 340 582 l 340 533 l 1004 533 z "},"凶":{"ha":1389,"x_min":86,"x_max":1301,"o":"m 86 913 l 272 913 l 272 131 l 1085 131 q 1106 140 1097 131 q 1115 161 1115 149 l 1115 913 l 1301 913 l 1301 135 q 1263 40 1301 79 q 1168 1 1224 1 l 272 1 l 272 0 l 86 0 l 86 913 m 444 999 q 560 786 501 875 q 690 629 619 697 q 823 788 763 700 q 940 1001 883 876 l 1139 1001 q 1004 732 1081 851 q 829 514 928 613 q 1017 396 899 465 l 1065 367 l 1065 178 q 690 394 840 281 q 319 182 543 282 l 319 371 q 551 514 468 454 q 379 729 454 611 q 246 999 304 847 l 444 999 z "},"凸":{"ha":1389,"x_min":107,"x_max":1281,"o":"m 107 701 l 256 701 l 256 993 l 1138 993 l 1138 701 l 1281 701 l 1281 161 q 1235 52 1281 97 q 1125 7 1190 7 l 107 7 l 107 701 m 1036 143 q 1072 158 1057 143 q 1088 194 1088 174 l 1088 564 l 967 564 l 967 565 l 944 565 l 944 856 l 447 856 l 447 565 l 435 565 l 435 564 l 299 564 l 299 143 l 1036 143 z "},"凹":{"ha":1389,"x_min":107,"x_max":1281,"o":"m 107 978 l 626 978 l 626 636 l 732 636 q 751 644 743 636 q 758 664 758 653 l 758 978 l 1281 978 l 1281 176 q 1235 67 1281 111 q 1126 22 1190 22 l 107 22 l 107 978 m 1038 158 q 1073 173 1058 158 q 1088 210 1088 188 l 1088 840 l 951 840 l 951 636 q 912 540 951 579 q 815 500 872 500 l 433 500 l 433 840 l 300 840 l 300 158 l 1038 158 z "},"出":{"ha":1389,"x_min":99,"x_max":1290,"o":"m 99 435 l 294 435 l 294 136 l 594 136 l 594 535 l 124 535 l 124 946 l 322 946 l 322 674 l 594 674 l 594 1003 l 792 1003 l 792 674 l 1025 674 q 1049 683 1039 674 q 1058 706 1058 693 l 1058 946 l 1256 946 l 1256 667 q 1217 573 1256 611 q 1124 535 1178 535 l 792 535 l 792 136 l 1060 136 q 1083 146 1074 136 q 1093 169 1093 156 l 1093 435 l 1290 435 l 1290 131 q 1251 38 1290 76 q 1157 -1 1211 -1 l 99 -1 l 99 435 z "},"击":{"ha":1389,"x_min":86,"x_max":1303,"o":"m 119 407 l 310 407 l 310 143 l 593 143 l 593 524 l 86 524 l 86 667 l 593 667 l 593 788 l 104 788 l 104 931 l 593 931 l 593 1001 l 796 1001 l 796 931 l 1285 931 l 1285 788 l 796 788 l 796 667 l 1303 667 l 1303 524 l 796 524 l 796 143 l 1053 143 q 1074 152 1065 143 q 1082 174 1082 161 l 1082 407 l 1269 407 l 1269 104 q 1239 31 1269 61 q 1165 0 1208 0 l 119 0 l 119 407 z "},"函":{"ha":1389,"x_min":88,"x_max":1301,"o":"m 88 744 l 281 744 l 281 132 l 1072 132 q 1103 144 1090 132 q 1115 175 1115 157 l 1115 744 l 1301 744 l 1301 147 q 1258 41 1301 85 q 1150 -3 1215 -3 l 88 -3 l 88 744 m 101 1003 l 1182 1003 l 1182 867 l 785 697 l 785 306 q 749 219 785 254 q 661 183 713 183 l 581 183 l 532 296 l 557 296 q 587 308 575 296 q 599 336 599 319 l 599 785 l 600 785 l 599 786 l 833 867 l 101 867 l 101 1003 m 375 469 l 561 469 l 479 208 l 293 208 l 375 469 m 486 697 l 561 522 l 375 522 l 301 697 l 486 697 m 1019 469 l 1107 208 l 914 208 l 826 469 l 1019 469 m 906 697 l 1099 697 l 1019 522 l 826 522 l 906 697 z "},"凿":{"ha":1389,"x_min":85,"x_max":1304,"o":"m 100 588 l 293 588 l 293 136 l 1053 136 q 1083 149 1071 136 q 1096 179 1096 161 l 1096 588 l 1289 588 l 1289 151 q 1244 44 1289 89 q 1136 0 1199 0 l 100 0 l 100 588 m 85 800 l 176 800 l 104 965 l 306 965 l 378 800 l 460 800 l 460 1000 l 653 1000 l 653 800 l 739 800 l 739 1000 l 932 1000 l 932 800 l 1014 800 l 1088 965 l 1289 965 l 1215 800 l 1304 800 l 1304 663 l 85 663 l 85 800 m 324 368 l 599 368 l 599 424 l 356 424 l 356 560 l 424 560 l 390 635 l 592 635 l 625 560 l 771 560 l 804 635 l 1006 635 l 972 560 l 1033 560 l 1033 424 l 790 424 l 790 368 l 1065 368 l 1065 231 l 790 231 l 790 147 l 599 147 l 599 231 l 324 231 l 324 368 z "},"刀":{"ha":1389,"x_min":92,"x_max":1297,"o":"m 365 851 l 103 851 l 103 992 l 1297 992 l 1297 164 q 1251 56 1297 101 q 1143 10 1206 10 l 831 10 l 883 149 l 1058 149 q 1090 161 1076 149 q 1103 193 1103 174 l 1103 851 l 569 851 l 297 10 l 92 10 l 365 851 z "},"刁":{"ha":1389,"x_min":83,"x_max":1306,"o":"m 861 150 l 1069 150 q 1100 163 1088 150 q 1113 193 1113 175 l 1113 850 l 83 850 l 83 988 l 1306 988 l 1306 165 q 1261 58 1306 103 q 1153 14 1217 14 l 800 14 l 861 150 m 122 440 l 1006 657 l 1006 457 l 122 240 l 122 440 z "},"刃":{"ha":1389,"x_min":90,"x_max":1299,"o":"m 617 857 l 124 857 l 124 996 l 1299 996 l 1299 168 q 1252 60 1299 106 q 1143 14 1206 14 l 821 14 l 883 153 l 1058 153 q 1090 165 1078 153 q 1103 197 1103 178 l 1103 857 l 821 857 l 453 6 l 249 6 l 617 857 m 274 733 l 465 733 l 282 342 l 90 342 l 274 733 z "},"分":{"ha":1389,"x_min":89,"x_max":1300,"o":"m 843 131 l 1011 131 q 1033 140 1025 131 q 1043 163 1043 149 l 1043 456 l 524 456 l 329 7 l 125 7 l 318 456 l 151 456 l 151 597 l 1228 597 l 1228 125 q 1192 38 1228 74 q 1104 3 1157 3 l 797 3 l 843 131 m 279 997 l 485 997 l 293 661 l 89 661 l 279 997 m 1108 997 l 1300 661 l 1094 661 l 903 997 l 1108 997 z "},"切":{"ha":1389,"x_min":89,"x_max":1300,"o":"m 700 860 l 547 860 l 547 999 l 1300 999 l 1300 157 q 1254 49 1300 94 q 1146 3 1208 3 l 918 3 l 979 142 l 1061 142 q 1092 154 1079 142 q 1106 186 1106 167 l 1106 860 l 892 860 l 738 3 l 547 3 l 700 860 m 89 840 l 163 840 l 163 996 l 361 996 l 361 840 l 496 840 l 496 706 l 361 706 l 361 167 q 370 145 361 154 q 392 136 379 136 l 521 136 l 472 1 l 296 1 q 201 40 240 1 q 163 135 163 79 l 163 706 l 89 706 l 89 840 z "},"刊":{"ha":1389,"x_min":88,"x_max":1300,"o":"m 322 429 l 88 429 l 88 572 l 322 572 l 322 858 l 88 858 l 88 1001 l 736 1001 l 736 858 l 514 858 l 514 572 l 736 572 l 736 429 l 514 429 l 514 0 l 322 0 l 322 429 m 813 944 l 989 944 l 989 204 l 813 204 l 813 944 m 1017 144 l 1049 144 q 1082 158 1068 144 q 1096 192 1096 172 l 1096 1001 l 1300 1001 l 1300 161 q 1252 47 1300 93 q 1138 0 1204 0 l 951 0 l 1017 144 z "},"刑":{"ha":1389,"x_min":107,"x_max":1282,"o":"m 197 399 l 107 399 l 107 535 l 208 535 l 236 843 l 122 843 l 122 979 l 783 979 l 783 843 l 729 843 l 729 535 l 799 535 l 799 399 l 729 399 l 729 0 l 557 0 l 557 399 l 369 399 l 335 0 l 163 0 l 197 399 m 557 535 l 557 843 l 408 843 l 381 535 l 557 535 m 854 933 l 1026 933 l 1026 199 l 854 199 l 854 933 m 1033 136 l 1081 136 q 1101 145 1093 136 q 1110 167 1110 154 l 1110 1001 l 1282 1001 l 1282 104 q 1252 31 1282 61 q 1179 0 1222 0 l 974 0 l 1033 136 z "},"划":{"ha":1389,"x_min":79,"x_max":1310,"o":"m 454 372 l 318 685 l 79 685 l 79 822 l 258 822 l 181 1003 l 408 1003 l 486 822 l 621 822 l 547 1003 l 769 1003 l 900 685 l 546 685 l 613 531 l 646 565 l 906 565 l 692 350 l 844 -1 l 617 -1 l 533 192 l 340 -1 l 79 -1 l 454 372 m 933 935 l 1093 935 l 1093 190 l 933 190 l 933 935 m 1094 136 l 1107 136 q 1138 149 1125 136 q 1150 179 1150 161 l 1150 1003 l 1310 1003 l 1310 151 q 1265 43 1310 88 q 1158 -1 1219 -1 l 1044 -1 l 1094 136 z "},"列":{"ha":1389,"x_min":85,"x_max":1303,"o":"m 138 119 l 499 119 l 517 199 l 361 199 l 128 494 l 329 494 l 526 244 l 600 565 l 143 565 l 275 864 l 86 864 l 86 1001 l 813 1001 l 813 864 l 481 864 l 410 703 l 842 703 l 681 0 l 85 0 l 138 119 m 908 935 l 1068 935 l 1068 190 l 908 190 l 908 935 m 1088 136 l 1100 136 q 1131 149 1118 136 q 1143 179 1143 161 l 1143 1003 l 1303 1003 l 1303 151 q 1258 42 1303 86 q 1150 -1 1214 -1 l 1038 -1 l 1088 136 z "},"刘":{"ha":1389,"x_min":108,"x_max":1281,"o":"m 146 181 q 367 290 272 225 q 164 735 221 461 l 322 735 q 483 397 365 538 q 592 575 550 475 q 654 804 635 675 l 108 804 l 108 942 l 361 942 l 328 1015 l 521 1015 l 553 942 l 849 942 l 849 804 l 811 804 q 734 515 786 640 q 601 290 682 389 q 811 183 686 228 l 811 8 q 485 178 624 68 q 146 6 351 74 l 146 181 m 886 922 l 1046 922 l 1046 176 l 886 176 l 886 922 m 1067 122 l 1078 122 q 1109 135 1096 122 q 1122 165 1122 147 l 1122 989 l 1281 989 l 1281 138 q 1235 29 1281 74 q 1129 -15 1190 -15 l 1015 -15 l 1067 122 z "},"则":{"ha":1389,"x_min":83,"x_max":1304,"o":"m 390 408 l 390 757 l 560 757 l 560 363 l 525 314 l 599 314 l 854 -1 l 633 -1 l 460 225 l 294 -1 l 83 -1 l 390 408 m 85 1000 l 699 1000 q 808 956 764 1000 q 851 847 851 911 l 851 275 l 692 275 l 692 836 q 679 867 692 854 q 649 879 667 879 l 244 879 l 244 275 l 85 275 l 85 1000 m 926 935 l 1086 935 l 1086 190 l 926 190 l 926 935 m 1089 136 l 1100 136 q 1132 149 1119 136 q 1144 179 1144 161 l 1144 1003 l 1304 1003 l 1304 150 q 1260 42 1304 85 q 1151 -1 1215 -1 l 1038 -1 l 1089 136 z "},"刚":{"ha":1389,"x_min":83,"x_max":1306,"o":"m 83 1000 l 739 1000 q 828 956 792 1000 q 865 847 865 911 l 865 150 q 828 43 865 88 q 739 -1 792 -1 l 589 -1 l 640 136 l 669 136 q 695 149 685 136 q 706 179 706 161 l 706 836 q 695 867 706 854 q 669 879 685 879 l 243 879 l 243 -1 l 83 -1 l 83 1000 m 392 503 l 249 790 l 413 790 l 474 667 l 536 790 l 700 790 l 556 503 l 700 215 l 536 215 l 474 339 l 413 215 l 249 215 l 392 503 m 929 935 l 1089 935 l 1089 190 l 929 190 l 929 935 m 1090 136 l 1103 136 q 1133 149 1121 136 q 1146 179 1146 161 l 1146 1003 l 1306 1003 l 1306 150 q 1260 42 1306 86 q 1154 -1 1215 -1 l 1040 -1 l 1090 136 z "},"创":{"ha":1389,"x_min":83,"x_max":1304,"o":"m 308 -1 q 199 43 243 -1 q 156 151 156 88 l 156 614 l 801 614 l 801 367 q 757 258 801 301 q 649 214 713 214 l 442 214 l 490 346 l 582 346 q 614 358 601 346 q 626 389 626 371 l 626 483 l 331 483 l 331 175 q 344 143 331 156 q 375 131 357 131 l 817 131 l 771 -1 l 308 -1 m 226 1001 l 719 1001 l 865 656 l 682 656 l 592 883 l 361 883 l 267 668 l 83 668 l 226 1001 m 926 935 l 1086 935 l 1086 190 l 926 190 l 926 935 m 1089 135 l 1100 135 q 1132 147 1119 135 q 1144 179 1144 160 l 1144 1003 l 1304 1003 l 1304 150 q 1260 42 1304 85 q 1151 -1 1215 -1 l 1038 -1 l 1089 135 z "},"初":{"ha":1389,"x_min":83,"x_max":1304,"o":"m 761 833 l 665 833 l 665 971 l 1304 971 l 1304 129 q 1266 37 1304 75 q 1174 -1 1228 -1 l 936 -1 l 999 136 l 1068 136 q 1099 149 1086 136 q 1111 181 1111 161 l 1111 833 l 963 833 l 803 -1 l 601 -1 l 761 833 m 331 756 l 113 756 l 113 893 l 219 893 l 172 1001 l 372 1001 l 421 893 l 608 893 l 453 613 l 600 613 l 600 476 l 556 476 l 625 244 l 486 244 l 426 442 l 426 -1 l 235 -1 l 235 322 l 83 322 l 331 756 z "},"删":{"ha":1389,"x_min":60,"x_max":1328,"o":"m 97 122 l 97 442 l 60 442 l 60 586 l 97 586 l 97 1021 l 417 1021 q 475 997 451 1021 q 499 939 499 974 l 499 586 l 547 586 l 547 1021 l 869 1021 q 928 997 904 1021 q 953 939 953 974 l 953 586 l 976 586 l 976 442 l 953 442 l 953 75 q 928 8 953 38 q 863 -19 900 -19 l 799 -19 l 717 -18 l 758 92 l 776 92 q 793 99 786 92 q 799 114 799 104 l 799 442 l 700 442 l 700 122 l 661 -19 l 508 -19 l 547 122 l 547 442 l 499 442 l 499 75 q 475 8 499 33 q 410 -19 447 -19 l 346 -19 l 264 -18 l 306 92 l 324 92 q 340 99 333 92 q 346 114 346 104 l 346 442 l 242 442 l 242 122 l 204 -19 l 60 -19 l 97 122 m 346 586 l 346 835 q 334 865 346 851 q 306 878 322 878 l 242 878 l 242 586 l 346 586 m 799 586 l 799 835 q 787 865 799 851 q 758 878 775 878 l 700 878 l 700 586 l 799 586 m 1004 956 l 1149 956 l 1149 175 l 1004 175 l 1004 956 m 1132 85 l 1160 85 q 1183 110 1183 85 l 1183 1024 l 1328 1024 l 1328 67 q 1301 3 1328 28 q 1236 -24 1275 -24 l 1086 -24 l 1132 85 z "},"判":{"ha":1389,"x_min":85,"x_max":1304,"o":"m 328 261 l 85 261 l 85 399 l 347 399 l 347 529 l 85 529 l 85 667 l 347 667 l 347 1001 l 540 1001 l 540 667 l 801 667 l 801 529 l 540 529 l 540 399 l 801 399 l 801 261 l 531 261 l 388 -1 l 179 -1 l 328 261 m 276 989 l 336 711 l 143 711 l 85 989 l 276 989 m 614 989 l 807 989 l 742 711 l 549 711 l 614 989 m 846 943 l 1013 943 l 1013 110 l 846 110 l 846 943 m 1053 136 l 1068 136 q 1099 149 1086 136 q 1111 181 1111 161 l 1111 1001 l 1304 1001 l 1304 151 q 1260 42 1304 86 q 1151 -1 1215 -1 l 992 -1 l 1053 136 z "},"刨":{"ha":1389,"x_min":86,"x_max":1303,"o":"m 561 329 l 568 329 q 599 342 586 329 q 611 372 611 354 l 611 771 l 86 771 l 236 1000 l 465 1000 l 404 908 l 804 908 l 804 344 q 758 236 804 281 q 651 192 713 192 l 500 192 l 561 329 m 111 725 l 553 725 l 553 389 q 520 309 553 342 q 440 276 488 276 l 293 276 l 293 178 q 306 147 293 160 q 336 135 318 135 l 793 135 l 732 0 l 263 0 q 154 44 197 0 q 111 150 111 88 l 111 725 m 343 400 q 365 409 356 400 q 374 431 374 418 l 374 603 l 293 603 l 293 400 l 343 400 m 850 944 l 1032 944 l 1032 121 l 850 121 l 850 944 m 1058 138 l 1071 138 q 1103 150 1090 138 q 1115 182 1115 163 l 1115 1001 l 1303 1001 l 1303 153 q 1259 46 1303 89 q 1150 3 1215 3 l 997 3 l 1058 138 z "},"利":{"ha":1389,"x_min":83,"x_max":1306,"o":"m 378 658 l 100 658 l 100 776 l 378 776 l 378 850 l 100 829 l 100 947 l 822 1003 l 822 885 l 544 863 l 544 776 l 822 776 l 822 658 l 544 658 l 544 0 l 378 0 l 378 658 m 144 613 l 294 613 l 235 0 l 83 0 l 144 613 m 763 613 l 822 0 l 671 0 l 611 613 l 763 613 m 910 936 l 1069 936 l 1069 190 l 910 190 l 910 936 m 1090 136 l 1101 136 q 1133 149 1121 136 q 1146 181 1146 161 l 1146 1003 l 1306 1003 l 1306 151 q 1260 43 1306 88 q 1153 -1 1214 -1 l 1039 -1 l 1090 136 z "},"别":{"ha":1389,"x_min":83,"x_max":1304,"o":"m 178 304 l 83 304 l 83 442 l 221 442 l 250 536 l 85 536 l 85 1003 l 831 1003 l 831 689 q 785 581 831 625 q 678 536 739 536 l 436 536 l 407 442 l 814 442 l 814 153 q 769 44 814 89 q 663 0 724 0 l 386 0 l 447 122 l 593 122 q 625 135 613 122 q 638 165 638 147 l 638 304 l 364 304 l 269 -1 l 85 -1 l 178 304 m 618 653 q 650 665 638 653 q 663 696 663 678 l 663 886 l 251 886 l 251 653 l 618 653 m 910 936 l 1069 936 l 1069 190 l 910 190 l 910 936 m 1089 136 l 1100 136 q 1132 149 1119 136 q 1144 181 1144 161 l 1144 1003 l 1304 1003 l 1304 151 q 1260 42 1304 86 q 1151 -1 1215 -1 l 1038 -1 l 1089 136 z "},"刮":{"ha":1389,"x_min":86,"x_max":1303,"o":"m 86 492 l 357 492 l 357 607 l 86 607 l 86 744 l 357 744 l 357 832 l 86 811 l 86 946 l 803 1000 l 803 865 l 551 846 l 551 744 l 822 744 l 822 607 l 551 607 l 551 492 l 821 492 l 821 151 q 776 43 821 88 q 669 -1 731 -1 l 86 -1 l 86 492 m 585 136 q 617 149 604 136 q 629 179 629 161 l 629 354 l 279 354 l 279 136 l 585 136 m 881 931 l 1042 931 l 1042 153 l 881 153 l 881 931 m 1036 138 l 1067 138 q 1099 150 1086 138 q 1111 181 1111 163 l 1111 1003 l 1303 1003 l 1303 153 q 1258 44 1303 89 q 1151 0 1213 0 l 975 0 l 1036 138 z "},"到":{"ha":1389,"x_min":83,"x_max":1306,"o":"m 86 138 l 324 138 l 324 283 l 86 283 l 86 421 l 324 421 l 324 525 l 503 525 l 503 421 l 764 421 l 764 283 l 503 283 l 503 138 l 764 138 l 764 0 l 86 0 l 86 138 m 153 864 l 86 864 l 86 1001 l 813 1001 l 813 864 l 340 864 l 303 700 l 567 700 l 544 806 l 736 806 l 796 526 l 603 526 l 594 564 l 83 564 l 153 864 m 847 944 l 1014 944 l 1014 110 l 847 110 l 847 944 m 1054 138 l 1069 138 q 1100 150 1088 138 q 1113 181 1113 163 l 1113 1001 l 1306 1001 l 1306 153 q 1261 44 1306 88 q 1153 0 1217 0 l 993 0 l 1054 138 z "},"制":{"ha":1389,"x_min":89,"x_max":1299,"o":"m 90 518 l 340 518 l 340 588 l 90 588 l 90 725 l 340 725 l 340 793 l 89 793 l 138 1000 l 300 1000 l 279 915 l 340 915 l 340 1000 l 517 1000 l 517 915 l 767 915 l 767 793 l 517 793 l 517 725 l 767 725 l 767 588 l 517 588 l 517 518 l 636 518 q 728 479 690 518 q 767 386 767 440 l 767 128 q 728 35 767 74 q 636 -3 690 -3 l 524 -3 l 554 104 l 561 104 q 592 117 579 104 q 604 147 604 129 l 604 336 q 592 368 604 356 q 561 381 579 381 l 517 381 l 517 -1 l 340 -1 l 340 381 l 253 381 l 253 -3 l 90 -3 l 90 518 m 851 931 l 1018 931 l 1018 153 l 851 153 l 851 931 m 1025 138 l 1056 138 q 1088 150 1075 138 q 1101 181 1101 163 l 1101 1003 l 1299 1003 l 1299 153 q 1253 44 1299 88 q 1142 0 1208 0 l 961 0 l 1025 138 z "},"刷":{"ha":1389,"x_min":88,"x_max":1300,"o":"m 129 89 l 129 988 l 885 988 l 885 792 q 843 692 885 733 q 742 650 801 650 l 293 650 l 293 89 l 251 -3 l 88 -3 l 129 89 m 694 754 q 723 766 711 754 q 735 794 735 778 l 735 899 l 293 899 l 293 754 l 694 754 m 329 572 l 529 572 l 529 613 l 676 613 l 676 572 l 781 572 q 849 544 821 572 q 876 476 876 517 l 876 136 q 849 68 876 96 q 781 40 821 40 l 676 40 l 713 133 l 717 133 q 739 156 739 133 l 739 442 q 717 464 739 464 l 676 464 l 676 3 l 529 3 l 529 464 l 465 464 l 465 44 l 329 44 l 329 572 m 925 958 l 1072 958 l 1072 135 l 925 135 l 925 958 m 1071 114 l 1096 114 q 1128 126 1115 114 q 1140 158 1140 139 l 1140 1004 l 1300 1004 l 1300 157 q 1256 49 1300 92 q 1147 6 1211 6 l 1024 6 l 1071 114 z "},"券":{"ha":1389,"x_min":79,"x_max":1310,"o":"m 317 310 l 214 310 l 214 435 l 79 435 l 235 615 l 82 615 l 82 738 l 340 738 l 397 804 l 97 804 l 97 926 l 197 926 l 139 1000 l 338 1000 l 396 926 l 503 926 l 567 1001 l 799 1001 l 735 926 l 1003 926 l 1061 1000 l 1261 1000 l 1201 926 l 1289 926 l 1289 804 l 629 804 l 572 738 l 1304 738 l 1304 615 l 1140 615 l 1310 435 l 1204 435 l 1204 151 q 1160 44 1204 89 q 1051 0 1115 0 l 789 0 l 865 136 l 953 136 q 983 149 971 136 q 996 179 996 161 l 996 310 l 533 310 l 307 0 l 89 0 l 317 310 m 1047 467 l 908 615 l 467 615 l 339 467 l 1047 467 z "},"刹":{"ha":1389,"x_min":88,"x_max":1300,"o":"m 292 135 l 356 135 q 388 147 375 135 q 400 179 400 160 l 400 410 l 88 410 l 88 547 l 400 547 l 400 625 l 572 625 l 572 547 l 865 547 l 865 410 l 572 410 l 572 150 q 529 44 572 88 q 421 0 486 0 l 351 0 l 292 135 m 168 364 l 339 364 l 258 60 l 88 60 l 168 364 m 88 731 q 249 771 189 754 q 88 847 160 806 l 88 997 q 476 843 318 899 q 865 997 628 896 l 865 847 q 706 771 800 810 q 865 731 772 751 l 865 593 q 476 693 608 653 q 88 593 344 653 l 88 731 m 799 364 l 879 60 l 710 60 l 629 364 l 799 364 m 903 943 l 1064 943 l 1064 168 l 903 168 l 903 943 m 1054 136 l 1076 136 q 1108 149 1094 136 q 1121 179 1121 161 l 1121 1000 l 1300 1000 l 1300 151 q 1256 44 1300 89 q 1147 0 1211 0 l 994 0 l 1054 136 z "},"刺":{"ha":1389,"x_min":85,"x_max":1304,"o":"m 358 658 l 282 658 l 282 364 l 89 364 l 89 765 l 358 765 l 358 804 l 85 804 l 85 942 l 358 942 l 358 1001 l 553 1001 l 553 942 l 808 942 l 808 804 l 553 804 l 553 765 l 690 765 q 783 726 744 765 q 821 635 821 688 l 821 472 q 788 396 821 428 q 711 364 756 364 l 558 364 l 589 454 l 600 454 q 619 463 611 454 q 628 482 628 471 l 628 615 q 615 646 628 633 q 585 658 603 658 l 553 658 l 553 -1 l 358 -1 l 358 658 m 151 339 l 343 339 l 278 -1 l 85 -1 l 151 339 m 758 339 l 825 -1 l 632 -1 l 567 339 l 758 339 m 850 944 l 1029 944 l 1029 110 l 850 110 l 850 944 m 1053 136 l 1068 136 q 1099 149 1086 136 q 1111 179 1111 161 l 1111 1001 l 1304 1001 l 1304 151 q 1258 43 1304 88 q 1151 -1 1213 -1 l 992 -1 l 1053 136 z "},"刻":{"ha":1389,"x_min":85,"x_max":1304,"o":"m 371 560 l 85 560 l 214 794 l 85 794 l 85 929 l 364 929 l 364 1000 l 531 1000 l 531 929 l 844 929 l 844 794 l 376 794 l 321 694 l 472 694 l 513 749 l 710 749 l 286 182 l 89 182 l 371 560 m 590 524 l 788 524 l 643 340 l 679 340 l 844 0 l 647 0 l 543 214 l 375 0 l 178 0 l 590 524 m 943 136 l 1068 136 q 1099 149 1086 136 q 1111 179 1111 161 l 1111 1000 l 1304 1000 l 1304 151 q 1260 44 1304 89 q 1151 0 1215 0 l 882 0 l 943 136 m 885 943 l 1051 943 l 1051 200 l 885 200 l 885 943 z "},"剂":{"ha":1389,"x_min":83,"x_max":1304,"o":"m 153 368 q 83 353 111 358 l 83 524 q 268 588 176 549 q 122 765 178 667 l 343 765 q 436 682 369 735 q 554 796 506 733 l 83 796 l 83 933 l 315 933 l 296 1008 l 489 1008 l 508 933 l 810 933 l 810 796 l 767 796 q 604 588 708 678 q 789 524 696 549 l 789 353 q 760 360 779 354 l 729 365 l 729 -7 l 528 -7 l 528 382 l 667 382 q 436 472 553 413 q 253 396 358 431 l 356 396 l 324 -7 l 122 -7 l 153 368 m 853 933 l 1043 933 l 1043 99 l 853 99 l 853 933 m 1063 114 l 1068 114 q 1099 126 1086 114 q 1111 157 1111 139 l 1111 999 l 1304 999 l 1304 149 q 1260 40 1304 83 q 1151 -4 1215 -4 l 1033 -4 l 1063 114 z "},"剃":{"ha":1389,"x_min":85,"x_max":1304,"o":"m 135 303 l 94 303 l 94 419 l 96 419 l 96 639 l 192 639 l 192 640 l 347 640 l 347 761 l 93 761 l 93 899 l 138 899 l 97 1006 l 281 1006 l 321 899 l 550 899 l 590 1006 l 774 1006 l 733 899 l 828 899 l 828 649 q 790 556 828 594 q 697 518 751 518 l 524 518 l 524 419 l 832 419 l 832 157 q 794 65 832 103 q 703 26 756 26 l 544 26 l 597 144 l 615 144 q 642 155 631 144 q 653 181 653 165 l 653 303 l 524 303 l 524 0 l 347 0 l 347 303 l 296 303 l 246 -1 l 85 -1 l 135 303 m 347 419 l 347 518 l 256 518 l 256 419 l 347 419 m 629 640 q 645 647 639 640 q 651 661 651 653 l 651 761 l 524 761 l 524 640 l 629 640 m 886 949 l 1046 949 l 1046 153 l 886 153 l 886 949 m 1049 129 l 1088 129 q 1119 142 1107 129 q 1132 174 1132 156 l 1132 993 l 1304 993 l 1304 147 q 1260 38 1304 82 q 1151 -6 1215 -6 l 989 -6 l 1049 129 z "},"削":{"ha":1389,"x_min":88,"x_max":1300,"o":"m 114 756 l 354 756 l 354 1001 l 554 1001 l 554 756 l 685 756 q 784 715 743 756 q 825 615 825 674 l 825 139 q 783 41 825 82 q 685 0 742 0 l 521 0 l 576 125 l 608 125 q 637 137 625 125 q 649 165 649 149 l 649 186 l 290 186 l 290 0 l 114 0 l 114 756 m 281 1001 l 321 800 l 129 800 l 88 1001 l 281 1001 m 649 311 l 649 407 l 290 407 l 290 311 l 649 311 m 649 533 l 649 590 q 637 619 649 607 q 608 631 625 631 l 290 631 l 290 533 l 649 533 m 628 1001 l 819 1001 l 779 800 l 588 800 l 628 1001 m 876 954 l 1051 954 l 1051 179 l 876 179 l 876 954 m 1046 144 l 1085 144 q 1115 157 1103 144 q 1128 189 1128 169 l 1128 992 l 1300 992 l 1300 161 q 1255 53 1300 97 q 1149 10 1210 10 l 985 10 l 1046 144 z "},"前":{"ha":1389,"x_min":83,"x_max":1306,"o":"m 92 732 l 807 732 l 807 125 q 796 75 807 101 q 767 33 783 49 q 725 6 751 17 q 675 -4 706 -4 l 519 -4 l 558 100 l 585 100 q 608 110 600 100 q 619 135 619 118 l 619 165 l 286 165 l 286 -4 l 92 -4 l 92 732 m 83 926 l 208 926 l 178 1006 l 410 1006 l 440 926 l 949 926 l 978 1006 l 1210 1006 l 1182 926 l 1304 926 l 1304 775 l 83 775 l 83 926 m 619 290 l 619 390 l 286 390 l 286 290 l 619 290 m 619 515 l 619 606 l 286 606 l 286 515 l 619 515 m 872 697 l 1051 697 l 1051 149 l 872 149 l 872 697 m 1053 133 l 1092 133 q 1121 146 1107 133 q 1133 176 1133 161 l 1133 722 l 1306 722 l 1306 150 q 1296 90 1306 114 q 1263 40 1282 61 q 1213 8 1240 18 q 1156 -3 1188 -3 l 990 -3 l 1053 133 z "},"剑":{"ha":1389,"x_min":79,"x_max":1310,"o":"m 82 119 l 604 119 l 689 489 l 868 489 l 783 119 l 860 119 l 860 -3 l 82 -3 l 82 119 m 171 982 l 774 982 l 865 683 l 678 683 l 631 846 l 314 846 l 267 683 l 79 683 l 171 982 m 260 489 l 344 149 l 167 149 l 82 489 l 260 489 m 89 643 l 860 643 l 860 519 l 89 519 l 89 643 m 499 489 l 583 149 l 406 149 l 321 489 l 499 489 m 890 958 l 1051 958 l 1051 164 l 890 164 l 890 958 m 1054 140 l 1093 140 q 1124 153 1111 140 q 1136 183 1136 165 l 1136 1004 l 1310 1004 l 1310 157 q 1265 48 1310 92 q 1157 4 1221 4 l 994 4 l 1054 140 z "},"剔":{"ha":1389,"x_min":85,"x_max":1304,"o":"m 197 393 l 85 393 l 164 574 l 129 574 l 129 1001 l 842 1001 l 842 726 q 797 617 842 661 q 689 574 753 574 l 369 574 l 351 531 l 856 531 l 856 151 q 811 43 856 86 q 703 0 767 0 l 539 0 l 589 136 l 619 136 q 650 149 638 136 q 663 181 663 161 l 663 393 l 603 393 l 490 0 l 308 0 l 421 393 l 379 393 l 267 0 l 85 0 l 197 393 m 606 696 q 634 706 622 696 q 649 733 646 717 l 322 733 l 322 696 l 606 696 m 649 840 l 649 879 l 322 879 l 322 840 l 649 840 m 886 914 l 1067 914 l 1067 182 l 886 182 l 886 914 m 1038 138 l 1068 138 q 1099 150 1086 138 q 1111 181 1111 163 l 1111 1001 l 1304 1001 l 1304 151 q 1260 43 1304 86 q 1151 0 1215 0 l 988 0 l 1038 138 z "},"剖":{"ha":1389,"x_min":82,"x_max":1306,"o":"m 82 642 l 200 642 l 138 826 l 82 826 l 82 932 l 369 932 l 339 1001 l 564 1001 l 596 932 l 846 932 l 846 826 l 790 826 l 728 642 l 846 642 l 846 536 l 82 536 l 82 642 m 118 469 l 840 469 l 840 168 q 796 59 840 103 q 688 15 751 15 l 118 15 l 118 469 m 608 128 q 639 140 626 128 q 651 171 651 153 l 651 358 l 307 358 l 307 128 l 608 128 m 378 642 l 550 642 l 611 826 l 317 826 l 378 642 m 915 932 l 1067 932 l 1067 154 l 915 154 l 915 932 m 1039 138 l 1069 138 q 1100 150 1088 138 q 1113 181 1113 163 l 1113 1001 l 1306 1001 l 1306 153 q 1261 44 1306 88 q 1153 0 1217 0 l 978 0 l 1039 138 z "},"剥":{"ha":1389,"x_min":83,"x_max":1306,"o":"m 308 100 l 332 100 q 360 113 349 100 q 372 143 372 125 l 372 538 l 100 538 l 100 647 l 621 647 l 621 711 l 100 711 l 100 819 l 621 819 l 621 846 q 608 878 621 865 q 578 890 596 890 l 100 890 l 100 996 l 661 996 q 768 952 722 996 q 814 844 814 908 l 814 647 l 871 647 l 871 538 l 544 538 l 544 133 q 510 41 544 79 q 425 3 475 3 l 275 3 l 308 100 m 171 278 l 340 278 l 253 18 l 83 18 l 171 278 m 261 504 l 340 329 l 171 329 l 92 504 l 261 504 m 747 278 l 835 18 l 664 18 l 576 278 l 747 278 m 656 504 l 826 504 l 747 329 l 576 329 l 656 504 m 915 931 l 1068 931 l 1068 153 l 915 153 l 915 931 m 1039 136 l 1069 136 q 1100 149 1088 136 q 1113 181 1113 161 l 1113 1001 l 1306 1001 l 1306 151 q 1261 42 1306 86 q 1153 -1 1217 -1 l 978 -1 l 1039 136 z "},"剧":{"ha":1389,"x_min":89,"x_max":1299,"o":"m 124 136 l 124 1001 l 817 1001 l 817 763 q 788 681 817 708 q 704 653 758 653 l 288 653 l 288 144 l 243 -1 l 89 -1 l 124 136 m 619 772 q 637 777 632 772 q 642 794 642 782 l 642 903 l 286 903 l 286 772 l 619 772 m 322 563 l 486 563 l 486 618 l 654 618 l 654 563 l 818 563 l 818 456 l 654 456 l 654 374 l 810 374 l 810 140 q 772 48 810 86 q 679 10 733 10 l 329 10 l 329 374 l 486 374 l 486 456 l 322 456 l 322 563 m 606 104 q 636 117 624 104 q 649 149 649 129 l 649 279 l 476 279 l 476 104 l 606 104 m 879 931 l 1038 931 l 1038 153 l 879 153 l 879 931 m 1032 136 l 1063 136 q 1094 149 1082 136 q 1107 179 1107 161 l 1107 1001 l 1299 1001 l 1299 151 q 1253 43 1299 88 q 1147 -1 1208 -1 l 971 -1 l 1032 136 z "},"剩":{"ha":1389,"x_min":85,"x_max":1304,"o":"m 386 686 l 85 686 l 85 807 l 386 807 l 386 867 l 85 861 l 85 985 l 881 1000 l 881 876 l 579 871 l 579 807 l 881 807 l 881 686 l 579 686 l 579 0 l 386 0 l 386 686 m 163 265 l 346 265 l 269 0 l 85 0 l 163 265 m 85 450 l 196 463 l 196 492 l 85 492 l 85 624 l 196 624 l 196 654 l 340 654 l 340 303 l 196 303 l 196 332 l 85 318 l 85 450 m 621 654 l 765 654 l 765 603 l 876 621 l 876 501 l 765 482 l 765 456 q 772 440 765 447 q 788 433 778 433 l 842 433 l 876 303 l 731 303 q 653 335 685 303 q 621 413 621 368 l 621 654 m 808 265 l 881 0 l 696 0 l 624 265 l 808 265 m 925 943 l 1094 943 l 1094 215 l 925 215 l 925 943 m 1018 118 l 1096 118 q 1123 131 1111 118 q 1135 161 1135 143 l 1135 1000 l 1304 1000 l 1304 150 q 1265 44 1304 88 q 1169 0 1225 0 l 971 0 l 1018 118 z "},"剪":{"ha":1389,"x_min":82,"x_max":1307,"o":"m 282 193 l 104 193 l 104 331 l 1286 331 l 1286 151 q 1275 90 1286 121 q 1242 43 1263 63 q 1193 10 1222 21 q 1133 -1 1167 -1 l 814 -1 l 875 136 l 1050 136 q 1079 149 1069 136 q 1093 179 1093 161 l 1093 193 l 532 193 l 371 -1 l 121 -1 l 282 193 m 82 961 l 256 961 l 232 1003 l 435 1003 l 458 961 l 931 961 l 956 1003 l 1157 1003 l 1133 961 l 1307 961 l 1307 832 l 82 832 l 82 961 m 121 807 l 671 807 q 749 775 717 807 q 781 699 781 743 l 781 486 q 746 404 781 439 q 664 371 715 371 l 450 371 l 503 469 l 547 469 q 585 493 574 469 l 314 493 l 314 371 l 121 371 l 121 807 m 590 576 l 590 607 l 314 607 l 314 576 l 590 576 m 590 693 l 590 706 q 571 724 590 724 l 314 724 l 314 693 l 590 693 m 832 796 l 1014 796 l 1014 514 l 832 514 l 832 796 m 890 482 l 1032 482 q 1063 496 1050 482 q 1076 526 1076 506 l 1076 811 l 1264 811 l 1264 497 q 1256 449 1264 472 q 1226 408 1244 424 q 1186 381 1211 393 q 1136 371 1163 371 l 838 371 l 890 482 z "},"副":{"ha":1389,"x_min":82,"x_max":1307,"o":"m 88 447 l 850 447 l 850 151 q 805 44 850 88 q 699 0 760 0 l 88 0 l 88 447 m 82 978 l 856 978 l 856 881 l 82 881 l 82 978 m 133 840 l 819 840 l 819 653 q 774 544 819 589 q 667 500 728 500 l 133 500 l 133 840 m 396 96 l 396 175 l 276 175 l 276 96 l 396 96 m 396 272 l 396 350 l 276 350 l 276 272 l 396 272 m 586 597 q 618 610 606 597 q 631 640 631 622 l 631 744 l 322 744 l 322 597 l 586 597 m 618 96 q 649 108 636 96 q 661 140 661 121 l 661 175 l 539 175 l 539 96 l 618 96 m 661 272 l 661 350 l 539 350 l 539 272 l 661 272 m 903 931 l 1056 931 l 1056 153 l 903 153 l 903 931 m 1039 136 l 1069 136 q 1101 149 1089 136 q 1114 181 1114 161 l 1114 1001 l 1307 1001 l 1307 151 q 1261 44 1307 88 q 1154 0 1215 0 l 979 0 l 1039 136 z "},"割":{"ha":1389,"x_min":83,"x_max":1306,"o":"m 104 285 l 367 285 l 367 331 l 104 331 l 104 435 l 367 435 l 367 479 l 104 479 l 104 582 l 367 582 l 367 626 l 104 626 l 104 729 l 367 729 l 367 779 l 564 779 l 564 729 l 814 729 l 814 626 l 564 626 l 564 582 l 814 582 l 814 479 l 564 479 l 564 435 l 814 435 l 814 331 l 564 331 l 564 285 l 814 285 l 814 151 q 767 42 814 86 q 657 -1 721 -1 l 104 -1 l 104 285 m 83 958 l 347 958 l 325 1001 l 540 1001 l 563 958 l 692 958 q 801 919 754 958 q 847 825 847 881 l 847 774 l 650 774 l 650 800 q 638 828 650 817 q 606 839 625 839 l 281 839 l 281 774 l 83 774 l 83 958 m 571 103 q 603 115 590 103 q 615 146 615 128 l 615 181 l 303 181 l 303 103 l 571 103 m 876 904 l 1068 904 l 1068 217 l 876 217 l 876 904 m 982 118 l 1069 118 q 1101 131 1089 118 q 1114 163 1114 143 l 1114 1001 l 1306 1001 l 1306 151 q 1260 43 1306 88 q 1154 -1 1215 -1 l 929 -1 l 982 118 z "},"剿":{"ha":1389,"x_min":83,"x_max":1306,"o":"m 418 242 l 86 242 l 86 332 l 418 332 l 418 386 l 117 386 l 117 774 l 892 774 l 892 499 q 858 419 892 451 q 778 386 825 386 l 586 386 l 586 332 l 907 332 l 907 242 l 586 242 l 586 -1 l 418 -1 l 418 242 m 185 207 l 346 207 l 246 -1 l 83 -1 l 185 207 m 165 1001 l 335 1001 l 275 901 l 335 800 l 165 800 l 107 901 l 165 1001 m 418 476 l 418 535 l 285 535 l 285 476 l 418 476 m 418 626 l 418 683 l 285 683 l 285 626 l 418 626 m 444 1001 l 614 1001 l 554 901 l 614 800 l 444 800 l 386 901 l 444 1001 m 693 476 q 716 486 707 476 q 725 508 725 496 l 725 535 l 586 535 l 586 476 l 693 476 m 725 626 l 725 683 l 586 683 l 586 626 l 725 626 m 807 207 l 907 -1 l 746 -1 l 646 207 l 807 207 m 722 1001 l 892 1001 l 832 901 l 892 800 l 722 800 l 663 901 l 722 1001 m 954 951 l 1094 951 l 1094 172 l 954 172 l 954 951 m 1038 103 l 1093 103 q 1124 115 1111 103 q 1136 146 1136 128 l 1136 1003 l 1306 1003 l 1306 110 q 1272 31 1306 64 q 1193 -1 1239 -1 l 999 -1 l 1038 103 z "},"劈":{"ha":1389,"x_min":103,"x_max":1285,"o":"m 138 458 l 138 968 l 675 968 l 675 821 q 640 751 675 776 q 550 726 606 726 l 300 726 l 300 467 l 257 321 l 103 321 l 138 458 m 103 282 l 1285 282 l 1285 151 q 1240 44 1285 89 q 1132 0 1196 0 l 974 0 l 1008 96 l 1036 96 q 1067 108 1054 96 q 1079 139 1079 121 l 1079 190 l 583 190 l 431 0 l 168 0 l 321 190 l 103 190 l 103 282 m 508 815 q 525 820 521 815 q 529 838 529 825 l 529 871 l 299 871 l 299 815 l 508 815 m 346 683 l 669 683 l 669 474 q 624 365 669 410 q 518 321 579 321 l 346 321 l 346 683 m 489 418 q 521 431 508 418 q 533 461 533 443 l 533 586 l 483 586 l 483 418 l 489 418 m 714 536 l 906 536 l 906 622 l 714 622 l 714 715 l 779 715 l 728 822 l 908 822 l 958 715 l 1040 715 l 1092 822 l 1271 822 l 1221 715 l 1285 715 l 1285 622 l 1094 622 l 1094 536 l 1285 536 l 1285 443 l 1094 443 l 1094 321 l 906 321 l 906 443 l 714 443 l 714 536 m 714 958 l 906 958 l 906 1000 l 1094 1000 l 1094 958 l 1285 958 l 1285 867 l 714 867 l 714 958 z "},"力":{"ha":1389,"x_min":110,"x_max":1278,"o":"m 386 775 l 111 775 l 111 900 l 431 900 l 467 999 l 656 999 l 621 900 l 1278 900 l 1278 142 q 1237 42 1278 83 q 1138 1 1196 1 l 814 1 l 869 128 l 1046 128 q 1074 140 1063 128 q 1086 168 1086 151 l 1086 775 l 575 775 l 300 1 l 110 1 l 386 775 z "},"劝":{"ha":1389,"x_min":85,"x_max":1304,"o":"m 794 760 l 690 760 l 690 903 l 819 903 l 836 1001 l 1028 1001 l 1011 903 l 1304 903 l 1304 126 q 1268 39 1304 75 q 1181 3 1232 3 l 994 3 l 946 132 l 1086 132 q 1108 141 1099 132 q 1118 164 1118 150 l 1118 760 l 986 760 l 858 3 l 667 3 l 794 760 m 85 182 q 254 318 181 236 q 94 786 140 501 l 267 786 q 365 479 303 603 q 465 833 443 636 l 94 833 l 94 971 l 639 971 l 639 833 q 468 321 608 539 q 639 182 543 236 l 639 -1 q 358 183 471 64 q 85 -1 239 60 l 85 182 z "},"办":{"ha":1389,"x_min":86,"x_max":1301,"o":"m 467 782 l 140 782 l 140 925 l 508 925 l 531 1001 l 738 1001 l 715 925 l 1079 925 l 1079 711 l 1240 711 l 1301 258 l 1128 258 l 1079 613 l 1079 143 q 1041 51 1079 89 q 949 13 1003 13 l 664 13 l 726 142 l 849 142 q 881 154 868 142 q 893 185 893 167 l 893 782 l 674 782 l 449 0 l 242 0 l 467 782 m 194 660 l 369 660 l 261 258 l 86 258 l 194 660 z "},"功":{"ha":1389,"x_min":93,"x_max":1294,"o":"m 757 760 l 607 760 l 607 903 l 789 903 l 811 1003 l 1018 1003 l 996 903 l 1294 903 l 1294 128 q 1259 40 1294 76 q 1171 4 1224 4 l 969 4 l 1015 133 l 1076 133 q 1099 142 1090 133 q 1108 165 1108 151 l 1108 760 l 964 760 l 794 -3 l 588 -3 l 757 760 m 93 140 l 225 140 l 225 832 l 103 832 l 103 975 l 532 975 l 532 832 l 411 832 l 411 140 l 543 140 l 543 -3 l 93 -3 l 93 140 z "},"加":{"ha":1389,"x_min":97,"x_max":1290,"o":"m 550 0 l 401 0 l 440 136 l 519 136 q 541 144 532 136 q 550 165 550 153 l 550 778 l 381 778 l 269 0 l 97 0 l 208 778 l 97 778 l 97 913 l 228 913 l 240 1001 l 413 1001 l 400 913 l 722 913 l 722 103 q 692 29 722 60 q 618 -1 661 -1 l 550 -1 l 550 0 m 792 957 l 1290 957 l 1290 125 q 1260 51 1290 81 q 1186 21 1229 21 l 792 21 l 792 957 m 1088 157 q 1109 165 1100 157 q 1118 186 1118 174 l 1118 821 l 964 821 l 964 157 l 1088 157 z "},"务":{"ha":1389,"x_min":86,"x_max":1303,"o":"m 86 589 q 371 613 271 601 q 110 775 204 681 l 374 775 q 683 663 518 701 q 1043 801 879 711 l 96 801 l 201 1001 l 374 1001 l 333 926 l 1282 926 l 1282 801 q 997 613 1188 692 q 1282 589 1097 601 l 1282 453 q 683 519 939 467 q 86 453 429 467 l 86 589 m 313 292 l 106 292 l 106 400 l 389 400 l 436 468 l 642 468 l 593 400 l 1303 400 l 1303 133 q 1264 40 1303 78 q 1172 1 1225 1 l 861 1 l 924 122 l 1088 122 q 1118 135 1106 122 q 1131 167 1131 147 l 1131 292 l 517 292 l 311 0 l 106 0 l 313 292 z "},"劣":{"ha":1389,"x_min":82,"x_max":1307,"o":"m 86 571 l 603 638 l 603 1001 l 794 1001 l 794 661 l 1079 699 l 974 929 l 1165 929 l 1307 624 l 1114 624 l 1081 696 l 1081 550 l 86 422 l 86 571 m 224 929 l 415 929 l 275 624 l 82 624 l 224 929 m 86 381 l 488 381 l 565 471 l 792 471 l 714 381 l 1307 381 l 1307 151 q 1261 43 1307 88 q 1154 -1 1215 -1 l 711 -1 l 757 121 l 1082 121 q 1114 133 1101 121 q 1126 164 1126 146 l 1126 243 l 593 243 l 383 1 l 156 1 l 367 243 l 86 243 l 86 381 z "},"动":{"ha":1389,"x_min":82,"x_max":1306,"o":"m 817 768 l 650 768 l 650 904 l 842 904 l 858 1001 l 1031 1001 l 1014 904 l 1306 904 l 1306 131 q 1267 38 1306 75 q 1174 0 1229 0 l 993 0 l 1040 121 l 1089 121 q 1121 133 1108 121 q 1133 165 1133 146 l 1133 768 l 989 768 l 850 0 l 678 0 l 817 768 m 82 701 l 638 701 l 638 565 l 388 565 l 299 167 l 456 167 l 418 364 l 581 364 l 650 0 l 488 0 l 482 32 l 96 32 l 215 565 l 82 565 l 82 701 m 119 964 l 600 964 l 600 828 l 119 828 l 119 964 z "},"助":{"ha":1389,"x_min":85,"x_max":1304,"o":"m 85 114 l 146 118 l 146 1001 l 651 1001 l 651 157 l 700 160 l 700 46 l 85 -1 l 85 114 m 482 143 l 482 307 l 315 307 l 315 131 l 482 143 m 482 422 l 482 590 l 315 590 l 315 422 l 482 422 m 482 706 l 482 886 l 315 886 l 315 706 l 482 706 m 724 872 l 875 872 l 892 1000 l 1058 1000 l 1042 872 l 1304 872 l 1304 153 q 1260 44 1304 88 q 1151 0 1215 0 l 978 0 l 1029 138 l 1101 138 q 1132 150 1119 138 q 1144 181 1144 163 l 1144 736 l 1024 736 l 925 0 l 757 0 l 857 736 l 724 736 l 724 872 z "},"努":{"ha":1389,"x_min":92,"x_max":1296,"o":"m 222 250 l 94 250 l 94 386 l 293 386 l 311 422 l 528 422 l 510 386 l 1296 386 l 1296 151 q 1251 42 1296 86 q 1143 -1 1207 -1 l 804 -1 l 865 136 l 1060 136 q 1090 149 1078 136 q 1103 181 1103 161 l 1103 250 l 439 250 l 308 -1 l 92 -1 l 222 250 m 94 579 l 146 585 q 201 590 182 588 q 139 750 139 663 l 139 838 l 94 838 l 94 956 l 139 956 l 139 1001 l 289 1001 l 289 956 l 467 956 l 467 1001 l 617 1001 l 617 956 l 669 956 l 669 838 l 617 838 l 617 750 q 553 590 617 658 q 611 585 572 588 l 661 579 l 661 442 q 507 458 575 449 q 378 486 439 467 q 249 458 317 467 q 94 442 181 449 l 94 579 m 289 774 q 378 644 303 690 q 467 774 453 690 l 467 838 l 289 838 l 289 774 m 717 586 q 874 628 793 594 q 717 844 769 722 l 883 844 q 1011 704 922 774 q 1142 871 1118 783 l 717 871 l 717 993 l 1296 993 l 1296 858 q 1245 738 1283 796 q 1149 629 1207 679 q 1296 586 1206 603 l 1296 450 q 1008 535 1138 467 q 717 450 868 464 l 717 586 z "},"劫":{"ha":1389,"x_min":83,"x_max":1304,"o":"m 546 31 l 83 31 l 206 432 l 83 432 l 83 569 l 306 569 l 306 736 l 119 736 l 119 874 l 306 874 l 306 997 l 489 997 l 489 874 l 681 874 l 681 736 l 489 736 l 489 569 l 711 569 l 711 432 l 364 432 l 285 168 l 518 168 l 490 306 l 649 306 l 711 0 l 553 0 l 546 31 m 724 872 l 875 872 l 892 1000 l 1058 1000 l 1042 872 l 1304 872 l 1304 153 q 1260 44 1304 88 q 1151 0 1215 0 l 978 0 l 1029 138 l 1101 138 q 1132 150 1119 138 q 1144 181 1144 163 l 1144 736 l 1024 736 l 925 0 l 758 0 l 857 736 l 724 736 l 724 872 z "},"励":{"ha":1389,"x_min":85,"x_max":1304,"o":"m 124 125 l 124 1004 l 815 1004 l 815 875 l 279 875 l 279 793 l 815 793 l 815 665 l 507 665 l 507 564 l 815 564 l 815 150 q 771 41 815 85 q 663 -3 726 -3 l 554 -3 l 600 125 l 617 125 q 647 138 635 125 q 660 169 660 150 l 660 436 l 507 436 l 507 125 l 468 -3 l 313 -3 l 353 125 l 353 665 l 279 665 l 279 125 l 239 -3 l 85 -3 l 124 125 m 856 894 l 943 894 l 951 1001 l 1104 1001 l 1096 894 l 1304 894 l 1304 131 q 1266 38 1304 76 q 1174 0 1228 0 l 1065 0 l 1107 129 l 1114 129 q 1144 142 1132 129 q 1157 172 1157 154 l 1157 767 l 1086 767 l 1024 0 l 871 0 l 932 767 l 856 767 l 856 894 z "},"劲":{"ha":1389,"x_min":83,"x_max":1304,"o":"m 825 786 l 725 786 l 725 924 l 840 924 l 849 1003 l 1042 1003 l 1032 924 l 1304 924 l 1304 150 q 1258 42 1304 86 q 1151 -3 1213 -3 l 974 -3 l 1035 135 l 1068 135 q 1099 147 1086 135 q 1111 178 1111 160 l 1111 786 l 1018 786 l 931 -3 l 738 -3 l 825 786 m 83 135 l 275 135 l 275 324 l 114 324 l 114 460 l 628 460 l 628 324 l 468 324 l 468 135 l 660 135 l 660 -3 l 83 -3 l 83 135 m 382 863 l 85 863 l 85 1000 l 704 1000 l 532 793 l 597 793 l 722 504 l 549 504 l 461 708 l 292 506 l 83 506 l 382 863 z "},"劳":{"ha":1389,"x_min":83,"x_max":1304,"o":"m 313 322 l 146 322 l 146 460 l 368 460 l 415 576 l 617 576 l 569 460 l 1243 460 l 1243 153 q 1199 44 1243 88 q 1090 0 1154 0 l 815 0 l 876 138 l 1007 138 q 1038 150 1025 138 q 1050 181 1050 163 l 1050 322 l 514 322 l 383 0 l 182 0 l 313 322 m 83 753 l 1133 753 q 1221 729 1182 753 q 1282 666 1260 706 q 1304 582 1304 626 l 1304 522 l 1132 522 l 1132 582 q 1118 615 1132 601 q 1085 629 1104 629 l 256 629 l 256 522 l 83 522 l 83 753 m 83 957 l 257 957 l 238 1001 l 438 1001 l 457 957 l 931 957 l 950 1001 l 1150 1001 l 1131 957 l 1304 957 l 1304 846 l 1082 846 l 1064 806 l 864 806 l 882 846 l 506 846 l 524 806 l 324 806 l 306 846 l 83 846 l 83 957 z "},"势":{"ha":1389,"x_min":83,"x_max":1304,"o":"m 281 249 l 96 249 l 96 386 l 378 386 l 403 421 l 635 421 l 610 386 l 1271 386 l 1271 151 q 1226 42 1271 86 q 1118 -1 1182 -1 l 825 -1 l 886 115 l 1019 115 q 1050 128 1038 115 q 1063 158 1063 140 l 1063 249 l 514 249 l 338 -1 l 106 -1 l 281 249 m 136 565 l 207 565 q 222 572 215 565 q 228 586 228 578 l 228 610 l 83 610 l 228 728 l 228 822 l 83 822 l 83 958 l 228 958 l 228 1001 l 419 1001 l 419 958 l 542 958 l 542 822 l 419 822 l 419 793 l 557 793 l 419 679 l 419 576 q 381 484 419 522 q 289 446 343 446 l 83 446 l 136 565 m 576 581 l 557 586 l 557 722 l 622 701 l 665 815 l 571 815 l 571 951 l 717 951 l 736 1001 l 938 1001 l 918 951 l 1196 951 l 1196 600 q 1208 569 1196 582 q 1240 557 1221 557 l 1282 557 l 1304 436 l 1157 436 q 1048 481 1092 436 q 1004 589 1004 525 l 1004 815 l 867 815 l 803 646 l 938 604 l 938 468 l 756 524 l 728 450 l 526 450 l 576 581 z "},"勃":{"ha":1389,"x_min":83,"x_max":1306,"o":"m 856 778 l 781 778 l 781 915 l 868 915 l 876 1001 l 1061 1001 l 1054 915 l 1306 915 l 1306 153 q 1294 93 1306 119 q 1261 44 1283 64 q 1213 13 1242 25 q 1154 1 1183 1 l 1014 1 l 1056 139 l 1083 139 q 1115 151 1101 139 q 1128 182 1128 163 l 1128 778 l 1040 778 l 968 1 l 783 1 l 856 778 m 83 772 l 306 772 l 306 826 l 103 826 l 103 942 l 306 942 l 306 1001 l 499 1001 l 499 942 l 710 942 l 710 826 l 499 826 l 499 772 l 639 772 q 713 742 682 772 q 743 668 743 711 l 743 610 l 571 610 l 571 658 q 565 664 571 664 l 254 664 l 254 610 l 83 610 l 83 772 m 92 339 l 321 339 l 321 371 l 421 444 l 163 444 l 163 565 l 679 565 l 679 481 l 500 339 l 735 339 l 735 218 l 494 218 l 494 121 q 460 33 494 69 q 372 -1 425 -1 l 272 -1 l 236 107 l 285 107 q 317 121 315 107 q 321 151 321 131 l 321 218 l 92 218 l 92 339 z "},"勇":{"ha":1389,"x_min":83,"x_max":1306,"o":"m 104 810 l 263 810 l 229 867 l 421 867 l 454 810 l 928 810 l 1000 896 l 83 896 l 83 1001 l 1306 1001 l 1149 810 l 1154 810 q 1247 772 1208 810 q 1285 679 1285 733 l 1285 365 l 1110 365 l 1110 422 l 789 422 l 789 385 l 596 385 l 596 422 l 279 422 l 279 365 l 104 365 l 104 810 m 218 206 l 83 206 l 83 313 l 289 313 l 325 368 l 557 368 l 521 313 l 1285 313 l 1285 129 q 1247 37 1285 75 q 1154 -1 1208 -1 l 896 -1 l 949 119 l 1053 119 q 1081 131 1069 119 q 1093 158 1093 143 l 1093 206 l 450 206 l 314 -1 l 83 -1 l 218 206 m 596 513 l 596 563 l 279 563 l 279 513 l 596 513 m 596 653 l 596 704 l 279 704 l 279 653 l 596 653 m 1110 513 l 1110 563 l 789 563 l 789 513 l 1110 513 m 1110 653 l 1110 665 q 1098 693 1110 682 q 1071 704 1086 704 l 789 704 l 789 653 l 1110 653 z "},"勉":{"ha":1389,"x_min":85,"x_max":1303,"o":"m 283 303 l 85 303 l 85 751 l 440 751 l 482 844 l 85 844 l 157 1003 l 367 1003 l 340 943 l 728 943 l 647 751 l 714 751 l 714 433 q 676 341 714 379 q 583 303 638 303 l 438 303 l 411 257 l 565 257 l 565 144 q 576 119 565 129 q 601 108 586 108 l 1303 108 l 1253 -3 l 533 -3 q 443 33 479 -3 q 407 121 407 69 l 407 251 l 256 -3 l 103 -3 l 283 303 m 328 410 l 328 646 l 231 646 l 231 410 l 328 410 m 546 410 q 562 416 556 410 q 568 431 568 422 l 568 646 l 474 646 l 474 410 l 546 410 m 750 915 l 800 915 l 804 983 l 957 983 l 953 915 l 1278 915 l 1278 257 q 1247 183 1278 214 q 1174 153 1217 153 l 935 153 l 976 247 l 1086 247 q 1107 256 1099 247 q 1115 276 1115 264 l 1115 807 l 946 807 l 906 153 l 754 153 l 794 807 l 750 807 l 750 915 z "},"勋":{"ha":1389,"x_min":86,"x_max":1303,"o":"m 824 779 l 763 779 l 763 917 l 833 917 l 840 1003 l 1043 1003 l 1036 917 l 1303 917 l 1303 156 q 1256 48 1303 92 q 1147 4 1210 4 l 1079 4 l 1017 140 l 1057 140 q 1090 153 1076 140 q 1103 183 1103 165 l 1103 779 l 1026 779 l 969 4 l 767 4 l 824 779 m 86 657 l 601 657 q 694 617 656 657 q 733 521 733 576 l 733 174 l 600 174 l 710 -1 l 517 -1 l 422 156 l 314 -1 l 108 -1 l 226 174 l 86 174 l 86 657 m 111 1003 l 718 1003 l 718 825 q 678 725 718 764 q 579 686 639 686 l 111 686 l 111 1003 m 321 311 l 321 463 l 500 463 l 500 269 l 472 228 l 550 228 l 550 479 q 538 508 550 496 q 511 519 526 519 l 265 519 l 265 229 l 321 311 m 489 808 q 514 819 504 808 q 524 846 524 831 l 524 879 l 306 879 l 306 808 l 489 808 z "},"勒":{"ha":1389,"x_min":85,"x_max":1303,"o":"m 314 115 l 85 115 l 85 219 l 314 219 l 314 281 l 99 281 l 99 638 l 314 638 l 314 689 l 135 689 l 135 839 l 99 839 l 99 935 l 135 935 l 135 983 l 303 983 l 303 935 l 497 935 l 497 983 l 664 983 l 664 935 l 703 935 l 703 839 l 664 839 l 664 819 q 631 728 664 765 q 549 689 597 689 l 486 689 l 486 638 l 703 638 l 703 411 q 693 360 703 379 q 668 319 685 336 q 631 292 654 301 q 586 281 606 281 l 486 281 l 486 219 l 703 219 l 703 115 l 486 115 l 486 0 l 314 0 l 314 115 m 314 378 l 314 538 l 254 538 l 254 378 l 314 378 m 465 786 q 489 796 481 786 q 497 819 497 804 l 497 839 l 303 839 l 303 786 l 465 786 m 525 378 q 544 400 544 378 l 544 538 l 486 538 l 486 378 l 525 378 m 731 911 l 844 911 l 853 1001 l 1035 1001 l 1025 911 l 1303 911 l 1303 168 q 1292 108 1303 133 q 1258 60 1279 81 q 1211 28 1239 39 q 1153 15 1182 15 l 1014 15 l 1050 113 l 1072 113 q 1103 125 1090 113 q 1115 156 1115 138 l 1115 806 l 1015 806 l 939 3 l 758 3 l 833 806 l 731 806 l 731 911 z "},"勘":{"ha":1389,"x_min":85,"x_max":1304,"o":"m 256 0 q 147 44 190 0 q 103 153 103 89 l 103 326 l 85 326 l 85 464 l 126 464 l 126 808 l 92 808 l 92 946 l 126 946 l 126 1001 l 303 1001 l 303 946 l 510 946 l 510 1001 l 688 1001 l 688 946 l 722 946 l 722 808 l 688 808 l 688 464 l 729 464 l 729 326 l 281 326 l 281 181 q 293 150 281 163 q 324 138 306 138 l 722 138 l 672 0 l 256 0 m 328 303 l 483 303 l 450 158 l 294 158 l 328 303 m 510 464 l 510 503 l 303 503 l 303 464 l 510 464 m 510 610 l 510 664 l 303 664 l 303 610 l 510 610 m 510 769 l 510 808 l 303 808 l 303 769 l 510 769 m 668 303 l 700 158 l 546 158 l 513 303 l 668 303 m 831 808 l 750 808 l 750 946 l 847 946 l 854 1001 l 1056 1001 l 1049 946 l 1304 946 l 1304 153 q 1260 44 1304 88 q 1151 0 1215 0 l 994 0 l 1044 138 l 1068 138 q 1099 150 1086 138 q 1111 181 1111 163 l 1111 808 l 1032 808 l 936 0 l 735 0 l 831 808 z "},"募":{"ha":1389,"x_min":82,"x_max":1307,"o":"m 151 343 l 82 343 l 82 444 l 254 444 l 285 475 l 135 475 l 135 814 l 1256 814 l 1256 585 q 1224 508 1256 540 q 1147 475 1190 475 l 533 475 l 501 444 l 1306 444 l 1306 343 l 1247 343 l 1307 276 l 1058 276 l 999 343 l 399 343 l 332 276 l 83 276 l 151 343 m 82 969 l 250 969 l 236 1001 l 438 1001 l 453 969 l 939 969 l 950 1001 l 1153 1001 l 1139 969 l 1306 969 l 1306 869 l 1094 869 l 1081 838 l 878 838 l 892 869 l 496 869 l 511 838 l 308 838 l 294 869 l 82 869 l 82 969 m 251 144 l 135 144 l 135 247 l 340 247 l 375 286 l 607 286 l 574 247 l 1249 247 l 1249 104 q 1218 29 1249 58 q 1139 0 1183 0 l 735 0 l 790 99 l 1035 99 q 1050 104 1044 99 q 1056 119 1056 114 l 1056 144 l 483 144 l 353 0 l 119 0 l 251 144 m 1040 576 q 1056 583 1044 576 q 1061 597 1061 590 l 328 597 l 328 576 l 1040 576 m 1061 690 l 1061 710 l 328 710 l 328 690 l 1061 690 z "}}}
